{"glyphs":{"0":{"ha":1168,"x_min":0,"x_max":0,"o":"m 746 -29 b 592 -44 696 -43 643 -46 b 299 25 492 -43 389 -19 b 150 139 243 53 188 90 b 67 311 111 190 82 250 b 68 710 35 440 36 581 b 139 868 82 767 107 821 b 226 963 163 904 192 938 b 382 1039 274 997 329 1018 b 683 1068 476 1074 583 1079 b 836 1038 735 1063 786 1053 b 935 994 871 1028 906 1015 b 1056 864 985 961 1026 915 b 1122 610 1100 788 1115 697 b 1119 483 1125 568 1122 525 b 1079 260 1114 407 1103 332 b 990 111 1060 206 1029 153 b 746 -29 925 43 836 -4 m 951 853 b 978 853 951 839 972 839 b 974 885 983 864 982 874 b 918 942 957 906 939 926 b 876 968 906 953 890 960 b 774 1004 865 975 785 997 b 735 1021 761 1011 749 1019 b 693 1018 729 1021 699 1019 b 646 1013 676 1018 658 1022 b 654 989 635 1004 640 990 b 701 982 663 988 694 986 b 733 979 711 978 722 978 b 750 972 736 981 746 974 b 843 940 781 961 814 956 b 928 885 856 935 914 889 b 951 853 939 881 951 865 m 976 782 b 1006 801 990 767 1019 785 b 976 782 994 818 963 797 m 557 325 b 679 340 596 313 644 317 b 754 461 718 367 743 415 b 701 740 776 549 778 694 b 531 747 653 769 581 775 b 468 701 519 740 476 711 b 456 678 465 699 457 682 b 431 504 433 624 426 563 b 463 390 432 465 442 424 b 557 325 483 358 519 335 "},"1":{"ha":646,"x_min":0,"x_max":0,"o":"m 585 35 b 346 -26 546 -19 411 -35 b 263 8 315 -24 283 -14 b 224 94 239 29 231 64 b 214 278 214 154 214 217 b 219 446 215 333 215 390 b 243 611 225 501 233 556 b 115 611 200 606 157 603 b 29 683 75 619 46 644 b 15 801 13 719 6 763 b 67 874 22 829 44 853 b 207 990 110 915 158 953 b 326 1046 242 1017 282 1043 b 540 1011 376 1051 504 1044 b 567 958 554 997 563 978 b 567 867 572 928 571 897 b 557 339 546 693 535 514 b 592 160 564 279 579 219 b 600 89 596 136 600 113 b 585 35 600 71 596 50 m 500 918 b 525 936 513 911 526 924 b 514 954 525 943 519 950 b 432 989 496 976 463 985 b 411 990 429 989 414 989 b 376 1001 400 994 389 1000 b 336 999 364 1004 349 1001 b 311 994 333 997 314 996 b 296 976 301 993 293 985 b 306 968 297 972 301 971 b 356 965 313 963 346 968 b 378 960 363 964 369 961 b 422 960 392 957 408 960 b 471 946 440 958 457 954 b 500 918 483 939 489 925 m 490 856 b 519 857 486 836 515 836 b 490 856 522 875 493 875 "},"2":{"ha":958,"x_min":0,"x_max":0,"o":"m 628 0 b 219 -29 490 -4 356 -36 b 128 -11 188 -28 157 -24 b 71 69 99 4 72 36 b 428 408 58 264 288 299 b 354 664 722 639 561 890 b 263 574 325 632 297 599 b 171 544 236 554 203 542 b 96 582 143 547 117 563 b 38 743 54 619 32 686 b 81 849 40 782 58 818 b 256 986 125 910 189 954 b 554 1056 349 1031 453 1058 b 701 1026 604 1056 656 1044 b 800 954 739 1011 771 983 b 871 863 828 928 854 897 b 907 629 906 793 921 707 b 831 436 894 561 868 493 b 664 247 785 365 725 303 b 779 271 703 254 740 267 b 851 260 803 274 831 274 b 879 221 865 251 875 236 b 890 121 890 189 893 154 b 850 33 888 89 874 56 b 764 1 828 13 794 4 b 628 0 718 -4 672 1 m 782 851 b 800 881 797 847 807 867 b 768 911 792 893 779 901 b 740 942 758 921 751 932 b 578 1008 696 978 636 1004 b 558 1007 575 1008 561 1007 b 457 989 531 1011 474 1011 b 471 969 450 979 458 968 b 488 974 474 969 485 972 b 561 972 511 978 538 965 b 575 969 564 972 572 971 b 640 953 597 968 619 963 b 658 943 642 953 656 944 b 718 913 667 939 711 919 b 767 864 736 899 751 881 b 782 851 769 860 778 853 m 797 796 b 822 817 811 790 825 801 b 799 819 819 826 806 826 b 797 796 792 811 786 799 m 807 203 b 828 225 822 192 843 214 b 807 203 813 233 792 213 m 672 214 b 672 190 657 210 656 190 b 703 197 682 190 692 194 b 729 199 706 197 726 199 b 744 201 732 199 742 201 b 775 215 757 201 775 203 b 753 225 775 225 764 225 b 708 224 747 225 714 225 b 672 214 703 224 678 215 "},"3":{"ha":1011,"x_min":0,"x_max":0,"o":"m 883 92 b 97 76 682 -97 319 -101 b 44 142 75 93 56 117 b 39 218 35 165 33 193 b 186 381 51 279 122 368 b 222 381 199 382 211 382 b 322 321 261 372 292 343 b 446 265 358 294 401 274 b 519 265 469 261 496 258 b 494 447 647 301 657 451 b 406 440 465 447 436 442 b 326 456 379 438 349 440 b 358 610 267 496 294 578 b 471 631 392 626 433 624 b 514 651 486 633 501 642 b 328 693 675 790 449 776 b 263 661 307 679 286 667 b 142 672 224 653 178 654 b 65 849 79 707 35 785 b 119 907 76 871 97 890 b 429 1032 208 971 318 1010 b 671 1043 508 1047 590 1053 b 725 597 942 1007 921 735 b 883 92 978 599 1060 258 m 718 947 b 749 968 729 928 765 954 b 738 974 746 971 742 972 b 714 989 729 978 722 985 b 639 1007 690 999 664 1003 b 565 1006 629 1008 574 1004 b 508 1006 556 1007 518 1007 b 426 978 481 1001 450 994 b 432 956 415 971 419 956 b 485 965 450 956 467 964 b 510 969 493 965 501 968 b 581 971 533 975 557 968 b 628 975 597 972 613 978 b 663 972 639 974 651 974 b 694 961 668 971 690 964 b 718 947 703 958 710 950 m 761 904 b 783 897 763 894 775 893 b 790 922 793 903 800 917 b 761 904 778 931 760 919 m 869 453 b 894 467 879 444 897 456 b 860 501 890 476 868 497 b 835 524 850 507 844 518 b 811 532 828 528 818 528 b 767 550 797 540 782 549 b 718 547 757 551 726 551 b 717 522 706 542 704 525 b 774 513 735 517 757 522 b 790 500 779 510 783 503 b 808 496 796 499 803 499 b 819 488 811 496 817 489 b 839 478 825 483 832 481 b 869 453 851 475 860 461 m 890 404 b 922 404 888 388 914 390 b 890 404 933 425 893 428 "},"4":{"ha":1007,"x_min":0,"x_max":0,"o":"m 893 36 b 626 15 831 -11 693 -26 b 581 83 603 29 586 57 b 571 222 571 129 569 176 b 574 274 571 233 571 254 b 572 272 574 272 574 272 b 382 240 510 263 446 249 b 178 246 315 233 246 235 b 67 290 139 253 97 264 b 22 382 42 313 25 349 b 49 517 17 428 31 475 b 229 789 92 618 158 707 b 369 936 275 840 321 890 b 668 1017 447 1013 564 1097 b 731 918 699 993 726 957 b 696 819 733 883 715 849 b 617 728 672 788 644 757 b 501 608 579 688 538 650 b 457 526 488 592 454 547 b 500 506 458 511 483 507 b 600 517 521 504 583 504 b 615 576 613 525 614 563 b 621 643 617 599 618 621 b 640 703 624 664 628 686 b 688 736 653 718 669 729 b 853 747 739 758 799 760 b 938 703 885 740 918 728 b 961 614 956 678 961 644 b 951 440 963 556 956 499 b 944 289 949 390 947 340 b 933 108 943 229 944 168 b 893 36 929 82 915 53 m 629 953 b 654 971 636 936 668 958 b 640 985 649 975 646 981 b 622 993 635 989 628 990 b 558 1015 611 1004 574 1017 b 504 999 547 1014 513 1007 b 506 982 499 993 499 985 b 546 982 513 978 539 982 b 599 967 554 982 592 968 b 629 953 610 965 624 963 m 658 908 b 688 913 658 890 683 896 b 660 918 703 932 663 942 b 658 908 660 917 658 910 m 865 668 b 885 690 881 658 897 678 b 858 703 882 693 861 700 b 825 725 849 711 839 721 b 788 724 819 726 793 724 b 718 711 764 725 740 721 b 704 692 710 708 700 700 b 767 686 711 679 753 689 b 829 679 776 683 821 683 b 865 668 833 676 861 671 m 897 640 b 911 624 881 626 894 610 b 897 640 926 636 913 653 "},"5":{"ha":853,"x_min":0,"x_max":0,"o":"m 590 -19 b 332 -39 511 -53 417 -58 b 207 7 289 -28 247 -14 b 119 71 175 22 143 43 b 81 164 99 97 83 131 b 149 319 76 221 103 288 b 244 340 175 338 213 344 b 322 319 271 336 296 325 b 407 321 350 315 379 314 b 450 339 422 324 438 329 b 457 392 464 350 469 378 b 228 411 422 431 281 411 b 142 431 199 411 168 417 b 92 482 121 442 103 461 b 51 644 65 531 57 589 b 57 858 44 715 42 789 b 128 974 67 901 92 946 b 206 1007 150 990 178 1000 b 367 1022 258 1021 313 1026 b 496 1014 382 1022 479 1015 b 639 1024 514 1013 619 1024 b 697 1010 658 1024 681 1021 b 749 804 753 972 771 867 b 696 731 739 775 721 747 b 621 711 674 717 647 711 b 431 719 558 708 494 717 b 319 715 410 721 338 724 b 304 671 308 710 304 683 b 319 607 303 653 304 617 b 369 601 328 601 360 601 b 553 606 431 604 492 613 b 749 511 625 599 699 564 b 794 435 768 489 783 463 b 803 246 817 376 817 307 b 703 54 786 175 753 107 b 590 -19 672 22 632 -1 m 450 936 b 488 942 463 933 476 936 b 517 950 497 947 507 953 b 565 944 532 946 549 947 b 606 936 579 943 592 936 b 613 967 626 938 632 965 b 568 976 597 967 583 975 b 528 983 554 979 542 982 b 478 976 511 986 493 983 b 421 974 458 979 438 981 b 381 946 406 967 378 963 b 424 939 383 932 408 939 b 450 936 432 940 442 939 m 647 938 b 661 918 639 926 649 914 b 671 951 678 924 689 949 b 647 938 661 953 653 944 m 704 442 b 733 453 713 426 740 438 b 700 499 729 463 710 492 b 606 557 686 508 624 551 b 554 568 597 560 564 569 b 499 563 536 567 517 568 b 488 538 485 558 476 544 b 551 533 496 532 542 538 b 624 510 561 531 614 514 b 679 478 631 507 671 482 b 704 442 686 474 700 449 m 725 382 b 756 385 718 363 753 364 b 725 382 758 401 731 399 "},"6":{"ha":1028,"x_min":0,"x_max":0,"o":"m 614 -33 b 332 -4 519 -43 421 -36 b 204 64 288 13 243 35 b 133 124 179 82 154 100 b 89 192 115 143 100 167 b 43 394 60 254 44 325 b 58 615 40 468 42 544 b 128 788 72 676 99 733 b 769 1035 246 1001 539 1106 b 829 1004 790 1028 813 1018 b 838 810 879 963 869 867 b 790 764 828 790 810 774 b 703 750 764 750 732 749 b 596 754 667 751 632 756 b 457 713 547 753 497 740 b 390 636 429 694 406 667 b 374 599 383 624 378 611 b 390 610 379 603 385 606 b 615 689 457 654 536 686 b 883 593 710 692 811 654 b 968 489 917 564 947 529 b 994 356 989 449 994 401 b 929 125 994 275 974 190 b 821 28 901 85 863 53 b 614 -33 758 -10 685 -26 m 517 974 b 565 981 526 967 554 976 b 606 972 572 983 597 974 b 657 979 622 972 640 975 b 717 978 667 981 707 981 b 739 975 724 976 732 974 b 744 997 750 978 753 989 b 624 1014 729 1013 644 1007 b 575 1021 608 1019 592 1022 b 519 997 564 1019 528 1004 b 517 974 511 992 507 979 m 763 979 b 781 961 750 967 767 951 b 794 976 786 965 793 969 b 772 986 799 989 783 994 b 763 979 771 986 764 981 m 864 511 b 886 504 861 499 876 496 b 893 524 890 508 897 517 b 864 554 889 528 868 550 b 811 590 849 569 831 583 b 779 603 800 594 789 597 b 707 633 756 614 732 628 b 643 635 686 638 664 638 b 633 608 628 633 619 614 b 682 604 640 606 675 607 b 750 578 706 599 728 586 b 821 553 774 568 801 568 b 856 524 826 549 851 528 b 864 511 858 521 864 515 m 896 469 b 904 447 875 464 885 439 b 910 471 915 451 921 467 b 896 469 906 474 900 471 m 450 253 b 585 247 488 228 546 224 b 639 339 615 265 636 304 b 625 397 640 360 636 381 b 561 443 611 419 586 435 b 429 390 514 457 451 433 b 413 310 418 365 411 338 b 450 253 414 288 431 265 "},"7":{"ha":793,"x_min":0,"x_max":0,"o":"m 331 -22 b 188 7 282 -25 232 -14 b 133 43 168 17 147 26 b 114 97 122 58 115 78 b 161 246 113 149 136 201 b 296 467 203 321 256 390 b 393 672 310 494 382 643 b 403 718 399 686 404 703 b 401 729 403 721 403 728 b 386 729 399 731 389 731 b 185 710 319 725 253 710 b 81 728 150 710 111 711 b 26 826 47 746 31 789 b 36 961 22 871 22 918 b 82 1025 44 986 61 1010 b 144 1054 100 1039 122 1049 b 407 1075 185 1064 365 1078 b 622 1065 478 1072 550 1072 b 700 1050 649 1063 675 1060 b 757 981 728 1039 749 1010 b 761 865 768 943 765 903 b 739 736 757 822 749 779 b 596 261 701 575 657 415 b 517 101 574 207 550 151 b 432 7 494 65 467 31 b 331 -22 403 -12 365 -21 m 615 978 b 640 996 626 972 642 982 b 622 1013 640 1004 631 1011 b 572 1015 615 1014 579 1011 b 513 1024 554 1022 532 1025 b 481 1022 501 1024 490 1021 b 464 1026 478 1022 467 1026 b 389 1025 439 1031 414 1025 b 354 1000 371 1024 347 1017 b 417 990 363 985 400 992 b 500 996 444 989 472 992 b 538 993 507 997 531 996 b 567 981 547 988 557 982 b 615 978 575 979 608 982 m 681 953 b 706 971 689 939 719 960 b 681 953 692 982 671 967 "},"8":{"ha":1001,"x_min":0,"x_max":0,"o":"m 742 13 b 451 -17 650 -15 549 -24 b 210 39 368 -11 285 4 b 69 164 151 65 100 110 b 47 238 57 186 50 213 b 111 422 43 301 67 372 b 181 483 132 444 156 465 b 144 508 165 493 151 503 b 115 542 133 519 125 531 b 69 832 51 624 33 736 b 128 922 82 865 103 896 b 326 1024 178 974 254 1003 b 618 1047 419 1050 522 1061 b 789 988 679 1038 738 1017 b 876 908 824 967 857 940 b 901 833 890 885 897 860 b 893 676 908 782 911 726 b 778 539 872 622 825 576 b 765 531 774 536 769 533 b 911 411 822 500 874 460 b 963 229 950 360 969 292 b 906 107 957 185 935 142 b 742 13 867 60 804 29 m 744 929 b 790 933 761 915 794 911 b 785 944 790 938 789 942 b 763 961 782 946 765 960 b 676 993 738 978 707 988 b 646 999 672 994 651 996 b 611 1007 636 1006 624 1006 b 589 1014 608 1008 592 1014 b 532 1003 569 1017 550 1010 b 517 979 521 999 510 989 b 551 975 524 972 542 974 b 572 979 558 976 565 979 b 582 975 574 978 581 975 b 622 971 594 969 610 975 b 650 967 631 968 640 967 b 667 967 653 967 664 968 b 744 929 694 963 722 949 m 808 908 b 817 888 786 901 799 874 b 808 908 829 897 824 914 m 371 624 b 476 604 399 601 440 603 b 626 696 526 607 608 651 b 575 786 643 735 618 776 b 407 750 518 799 453 782 b 357 692 385 735 364 715 b 371 624 350 669 353 639 m 847 388 b 875 399 857 381 875 388 b 847 431 874 408 853 424 b 807 458 836 442 821 449 b 738 482 790 469 756 492 b 736 463 729 478 728 467 b 785 433 753 456 768 443 b 818 417 796 428 808 425 b 847 388 822 414 843 390 m 396 322 b 539 301 422 292 499 289 b 596 333 560 308 581 318 b 604 422 618 357 625 399 b 565 440 594 432 579 436 b 447 431 526 449 481 450 b 393 386 426 419 407 404 b 396 322 379 368 381 338 m 882 363 b 901 349 857 344 886 322 b 882 363 908 361 893 371 "},"9":{"ha":1028,"x_min":0,"x_max":0,"o":"m 900 232 b 258 -15 782 18 489 -86 b 199 15 238 -8 215 0 b 190 208 149 57 158 151 b 238 256 200 228 218 246 b 325 269 264 269 296 271 b 432 265 361 267 396 264 b 571 307 481 267 531 279 b 638 383 599 325 622 353 b 654 421 644 396 650 408 b 638 410 649 417 643 413 b 413 331 571 365 492 332 b 144 426 318 328 217 365 b 60 531 111 456 81 490 b 33 664 39 571 33 618 b 99 894 33 743 54 829 b 207 992 126 935 165 967 b 414 1053 269 1029 343 1046 b 696 1024 508 1063 607 1056 b 824 956 740 1007 785 985 b 894 896 849 938 874 919 b 939 828 913 876 928 853 b 985 624 968 764 983 694 b 969 404 988 550 986 475 b 900 232 956 343 929 286 m 840 849 b 861 871 854 844 868 858 b 821 917 857 879 828 910 b 772 947 808 931 790 942 b 747 954 764 950 756 951 b 699 976 740 956 706 974 b 643 1004 685 992 664 1004 b 569 1001 618 1004 594 1003 b 554 978 556 1001 546 988 b 610 968 563 968 597 969 b 650 963 624 968 638 968 b 669 950 657 958 663 953 b 693 943 676 946 686 946 b 729 925 697 940 725 926 b 765 910 742 919 756 918 b 803 876 772 906 796 879 b 826 861 808 874 824 864 b 840 849 831 856 835 850 m 860 797 b 890 806 860 778 892 786 b 860 797 889 822 861 814 m 467 576 b 599 629 514 563 576 586 b 615 710 610 654 617 682 b 578 767 614 732 597 754 b 443 772 540 792 482 794 b 389 679 413 753 392 715 b 403 622 388 660 392 639 b 467 576 417 600 442 583 "},"\u0000":{"ha":0,"x_min":0,"x_max":0,"o":""}," ":{"ha":347,"x_min":0,"x_max":0,"o":""},"\r":{"ha":0,"x_min":0,"x_max":0,"o":""},"!":{"ha":500,"x_min":0,"x_max":0,"o":"m 293 322 b 174 326 254 317 213 317 b 143 340 163 331 151 333 b 114 399 126 354 119 378 b 83 578 97 457 92 517 b 86 990 72 678 13 919 b 146 1022 103 1006 124 1015 b 296 1042 193 1039 244 1040 b 388 1033 326 1042 358 1042 b 431 1000 404 1028 421 1017 b 450 919 444 976 449 947 b 431 733 451 857 442 794 b 411 606 424 690 417 647 b 392 399 408 578 397 425 b 364 349 389 379 379 360 b 293 322 344 332 318 328 m 374 947 b 392 950 379 944 386 946 b 378 982 401 960 389 974 b 351 997 369 988 361 994 b 244 996 333 1003 263 999 b 206 964 222 993 188 978 b 249 963 213 958 239 963 b 301 963 265 964 283 961 b 339 969 307 963 332 971 b 374 947 351 964 361 953 m 404 925 b 396 904 392 933 375 901 b 404 925 410 904 421 917 m 397 15 b 178 -36 336 -35 253 -56 b 92 17 144 -28 114 -10 b 63 71 78 32 71 51 b 160 246 36 140 92 215 b 403 226 229 276 354 285 b 440 93 433 192 447 139 b 397 15 435 64 419 35 m 218 229 b 225 200 189 224 194 194 b 243 206 228 200 242 206 b 286 206 257 210 272 203 b 306 208 289 207 303 208 b 349 200 313 208 342 199 b 358 221 360 201 367 214 b 324 235 353 225 329 232 b 293 239 314 238 303 238 b 218 229 268 244 240 242 m 363 175 b 379 163 360 165 369 160 b 394 174 386 164 390 169 b 372 189 410 188 386 203 b 363 175 369 186 364 178 "},"\"":{"ha":594,"x_min":0,"x_max":0,"o":"m 228 661 b 113 660 204 647 139 650 b 71 693 96 667 81 679 b 46 942 24 763 28 858 b 61 982 50 956 54 969 b 124 1032 75 1004 99 1025 b 263 999 165 1044 238 1033 b 279 946 274 983 278 964 b 265 778 282 889 269 833 b 257 700 264 751 264 725 b 228 661 253 685 242 669 m 508 658 b 393 658 485 644 419 649 b 351 692 376 664 361 676 b 326 939 304 761 307 856 b 340 979 329 953 333 967 b 404 1029 354 1003 378 1022 b 543 996 446 1042 518 1031 b 558 943 554 981 557 961 b 546 775 563 888 549 831 b 536 699 544 749 544 722 b 508 658 532 682 522 667 m 175 974 b 201 986 186 964 207 972 b 151 1004 196 1003 168 1007 b 126 1000 147 1004 131 1000 b 119 975 106 1003 99 972 b 150 981 122 975 146 981 b 175 974 158 981 168 979 m 492 958 b 508 975 501 957 513 967 b 449 1003 501 992 465 1001 b 407 999 435 1004 419 1003 b 403 974 396 993 390 979 b 435 975 407 971 429 975 b 467 968 439 975 463 969 b 492 958 475 967 483 958 m 232 967 b 235 944 217 968 219 932 b 232 967 251 956 253 967 m 504 926 b 531 921 496 911 521 906 b 521 939 536 929 531 940 b 504 926 514 938 508 932 "},"«":{"ha":594,"x_min":0,"x_max":0,"o":"m 228 661 b 257 700 242 669 253 685 b 265 778 264 725 264 751 b 279 946 269 833 282 889 b 263 999 278 964 274 983 b 124 1032 238 1033 165 1044 b 61 982 99 1025 75 1004 b 46 942 54 969 50 956 b 71 693 28 858 24 763 b 113 660 81 679 96 667 b 228 661 139 650 204 647 m 508 658 b 536 699 522 667 532 682 b 546 775 544 722 544 749 b 558 943 549 831 563 888 b 543 996 557 961 554 981 b 404 1029 518 1031 446 1042 b 340 979 378 1022 354 1003 b 326 939 333 967 329 953 b 351 692 307 856 304 761 b 393 658 361 676 376 664 b 508 658 419 649 485 644 m 175 974 b 150 981 168 979 158 981 b 119 975 146 981 122 975 b 126 1000 99 972 106 1003 b 151 1004 131 1000 147 1004 b 201 986 168 1007 196 1003 b 175 974 207 972 186 964 m 492 958 b 467 968 483 958 475 967 b 435 975 463 969 439 975 b 403 974 429 975 407 971 b 407 999 390 979 396 993 b 449 1003 419 1003 435 1004 b 508 975 465 1001 501 992 b 492 958 513 967 501 957 m 232 967 b 235 944 253 967 251 956 b 232 967 219 932 217 968 m 504 926 b 521 939 508 932 514 938 b 531 921 531 940 536 929 b 504 926 521 906 496 911 "},"»":{"ha":594,"x_min":0,"x_max":0,"o":"m 228 661 b 113 660 204 647 139 650 b 71 693 96 667 81 679 b 46 942 24 763 28 858 b 61 982 50 956 54 969 b 124 1032 75 1004 99 1025 b 263 999 165 1044 238 1033 b 279 946 274 983 278 964 b 265 778 282 889 269 833 b 257 700 264 751 264 725 b 228 661 253 685 242 669 m 508 658 b 393 658 485 644 419 649 b 351 692 376 664 361 676 b 326 939 304 761 307 856 b 340 979 329 953 333 967 b 404 1029 354 1003 378 1022 b 543 996 446 1042 518 1031 b 558 943 554 981 557 961 b 546 775 563 888 549 831 b 536 699 544 749 544 722 b 508 658 532 682 522 667 m 175 974 b 201 986 186 964 207 972 b 151 1004 196 1003 168 1007 b 126 1000 147 1004 131 1000 b 119 975 106 1003 99 972 b 150 981 122 975 146 981 b 175 974 158 981 168 979 m 492 958 b 508 975 501 957 513 967 b 449 1003 501 992 465 1001 b 407 999 435 1004 419 1003 b 403 974 396 993 390 979 b 435 975 407 971 429 975 b 467 968 439 975 463 969 b 492 958 475 967 483 958 m 232 967 b 235 944 217 968 219 932 b 232 967 251 956 253 967 m 504 926 b 531 921 496 911 521 906 b 521 939 536 929 531 940 b 504 926 514 938 508 932 "},"„":{"ha":594,"x_min":0,"x_max":0,"o":"m 228 661 b 257 700 242 669 253 685 b 265 778 264 725 264 751 b 279 946 269 833 282 889 b 263 999 278 964 274 983 b 124 1032 238 1033 165 1044 b 61 982 99 1025 75 1004 b 46 942 54 969 50 956 b 71 693 28 858 24 763 b 113 660 81 679 96 667 b 228 661 139 650 204 647 m 508 658 b 536 699 522 667 532 682 b 546 775 544 722 544 749 b 558 943 549 831 563 888 b 543 996 557 961 554 981 b 404 1029 518 1031 446 1042 b 340 979 378 1022 354 1003 b 326 939 333 967 329 953 b 351 692 307 856 304 761 b 393 658 361 676 376 664 b 508 658 419 649 485 644 m 175 974 b 150 981 168 979 158 981 b 119 975 146 981 122 975 b 126 1000 99 972 106 1003 b 151 1004 131 1000 147 1004 b 201 986 168 1007 196 1003 b 175 974 207 972 186 964 m 492 958 b 467 968 483 958 475 967 b 435 975 463 969 439 975 b 403 974 429 975 407 971 b 407 999 390 979 396 993 b 449 1003 419 1003 435 1004 b 508 975 465 1001 501 992 b 492 958 513 967 501 957 m 232 967 b 235 944 253 967 251 956 b 232 967 219 932 217 968 m 504 926 b 521 939 508 932 514 938 b 531 921 531 940 536 929 b 504 926 521 906 496 911 "},"‟":{"ha":594,"x_min":0,"x_max":0,"o":"m 228 661 b 113 660 204 647 139 650 b 71 693 96 667 81 679 b 46 942 24 763 28 858 b 61 982 50 956 54 969 b 124 1032 75 1004 99 1025 b 263 999 165 1044 238 1033 b 279 946 274 983 278 964 b 265 778 282 889 269 833 b 257 700 264 751 264 725 b 228 661 253 685 242 669 m 508 658 b 393 658 485 644 419 649 b 351 692 376 664 361 676 b 326 939 304 761 307 856 b 340 979 329 953 333 967 b 404 1029 354 1003 378 1022 b 543 996 446 1042 518 1031 b 558 943 554 981 557 961 b 546 775 563 888 549 831 b 536 699 544 749 544 722 b 508 658 532 682 522 667 m 175 974 b 201 986 186 964 207 972 b 151 1004 196 1003 168 1007 b 126 1000 147 1004 131 1000 b 119 975 106 1003 99 972 b 150 981 122 975 146 981 b 175 974 158 981 168 979 m 492 958 b 508 975 501 957 513 967 b 449 1003 501 992 465 1001 b 407 999 435 1004 419 1003 b 403 974 396 993 390 979 b 435 975 407 971 429 975 b 467 968 439 975 463 969 b 492 958 475 967 483 958 m 232 967 b 235 944 217 968 219 932 b 232 967 251 956 253 967 m 504 926 b 531 921 496 911 521 906 b 521 939 536 929 531 940 b 504 926 514 938 508 932 "},"#":{"ha":1236,"x_min":0,"x_max":0,"o":"m 951 17 b 847 8 919 6 882 7 b 746 31 813 10 775 13 b 713 60 733 39 721 47 b 699 88 707 68 701 78 b 672 265 678 144 672 204 b 536 258 626 264 581 261 b 494 256 528 258 514 257 b 489 129 493 204 490 144 b 476 68 488 108 485 88 b 435 26 469 50 453 33 b 329 17 401 14 364 15 b 229 39 294 18 257 21 b 194 68 217 47 203 56 b 181 97 189 76 185 86 b 156 222 165 138 158 179 b 57 239 115 221 75 222 b 39 356 36 258 36 326 b 51 407 40 374 43 392 b 157 447 67 432 113 442 b 163 533 158 476 160 504 b 103 536 142 532 122 533 b 64 557 88 539 72 544 b 51 658 53 574 50 638 b 69 724 51 681 54 707 b 128 751 83 740 107 747 b 174 760 143 754 158 757 b 228 961 179 838 192 931 b 304 989 247 978 278 983 b 379 992 315 990 368 993 b 468 976 410 992 440 989 b 538 907 499 961 528 936 b 533 775 543 886 539 825 b 656 778 574 776 615 776 b 693 778 668 778 681 778 b 746 953 700 850 714 925 b 821 979 765 969 794 974 b 897 983 832 982 885 983 b 985 967 926 982 958 981 b 1054 897 1015 953 1046 928 b 1053 788 1060 881 1057 832 b 1185 757 1104 792 1163 788 b 1200 683 1200 738 1201 708 b 1192 621 1199 663 1196 642 b 1175 589 1189 610 1183 597 b 1031 571 1151 567 1078 568 b 1024 476 1028 539 1025 507 b 1090 479 1046 478 1068 479 b 1161 457 1115 478 1142 474 b 1183 422 1172 449 1179 435 b 1160 276 1192 383 1189 304 b 1114 261 1147 267 1131 263 b 1013 260 1081 258 1046 258 b 1007 121 1011 207 1008 138 b 994 58 1004 100 1003 78 b 951 17 986 42 971 25 m 383 910 b 424 904 390 907 415 903 b 419 940 443 910 440 936 b 357 949 399 943 378 953 b 321 950 344 946 332 951 b 285 938 308 949 296 942 b 283 914 272 932 271 915 b 324 918 297 911 311 922 b 350 915 332 915 342 915 b 365 918 353 915 363 919 b 383 910 368 918 381 911 m 944 901 b 974 892 953 897 963 892 b 988 911 985 892 994 903 b 946 940 982 919 956 938 b 924 942 939 942 931 940 b 889 950 918 943 894 950 b 843 944 874 949 858 950 b 846 918 826 939 828 917 b 894 914 863 918 881 921 b 929 907 906 908 918 908 b 944 901 935 907 939 904 m 460 907 b 483 896 446 888 468 878 b 460 907 496 911 471 924 m 999 867 b 1011 886 1021 850 1039 882 b 999 867 999 889 988 874 m 511 567 b 504 464 508 533 506 499 b 613 467 540 465 576 467 b 676 468 633 467 656 467 b 685 576 678 504 681 540 b 571 571 646 575 608 574 b 511 567 551 569 531 568 "},"$":{"ha":961,"x_min":0,"x_max":0,"o":"m 567 -100 b 475 -92 544 -103 492 -107 b 456 10 458 -75 457 -14 b 454 18 456 11 456 15 b 258 28 389 17 322 21 b 76 81 217 32 103 50 b 61 144 61 97 61 124 b 86 264 63 176 72 235 b 122 308 94 281 106 297 b 244 319 158 331 178 333 b 461 304 308 306 397 294 b 439 376 538 317 529 394 b 86 431 325 354 163 328 b 142 817 1 542 54 717 b 199 869 158 836 176 856 b 289 918 226 889 257 906 b 274 1007 279 951 271 990 b 306 1042 276 1022 292 1033 b 451 1081 335 1056 419 1089 b 499 967 486 1071 493 1004 b 631 963 543 969 586 967 b 821 919 694 956 761 944 b 897 874 849 908 878 896 b 921 799 915 853 924 826 b 876 697 918 763 900 725 b 800 633 854 671 832 644 b 758 628 786 628 772 626 b 504 685 725 632 539 683 b 483 551 374 689 307 550 b 654 551 546 551 592 547 b 786 540 699 554 744 554 b 844 506 808 533 829 522 b 871 465 856 493 865 479 b 901 294 894 411 906 353 b 875 196 899 261 892 225 b 769 99 850 156 811 124 b 661 51 735 78 699 63 b 665 44 663 49 664 46 b 674 -56 674 19 689 -35 b 567 -100 658 -76 593 -96 m 317 1013 b 342 1003 308 999 332 990 b 365 1008 344 1007 360 1007 b 392 1018 374 1011 382 1019 b 424 1046 411 1017 438 1031 b 361 1031 411 1060 379 1039 b 342 1028 356 1028 347 1031 b 317 1013 336 1025 321 1018 m 440 1029 b 464 1040 451 1019 465 1025 b 440 1029 463 1057 426 1040 m 746 876 b 785 858 757 867 771 858 b 807 888 803 858 818 876 b 746 907 797 897 758 904 b 707 921 740 908 711 919 b 661 924 692 924 675 918 b 594 921 640 932 614 931 b 593 900 585 915 583 903 b 631 899 599 899 626 899 b 647 889 635 897 644 890 b 669 888 654 886 663 886 b 694 892 678 888 686 893 b 731 879 707 889 719 883 b 746 876 733 879 743 878 m 833 851 b 861 857 831 833 864 843 b 833 851 857 874 835 865 m 772 465 b 779 497 799 460 806 494 b 738 511 774 499 743 510 b 644 508 721 514 660 513 b 599 510 629 511 613 513 b 596 510 597 510 596 510 b 586 486 581 511 572 492 b 614 483 594 482 604 483 b 625 478 618 482 621 479 b 649 478 632 475 642 475 b 686 481 661 481 674 479 b 724 482 699 482 711 485 b 772 465 740 476 756 463 m 810 457 b 829 442 796 444 815 429 b 810 457 844 454 825 471 "},"%":{"ha":1540,"x_min":0,"x_max":0,"o":"m 661 -12 b 607 -12 644 -19 625 -17 b 510 21 574 -6 540 6 b 471 51 494 28 481 38 b 461 100 463 65 460 83 b 629 528 471 171 600 463 b 811 883 683 650 744 768 b 917 1036 829 915 885 1019 b 1056 1013 946 1051 1025 1025 b 1129 964 1083 1001 1111 986 b 1151 906 1142 947 1150 926 b 1132 826 1153 878 1144 851 b 975 558 1114 790 996 594 b 801 217 911 449 854 333 b 661 -12 776 161 718 8 m 136 468 b 97 469 124 465 110 464 b 69 503 85 474 74 488 b 69 546 65 517 67 532 b 121 696 78 599 99 649 b 78 731 107 707 93 719 b 35 765 72 735 40 758 b 18 793 28 774 21 782 b 36 839 15 810 25 828 b 71 854 46 847 60 851 b 207 867 115 864 163 863 b 268 967 225 901 244 936 b 317 1015 283 985 299 1003 b 347 1024 325 1021 336 1025 b 374 1010 357 1022 367 1015 b 413 967 389 997 401 982 b 460 878 432 940 446 910 b 532 874 483 876 507 875 b 593 863 553 871 574 869 b 624 839 604 858 615 850 b 632 815 628 832 631 824 b 622 781 632 803 628 790 b 585 729 613 761 599 744 b 533 678 569 710 551 693 b 586 515 549 635 582 561 b 586 494 588 508 586 501 b 571 472 583 485 579 476 b 539 467 561 468 550 465 b 490 476 522 467 506 471 b 346 563 474 483 363 556 b 258 515 318 546 289 531 b 136 468 219 497 179 475 m 1071 925 b 1097 933 1081 917 1097 921 b 1092 947 1099 938 1094 943 b 1079 963 1089 953 1086 960 b 1042 979 1067 968 1056 976 b 1035 982 1040 981 1036 981 b 1011 1000 1031 990 1019 996 b 949 1007 999 1006 961 1011 b 931 982 936 1003 921 993 b 957 972 933 978 951 974 b 974 961 960 971 971 963 b 1021 956 988 953 1006 951 b 1060 942 1031 958 1051 946 b 1071 925 1063 940 1069 926 m 376 904 b 396 919 386 900 400 908 b 385 933 394 922 386 931 b 379 943 382 936 382 940 b 361 967 376 949 361 961 b 332 958 360 986 321 975 b 357 929 335 954 354 933 b 376 904 363 921 367 910 m 1089 881 b 1118 888 1090 864 1122 874 b 1089 881 1114 906 1086 899 m 404 889 b 418 872 378 876 399 851 b 404 889 428 882 417 894 m 1032 1 b 994 3 1019 0 1006 -1 b 965 36 981 7 969 21 b 965 79 961 50 963 65 b 1017 231 974 132 996 182 b 975 264 1003 240 989 253 b 932 299 968 268 938 292 b 915 326 925 307 917 315 b 933 372 911 343 921 363 b 968 388 943 381 956 385 b 1104 400 1013 397 1058 396 b 1165 500 1121 435 1140 469 b 1213 549 1179 518 1194 536 b 1243 557 1221 554 1232 560 b 1271 543 1253 556 1263 550 b 1308 500 1285 531 1297 517 b 1356 411 1328 474 1343 443 b 1428 407 1379 411 1404 410 b 1489 396 1449 406 1469 403 b 1519 372 1501 392 1513 383 b 1528 349 1524 365 1528 357 b 1518 314 1528 336 1524 324 b 1481 263 1508 294 1494 278 b 1429 213 1465 244 1447 226 b 1482 49 1444 168 1478 96 b 1482 28 1483 42 1483 35 b 1467 7 1481 18 1475 11 b 1435 0 1457 1 1446 0 b 1386 11 1418 0 1403 4 b 1243 96 1371 17 1258 89 b 1156 50 1214 81 1185 64 b 1032 1 1115 31 1075 8 m 1268 439 b 1292 447 1275 431 1292 436 b 1272 490 1293 456 1275 482 b 1249 517 1271 497 1254 513 b 1222 508 1239 524 1222 521 b 1247 479 1222 501 1244 486 b 1265 447 1250 468 1257 457 b 1268 439 1267 444 1267 442 m 1304 394 b 1306 417 1329 392 1329 422 b 1304 394 1292 413 1289 394 "},"&":{"ha":1053,"x_min":0,"x_max":0,"o":"m 826 4 b 481 -78 725 -56 599 -78 b 210 -22 388 -78 292 -64 b 196 528 -10 88 -18 411 b 164 556 185 536 174 546 b 93 765 113 608 81 692 b 133 878 99 804 111 844 b 651 1001 239 1044 483 1067 b 890 783 757 961 871 897 b 883 733 893 767 889 750 b 843 674 874 711 860 690 b 743 644 815 647 779 636 b 665 690 713 650 688 671 b 507 792 619 733 568 776 b 476 656 367 829 314 708 b 506 640 486 653 497 647 b 521 526 526 617 532 556 b 497 499 517 515 507 506 b 449 472 482 488 465 481 b 358 367 400 446 363 431 b 761 329 347 190 715 188 b 675 322 731 324 692 324 b 578 344 642 322 604 324 b 542 467 544 369 533 425 b 583 538 546 493 561 521 b 654 561 603 553 629 558 b 764 565 690 567 726 567 b 907 557 811 565 860 567 b 988 508 938 550 969 533 b 1018 408 1008 481 1017 443 b 1006 250 1021 356 1017 301 b 964 150 999 215 982 181 b 826 4 931 93 883 39 m 736 881 b 753 901 750 878 764 892 b 675 953 731 922 699 933 b 649 968 668 960 658 965 b 586 979 640 971 594 979 b 547 981 581 981 553 979 b 519 988 538 982 529 988 b 464 979 510 989 474 983 b 485 961 443 969 467 944 b 511 964 489 964 506 964 b 538 956 515 964 533 956 b 575 954 550 953 563 956 b 617 938 583 954 610 942 b 638 921 625 932 631 926 b 686 904 653 913 672 914 b 700 900 690 903 696 901 b 722 888 706 900 718 890 b 736 881 724 885 733 882 m 771 858 b 799 863 771 842 797 847 b 771 858 801 879 771 875 m 925 478 b 951 486 931 465 953 472 b 942 507 951 494 949 503 b 915 517 935 514 924 514 b 869 526 900 521 885 526 b 850 524 867 526 853 524 b 764 518 822 522 793 524 b 735 517 760 517 740 515 b 717 496 721 521 706 504 b 788 490 729 488 772 488 b 825 499 800 492 813 497 b 851 499 828 499 847 499 b 886 488 857 499 881 489 b 904 483 889 486 901 483 b 925 478 911 483 922 483 m 956 431 b 982 443 965 422 981 429 b 956 431 983 467 938 444 "},"'":{"ha":314,"x_min":0,"x_max":0,"o":"m 228 661 b 113 660 204 647 139 650 b 71 693 96 667 81 679 b 46 942 24 763 28 858 b 61 982 50 956 54 969 b 124 1032 75 1004 99 1025 b 263 999 165 1044 238 1033 b 279 946 274 983 278 964 b 265 778 282 889 269 833 b 257 700 264 751 264 725 b 228 661 253 685 242 669 m 194 965 b 226 979 208 960 229 964 b 203 1003 224 990 213 1000 b 113 993 179 1011 131 1010 b 132 974 101 982 115 969 b 181 974 147 976 165 976 b 194 965 186 972 189 968 m 233 921 b 239 949 253 919 258 947 b 233 921 222 949 215 922 "},"‚":{"ha":314,"x_min":0,"x_max":0,"o":"m 228 661 b 257 700 242 669 253 685 b 265 778 264 725 264 751 b 279 946 269 833 282 889 b 263 999 278 964 274 983 b 124 1032 238 1033 165 1044 b 61 982 99 1025 75 1004 b 46 942 54 969 50 956 b 71 693 28 858 24 763 b 113 660 81 679 96 667 b 228 661 139 650 204 647 m 194 965 b 181 974 189 968 186 972 b 132 974 165 976 147 976 b 113 993 115 969 101 982 b 203 1003 131 1010 179 1011 b 226 979 213 1000 224 990 b 194 965 229 964 208 960 m 233 921 b 239 949 215 922 222 949 b 233 921 258 947 253 919 "},"‛":{"ha":314,"x_min":0,"x_max":0,"o":"m 228 661 b 113 660 204 647 139 650 b 71 693 96 667 81 679 b 46 942 24 763 28 858 b 61 982 50 956 54 969 b 124 1032 75 1004 99 1025 b 263 999 165 1044 238 1033 b 279 946 274 983 278 964 b 265 778 282 889 269 833 b 257 700 264 751 264 725 b 228 661 253 685 242 669 m 194 965 b 226 979 208 960 229 964 b 203 1003 224 990 213 1000 b 113 993 179 1011 131 1010 b 132 974 101 982 115 969 b 181 974 147 976 165 976 b 194 965 186 972 189 968 m 233 921 b 239 949 253 919 258 947 b 233 921 222 949 215 922 "},"‹":{"ha":314,"x_min":0,"x_max":0,"o":"m 228 661 b 257 700 242 669 253 685 b 265 778 264 725 264 751 b 279 946 269 833 282 889 b 263 999 278 964 274 983 b 124 1032 238 1033 165 1044 b 61 982 99 1025 75 1004 b 46 942 54 969 50 956 b 71 693 28 858 24 763 b 113 660 81 679 96 667 b 228 661 139 650 204 647 m 194 965 b 181 974 189 968 186 972 b 132 974 165 976 147 976 b 113 993 115 969 101 982 b 203 1003 131 1010 179 1011 b 226 979 213 1000 224 990 b 194 965 229 964 208 960 m 233 921 b 239 949 215 922 222 949 b 233 921 258 947 253 919 "},"›":{"ha":314,"x_min":0,"x_max":0,"o":"m 228 661 b 113 660 204 647 139 650 b 71 693 96 667 81 679 b 46 942 24 763 28 858 b 61 982 50 956 54 969 b 124 1032 75 1004 99 1025 b 263 999 165 1044 238 1033 b 279 946 274 983 278 964 b 265 778 282 889 269 833 b 257 700 264 751 264 725 b 228 661 253 685 242 669 m 194 965 b 226 979 208 960 229 964 b 203 1003 224 990 213 1000 b 113 993 179 1011 131 1010 b 132 974 101 982 115 969 b 181 974 147 976 165 976 b 194 965 186 972 189 968 m 233 921 b 239 949 253 919 258 947 b 233 921 222 949 215 922 "},"(":{"ha":633,"x_min":0,"x_max":0,"o":"m 488 -85 b 358 -87 446 -101 400 -103 b 242 -3 314 -71 275 -39 b 124 176 193 49 153 111 b 53 651 58 322 29 493 b 83 796 60 700 67 750 b 222 1040 115 883 161 969 b 357 1163 263 1086 306 1132 b 508 1192 401 1189 458 1203 b 585 1142 538 1186 563 1164 b 626 1067 604 1122 622 1096 b 601 947 632 1026 622 982 b 497 810 574 897 529 858 b 408 593 453 746 421 671 b 410 469 401 553 401 510 b 460 325 419 419 438 371 b 560 146 490 264 529 207 b 586 3 583 103 601 49 b 488 -85 571 -39 528 -67 m 519 1096 b 538 1111 529 1094 540 1101 b 503 1136 535 1126 515 1131 b 456 1154 488 1143 472 1157 b 407 1139 447 1153 414 1144 b 399 1131 403 1138 401 1133 b 422 1119 385 1117 408 1106 b 432 1119 424 1121 431 1119 b 446 1119 436 1121 442 1122 b 488 1106 451 1115 481 1108 b 519 1096 497 1103 508 1097 m 551 1069 b 588 1069 547 1043 581 1044 b 551 1069 593 1093 554 1093 "},")":{"ha":642,"x_min":0,"x_max":0,"o":"m 285 -65 b 133 -94 240 -92 183 -106 b 57 -44 104 -89 79 -67 b 15 31 38 -25 19 1 b 39 150 10 71 19 115 b 144 288 68 200 113 239 b 233 504 189 351 221 426 b 232 628 240 544 240 588 b 182 772 222 678 204 726 b 82 951 151 833 113 890 b 56 1094 58 994 40 1049 b 154 1182 71 1136 114 1164 b 283 1185 196 1199 242 1200 b 400 1101 328 1168 367 1136 b 518 921 449 1049 489 986 b 589 446 583 775 613 604 b 558 301 582 397 575 347 b 419 57 526 214 481 128 b 285 -65 379 11 336 -35 m 368 1008 b 392 1018 375 1000 392 1007 b 358 1065 393 1029 363 1056 b 315 1108 350 1083 333 1099 b 242 1139 301 1115 257 1140 b 183 1136 222 1138 201 1140 b 149 1118 171 1132 158 1126 b 165 1099 132 1107 147 1089 b 233 1107 185 1110 210 1108 b 257 1092 239 1107 253 1096 b 289 1074 267 1083 278 1079 b 368 1008 307 1068 356 1022 m 404 960 b 432 954 400 944 422 942 b 438 967 433 956 438 965 b 411 976 443 982 422 988 b 404 960 407 972 406 965 "},"*":{"ha":596,"x_min":0,"x_max":0,"o":"m 194 631 b 154 638 181 628 167 632 b 58 731 115 654 53 689 b 76 767 61 744 68 756 b 124 818 90 785 107 801 b 153 846 128 821 150 842 b 88 876 132 857 108 865 b 38 928 65 888 43 904 b 64 1036 26 963 39 1008 b 101 1064 75 1047 88 1058 b 181 1038 121 1071 164 1049 b 211 1013 186 1035 199 1024 b 201 1106 208 1043 201 1075 b 214 1151 201 1121 204 1139 b 260 1174 225 1164 243 1171 b 374 1160 286 1179 353 1176 b 400 1097 392 1144 399 1119 b 394 1032 400 1085 399 1056 b 400 1035 397 1033 399 1035 b 474 1076 413 1044 458 1075 b 526 1043 494 1078 513 1060 b 558 994 539 1029 553 1013 b 561 961 563 983 564 972 b 535 917 557 944 546 929 b 475 858 517 896 494 879 b 464 842 472 856 464 847 b 485 818 464 836 481 822 b 540 754 504 797 526 778 b 547 724 544 744 549 733 b 408 643 543 663 463 617 b 314 746 367 664 350 717 b 269 689 307 740 276 696 b 194 631 250 664 225 636 m 269 1140 b 265 1115 246 1147 242 1108 b 304 1115 278 1118 292 1119 b 328 1136 319 1111 339 1125 b 289 1143 321 1143 297 1144 b 269 1140 285 1143 272 1140 m 339 1100 b 365 1111 347 1094 361 1103 b 344 1122 372 1125 356 1132 b 339 1100 338 1117 331 1106 "},"+":{"ha":765,"x_min":0,"x_max":0,"o":"m 500 117 b 379 101 479 106 401 101 b 306 114 354 101 329 104 b 267 144 290 119 275 131 b 253 203 258 163 256 183 b 247 301 251 219 249 256 b 219 301 235 301 225 301 b 115 308 185 301 149 301 b 53 343 93 314 68 325 b 46 528 19 386 18 481 b 111 581 60 551 85 571 b 236 601 150 597 193 599 b 236 618 236 608 236 614 b 243 721 235 653 235 688 b 276 783 247 744 258 768 b 461 793 318 818 414 819 b 515 729 485 779 504 754 b 535 610 531 692 532 650 b 581 607 550 610 565 608 b 724 560 619 604 706 594 b 736 439 733 540 738 461 b 724 367 736 415 733 389 b 693 328 718 351 707 336 b 633 314 675 319 654 317 b 549 310 619 313 588 311 b 546 260 547 293 547 276 b 500 117 542 221 533 135 m 426 742 b 444 761 442 739 456 753 b 424 771 439 767 429 765 b 357 776 411 785 375 782 b 325 763 346 774 329 774 b 354 749 318 749 340 746 b 426 742 379 753 403 746 m 460 722 b 488 729 460 706 488 713 b 460 722 488 747 460 740 m 613 546 b 633 563 625 539 642 551 b 610 572 628 569 618 571 b 539 569 599 574 550 572 b 533 549 526 567 522 551 b 613 546 546 544 603 551 m 663 538 b 689 546 671 531 686 536 b 663 538 694 571 643 554 "},",":{"ha":471,"x_min":0,"x_max":0,"o":"m 336 -85 b 260 -114 318 -106 286 -121 b 211 -79 242 -108 221 -97 b 210 -32 204 -65 206 -47 b 224 7 211 -25 217 -8 b 171 11 206 6 189 8 b 94 50 143 18 115 32 b 31 197 56 86 29 144 b 57 281 31 226 42 257 b 354 356 122 378 251 408 b 406 319 374 346 392 335 b 432 160 439 283 444 217 b 418 88 429 136 425 111 b 336 -85 408 56 357 -60 m 332 267 b 358 271 336 251 358 254 b 322 321 360 290 340 310 b 289 329 318 322 294 328 b 206 332 263 338 232 340 b 175 307 194 328 176 318 b 242 300 174 282 217 304 b 274 289 246 299 269 290 b 297 288 278 288 293 289 b 332 267 308 281 319 271 m 365 210 b 392 225 372 193 403 211 b 365 210 381 238 358 224 "},"-":{"ha":771,"x_min":0,"x_max":0,"o":"m 636 314 b 222 301 582 308 276 301 b 118 308 188 301 151 301 b 56 343 96 314 71 325 b 49 528 22 386 21 481 b 114 581 63 551 88 571 b 258 601 158 599 210 599 b 583 607 367 610 475 617 b 726 560 622 604 708 594 b 739 439 736 540 740 461 b 726 367 739 415 736 389 b 696 328 721 351 710 336 b 636 314 678 319 657 317 m 469 519 b 521 519 479 515 511 517 b 572 522 529 521 564 522 b 618 522 588 522 603 525 b 633 542 629 521 640 532 b 582 558 628 551 593 556 b 497 568 554 565 526 569 b 483 569 496 568 485 569 b 429 558 464 572 446 564 b 401 554 419 557 411 557 b 389 521 385 551 374 529 b 444 522 400 514 432 519 b 457 524 449 524 453 525 b 469 519 458 524 468 519 m 661 528 b 678 510 649 517 663 501 b 693 536 688 517 701 526 b 661 528 685 546 671 538 "},".":{"ha":508,"x_min":0,"x_max":0,"o":"m 354 19 b 185 0 303 -6 240 -14 b 100 42 154 7 124 21 b 31 203 57 81 29 144 b 60 293 31 235 43 267 b 385 375 131 399 272 432 b 440 335 406 365 425 351 b 444 97 492 281 483 161 b 354 19 424 64 390 36 m 382 275 b 404 288 390 268 406 276 b 367 331 404 301 378 324 b 286 357 344 349 314 351 b 217 346 263 363 236 357 b 214 321 206 340 203 325 b 253 322 219 318 249 325 b 310 306 269 313 290 306 b 332 303 317 306 325 303 b 365 290 339 303 360 292 b 382 275 368 289 379 276 m 403 239 b 431 235 399 224 419 224 b 403 239 447 253 410 263 "},"/":{"ha":790,"x_min":0,"x_max":0,"o":"m 246 -94 b 156 -90 217 -103 185 -99 b 58 -46 121 -81 88 -67 b 13 -3 40 -35 22 -21 b 26 133 0 24 19 104 b 171 522 60 268 115 396 b 446 1069 208 610 385 997 b 546 1115 472 1103 504 1117 b 669 1082 589 1113 631 1099 b 746 1040 696 1071 724 1060 b 797 965 768 1021 790 996 b 785 867 804 933 796 899 b 747 781 774 838 761 808 b 557 411 689 656 621 535 b 364 39 492 288 431 163 b 311 -42 349 11 332 -17 b 246 -94 294 -64 272 -85 m 707 932 b 736 947 718 918 743 931 b 711 997 732 956 717 992 b 674 1024 701 1010 688 1017 b 657 1031 671 1025 658 1029 b 618 1056 646 1042 633 1051 b 556 1060 599 1061 576 1061 b 540 1035 540 1058 529 1044 b 597 1010 556 1021 582 1024 b 646 994 610 999 629 990 b 660 990 649 994 657 992 b 683 978 668 988 676 985 b 707 932 688 974 703 938 m 703 872 b 724 863 700 861 714 856 b 733 869 725 863 732 868 b 715 886 750 883 728 901 b 703 872 711 881 704 878 "},":":{"ha":544,"x_min":0,"x_max":0,"o":"m 365 528 b 196 508 314 503 251 494 b 111 550 165 515 135 529 b 42 711 68 589 40 653 b 71 801 42 743 54 775 b 396 883 142 907 283 940 b 451 843 417 874 436 860 b 456 606 503 789 494 669 b 365 528 435 572 401 544 m 394 772 b 415 785 404 769 414 776 b 399 811 417 793 406 806 b 385 818 394 814 389 815 b 353 847 381 824 358 844 b 232 849 329 865 260 858 b 206 825 219 844 203 839 b 207 813 206 821 204 817 b 226 813 211 807 219 808 b 314 815 238 811 303 817 b 354 792 321 814 347 796 b 376 785 361 789 368 788 b 394 772 382 781 388 774 m 411 724 b 432 715 408 713 424 708 b 444 733 438 721 444 726 b 411 724 444 751 415 742 m 379 19 b 210 0 328 -6 265 -14 b 126 42 179 7 149 21 b 56 203 82 81 56 144 b 86 293 57 235 68 267 b 410 375 156 399 299 432 b 465 335 431 365 450 351 b 469 97 517 281 508 161 b 379 19 449 64 415 36 m 404 282 b 431 293 411 272 429 281 b 413 319 432 301 418 314 b 383 343 403 328 396 338 b 328 354 375 347 338 354 b 267 351 307 357 288 354 b 254 351 263 354 258 354 b 246 343 250 350 249 346 b 258 315 235 333 244 319 b 361 311 272 313 349 315 b 383 294 369 308 375 299 b 404 282 390 290 399 289 m 433 219 b 457 229 442 218 450 224 b 444 253 472 239 463 260 b 433 219 426 246 415 222 "},";":{"ha":531,"x_min":0,"x_max":0,"o":"m 363 528 b 193 508 311 503 249 494 b 108 550 163 515 132 529 b 39 711 65 589 38 653 b 68 801 39 743 51 775 b 393 883 139 907 281 940 b 449 843 414 874 433 860 b 453 606 500 789 492 669 b 363 528 432 572 399 544 m 335 813 b 367 799 344 807 354 799 b 383 833 386 799 400 822 b 363 843 376 838 368 839 b 333 858 353 847 344 856 b 257 857 319 861 271 861 b 208 832 244 854 214 843 b 214 817 204 826 207 818 b 243 821 224 814 233 817 b 278 826 254 825 265 826 b 317 825 283 826 311 826 b 335 813 319 824 332 815 m 404 757 b 417 758 408 756 413 757 b 413 781 432 765 428 782 b 404 757 399 779 390 760 m 379 -85 b 304 -114 363 -106 331 -121 b 256 -79 285 -108 264 -97 b 253 -32 247 -65 249 -47 b 267 7 254 -25 261 -8 b 215 11 250 6 232 8 b 138 50 188 18 160 32 b 74 197 99 86 74 144 b 101 281 75 226 85 257 b 399 356 165 378 296 408 b 449 319 417 346 435 335 b 475 160 482 283 489 217 b 461 88 472 136 468 111 b 379 -85 451 56 401 -60 m 399 250 b 422 263 407 244 422 253 b 368 318 422 286 390 310 b 329 332 354 322 342 329 b 293 335 324 333 299 335 b 275 304 274 333 258 313 b 310 294 286 299 299 297 b 361 276 328 289 343 278 b 382 268 369 275 378 274 b 399 250 388 263 392 254 m 407 193 b 429 188 404 182 421 178 b 440 206 433 190 440 201 b 407 193 440 225 413 213 "},"<":{"ha":682,"x_min":0,"x_max":0,"o":"m 557 106 b 501 96 542 96 519 93 b 386 128 461 100 422 113 b 201 224 322 154 261 186 b 50 364 143 260 88 306 b 26 444 35 388 28 417 b 40 538 25 476 29 508 b 151 669 64 590 111 628 b 300 788 194 715 247 751 b 522 897 343 818 469 904 b 563 878 538 896 553 889 b 635 744 594 839 621 793 b 606 613 647 700 636 649 b 518 556 583 586 549 571 b 372 476 493 543 390 496 b 392 451 363 467 379 458 b 560 382 444 421 504 406 b 626 326 586 371 613 351 b 606 158 647 288 626 196 b 557 106 594 138 578 118 m 510 832 b 533 817 499 813 521 797 b 536 822 535 818 535 821 b 510 832 550 839 519 850 m 321 765 b 339 746 300 754 322 728 b 346 750 339 747 344 749 b 376 771 357 757 365 765 b 386 771 378 771 385 769 b 408 782 394 771 401 778 b 433 789 411 783 431 788 b 453 801 440 792 447 797 b 468 806 456 803 467 804 b 492 821 475 807 489 814 b 476 835 496 829 486 838 b 444 832 467 831 454 835 b 415 818 433 829 425 821 b 382 801 403 814 392 808 b 342 781 367 799 353 790 b 321 765 335 775 329 768 m 492 322 b 508 342 506 317 519 333 b 439 375 501 357 454 368 b 397 392 432 378 404 392 b 388 369 379 392 369 374 b 428 350 393 367 422 351 b 471 333 442 343 457 340 b 492 322 474 332 489 322 m 540 306 b 567 313 547 297 561 303 b 549 326 575 324 560 333 b 540 306 540 322 533 313 "},"=":{"ha":808,"x_min":0,"x_max":0,"o":"m 647 517 b 233 503 593 511 288 503 b 129 511 199 503 163 503 b 67 546 107 517 82 528 b 60 731 33 588 32 683 b 125 783 74 754 99 772 b 269 804 169 801 221 800 b 594 810 378 813 486 819 b 738 763 633 806 719 796 b 750 642 747 742 751 664 b 738 568 750 617 747 592 b 707 531 732 553 721 538 b 647 517 689 521 668 518 m 517 719 b 563 731 533 718 550 721 b 572 732 565 733 569 732 b 619 731 588 731 603 733 b 640 756 639 728 658 750 b 624 761 635 758 629 761 b 568 767 606 758 586 764 b 557 768 567 768 558 767 b 464 767 528 778 492 779 b 435 739 453 761 433 751 b 472 728 436 724 457 728 b 517 719 488 729 501 721 m 665 743 b 686 731 656 731 675 719 b 690 735 688 732 689 733 b 671 749 710 746 686 765 b 665 743 669 749 667 744 m 664 154 b 249 140 610 149 304 140 b 146 149 215 140 179 140 b 83 183 122 154 99 165 b 76 368 49 225 49 321 b 140 421 90 392 115 410 b 286 442 186 439 238 438 b 611 447 393 450 503 457 b 754 399 650 443 735 433 b 767 279 764 379 768 301 b 754 206 767 254 764 229 b 722 168 749 190 738 175 b 664 154 704 158 685 156 m 561 367 b 586 369 569 367 578 367 b 633 369 601 375 618 369 b 657 392 649 368 668 382 b 581 407 638 410 606 414 b 554 406 576 406 558 407 b 507 399 547 406 514 400 b 490 378 496 396 483 386 b 535 372 497 369 524 372 b 561 367 543 372 551 367 m 681 374 b 701 365 678 363 692 360 b 703 367 701 367 701 367 b 708 386 711 369 715 381 b 681 374 700 393 682 385 "},">":{"ha":682,"x_min":0,"x_max":0,"o":"m 181 96 b 125 106 163 93 140 96 b 76 158 104 118 88 138 b 56 326 56 196 35 288 b 122 382 69 351 96 371 b 290 451 178 406 238 421 b 310 476 303 458 319 467 b 164 556 290 496 188 543 b 76 613 132 571 99 586 b 47 744 46 649 33 700 b 119 878 61 793 88 839 b 160 897 129 889 144 896 b 382 788 213 904 339 818 b 531 669 435 751 486 715 b 640 538 571 628 618 590 b 656 444 653 508 657 476 b 632 364 654 417 647 388 b 479 224 594 306 539 260 b 296 128 421 186 360 154 b 181 96 260 113 221 100 m 492 619 b 511 636 503 615 517 626 b 481 665 506 649 493 658 b 468 678 479 667 471 676 b 403 735 458 686 415 728 b 376 744 400 736 379 743 b 322 765 360 753 340 758 b 286 790 317 768 292 786 b 257 774 274 800 253 788 b 292 742 260 764 285 747 b 343 719 307 731 328 731 b 378 704 353 713 365 710 b 400 686 382 703 397 689 b 415 681 404 683 411 682 b 429 668 421 678 425 672 b 469 640 435 664 464 644 b 492 619 474 638 488 621 m 532 579 b 557 592 542 572 557 579 b 532 579 560 614 515 593 "},"?":{"ha":808,"x_min":0,"x_max":0,"o":"m 506 303 b 318 293 451 271 374 264 b 278 335 300 301 286 317 b 263 404 268 357 265 381 b 271 504 260 438 261 472 b 318 572 279 531 297 554 b 421 665 353 603 394 628 b 443 750 439 689 449 721 b 378 817 438 781 408 810 b 296 750 339 826 306 789 b 283 628 285 710 290 668 b 249 569 279 606 267 582 b 100 556 217 547 135 540 b 57 589 83 563 68 575 b 35 667 43 613 39 640 b 31 769 31 701 31 735 b 56 921 31 821 35 875 b 143 1017 74 961 106 994 b 374 1069 211 1057 294 1071 b 525 1050 424 1069 476 1067 b 686 957 583 1031 639 999 b 768 846 721 926 754 890 b 757 615 792 772 786 688 b 664 504 739 571 704 531 b 547 410 636 486 556 442 b 543 349 543 390 549 368 b 506 303 538 329 522 313 m 649 882 b 674 893 657 874 675 882 b 647 929 671 908 657 918 b 617 954 639 939 625 944 b 571 992 604 969 589 986 b 501 1017 561 994 511 1014 b 440 1018 492 1019 450 1019 b 431 988 422 1015 414 994 b 476 982 444 981 461 983 b 507 968 488 979 497 972 b 554 953 514 965 549 956 b 589 925 568 946 576 933 b 640 892 606 913 628 908 b 649 882 642 890 647 883 m 692 819 b 717 828 701 807 715 817 b 692 819 719 858 678 838 m 543 10 b 324 -37 483 -36 399 -54 b 239 10 292 -29 260 -12 b 210 60 225 25 217 43 b 307 217 183 122 239 189 b 550 200 376 244 501 253 b 586 81 579 168 594 121 b 543 10 582 54 567 28 m 471 157 b 506 167 485 149 508 150 b 490 188 503 178 500 182 b 429 203 481 192 438 201 b 379 194 419 204 388 197 b 365 179 372 192 365 186 b 414 168 364 161 396 172 b 433 163 421 167 426 164 b 471 157 446 161 460 163 m 524 118 b 550 132 535 114 551 122 b 524 118 550 157 501 131 "},"@":{"ha":1108,"x_min":0,"x_max":0,"o":"m 743 -72 b 594 -87 694 -82 644 -89 b 292 -12 490 -85 383 -61 b 78 233 194 38 117 132 b 40 492 46 314 31 406 b 110 732 50 574 74 657 b 276 928 149 808 206 879 b 567 1042 363 986 464 1031 b 799 1019 644 1051 725 1046 b 929 940 846 1003 890 974 b 1010 850 960 915 990 886 b 1071 553 1060 763 1076 654 b 1022 396 1068 499 1054 440 b 918 310 996 358 960 325 b 811 300 885 297 846 294 b 763 314 794 301 776 306 b 754 319 760 315 757 317 b 624 204 729 268 671 217 b 482 243 576 192 521 213 b 385 394 435 281 401 338 b 397 596 367 460 372 533 b 475 694 413 635 442 669 b 533 724 493 708 513 721 b 617 714 561 728 590 725 b 732 631 661 697 704 668 b 740 622 735 628 738 625 b 833 582 769 594 807 551 b 815 746 865 619 840 703 b 751 811 800 772 776 793 b 701 839 736 822 719 832 b 651 847 685 844 668 846 b 533 828 611 849 571 839 b 451 793 506 819 476 810 b 336 667 404 761 363 717 b 308 418 297 592 293 500 b 364 274 318 367 335 317 b 443 201 383 244 411 218 b 554 176 476 183 517 178 b 665 188 592 176 629 179 b 879 219 717 200 839 251 b 915 169 896 207 907 188 b 928 50 931 132 935 89 b 888 -28 922 21 907 -7 b 828 -56 871 -43 849 -51 b 743 -72 800 -62 772 -68 m 896 869 b 917 850 903 863 907 850 b 938 871 929 850 942 860 b 921 892 936 875 924 889 b 839 950 899 917 869 936 b 769 985 815 961 793 975 b 724 1000 763 988 731 999 b 647 997 711 1003 660 1001 b 643 968 629 993 626 971 b 719 958 668 964 696 969 b 754 953 729 953 743 956 b 840 919 768 950 826 928 b 886 885 849 915 879 892 b 896 869 888 882 894 872 m 946 799 b 964 822 963 793 985 814 b 946 799 950 826 929 806 m 617 649 b 642 665 629 640 650 653 b 597 685 635 674 608 683 b 531 679 575 686 551 688 b 519 660 521 676 511 667 b 553 661 528 653 542 661 b 617 649 575 661 599 661 m 667 642 b 676 622 651 633 658 615 b 667 642 693 628 685 651 m 586 465 b 643 453 596 449 626 442 b 676 517 658 461 675 499 b 644 571 678 539 667 567 b 592 543 626 575 601 558 b 586 465 582 526 576 483 m 701 144 b 756 151 713 142 746 147 b 815 161 768 156 803 165 b 833 182 828 157 842 172 b 794 190 824 192 807 186 b 756 190 782 193 768 194 b 708 174 740 185 725 178 b 701 144 693 169 688 150 m 853 175 b 879 168 838 154 875 154 b 853 175 885 190 861 186 "},"A":{"ha":1214,"x_min":0,"x_max":0,"o":"m 236 -26 b 161 -24 211 -29 185 -32 b 106 42 136 -14 114 14 b 106 126 97 69 100 99 b 207 422 122 231 164 328 b 124 488 179 443 153 467 b 39 556 110 497 50 543 b 7 611 25 571 11 589 b 42 700 0 642 18 679 b 110 731 61 717 86 725 b 376 754 197 750 288 747 b 496 950 411 822 449 890 b 589 1044 524 985 553 1019 b 649 1063 607 1057 629 1065 b 703 1033 668 1058 686 1047 b 778 951 731 1011 756 982 b 869 778 815 899 843 838 b 1011 768 917 775 964 772 b 1131 746 1051 764 1093 760 b 1190 701 1154 738 1175 722 b 1206 653 1199 688 1206 669 b 1188 585 1207 629 1197 606 b 1115 485 1168 549 1142 515 b 1013 386 1083 449 1049 415 b 1118 67 1044 301 1110 157 b 1117 26 1118 53 1118 39 b 1088 -17 1113 8 1103 -8 b 1025 -29 1068 -26 1046 -29 b 929 -8 993 -28 960 -19 b 647 160 897 4 679 146 b 476 68 592 128 535 96 b 236 -26 399 31 319 -11 m 736 843 b 783 801 744 819 760 788 b 790 824 792 806 796 817 b 774 863 783 836 781 850 b 728 932 761 888 750 914 b 701 972 724 936 706 967 b 665 1000 697 976 669 996 b 639 989 657 1011 636 1001 b 678 954 640 981 674 961 b 699 915 681 949 693 919 b 714 894 704 910 710 901 b 724 865 719 886 719 875 b 736 843 725 863 735 847 m 793 756 b 810 735 779 742 796 724 b 793 756 829 750 810 772 "},"À":{"ha":1214,"x_min":0,"x_max":0,"o":"m 236 -26 b 476 68 319 -11 399 31 b 647 160 535 96 592 128 b 929 -8 679 146 897 4 b 1025 -29 960 -19 993 -28 b 1088 -17 1046 -29 1068 -26 b 1117 26 1103 -8 1113 8 b 1118 67 1118 39 1118 53 b 1013 386 1110 157 1044 301 b 1115 485 1049 415 1083 449 b 1188 585 1142 515 1168 549 b 1206 653 1197 606 1207 629 b 1190 701 1206 669 1199 688 b 1131 746 1175 722 1154 738 b 1011 768 1093 760 1051 764 b 869 778 964 772 917 775 b 778 951 843 838 815 899 b 703 1033 756 982 731 1011 b 649 1063 686 1047 668 1058 b 589 1044 629 1065 607 1057 b 496 950 553 1019 524 985 b 376 754 449 890 411 822 b 110 731 288 747 197 750 b 42 700 86 725 61 717 b 7 611 18 679 0 642 b 39 556 11 589 25 571 b 124 488 50 543 110 497 b 207 422 153 467 179 443 b 106 126 164 328 122 231 b 106 42 100 99 97 69 b 161 -24 114 14 136 -14 b 236 -26 185 -32 211 -29 m 736 843 b 724 865 735 847 725 863 b 714 894 719 875 719 886 b 699 915 710 901 704 910 b 678 954 693 919 681 949 b 639 989 674 961 640 981 b 665 1000 636 1001 657 1011 b 701 972 669 996 697 976 b 728 932 706 967 724 936 b 774 863 750 914 761 888 b 790 824 781 850 783 836 b 783 801 796 817 792 806 b 736 843 760 788 744 819 m 793 756 b 810 735 810 772 829 750 b 793 756 796 724 779 742 "},"Á":{"ha":1214,"x_min":0,"x_max":0,"o":"m 236 -26 b 161 -24 211 -29 185 -32 b 106 42 136 -14 114 14 b 106 126 97 69 100 99 b 207 422 122 231 164 328 b 124 488 179 443 153 467 b 39 556 110 497 50 543 b 7 611 25 571 11 589 b 42 700 0 642 18 679 b 110 731 61 717 86 725 b 376 754 197 750 288 747 b 496 950 411 822 449 890 b 589 1044 524 985 553 1019 b 649 1063 607 1057 629 1065 b 703 1033 668 1058 686 1047 b 778 951 731 1011 756 982 b 869 778 815 899 843 838 b 1011 768 917 775 964 772 b 1131 746 1051 764 1093 760 b 1190 701 1154 738 1175 722 b 1206 653 1199 688 1206 669 b 1188 585 1207 629 1197 606 b 1115 485 1168 549 1142 515 b 1013 386 1083 449 1049 415 b 1118 67 1044 301 1110 157 b 1117 26 1118 53 1118 39 b 1088 -17 1113 8 1103 -8 b 1025 -29 1068 -26 1046 -29 b 929 -8 993 -28 960 -19 b 647 160 897 4 679 146 b 476 68 592 128 535 96 b 236 -26 399 31 319 -11 m 736 843 b 783 801 744 819 760 788 b 790 824 792 806 796 817 b 774 863 783 836 781 850 b 728 932 761 888 750 914 b 701 972 724 936 706 967 b 665 1000 697 976 669 996 b 639 989 657 1011 636 1001 b 678 954 640 981 674 961 b 699 915 681 949 693 919 b 714 894 704 910 710 901 b 724 865 719 886 719 875 b 736 843 725 863 735 847 m 793 756 b 810 735 779 742 796 724 b 793 756 829 750 810 772 "},"Â":{"ha":1214,"x_min":0,"x_max":0,"o":"m 236 -26 b 476 68 319 -11 399 31 b 647 160 535 96 592 128 b 929 -8 679 146 897 4 b 1025 -29 960 -19 993 -28 b 1088 -17 1046 -29 1068 -26 b 1117 26 1103 -8 1113 8 b 1118 67 1118 39 1118 53 b 1013 386 1110 157 1044 301 b 1115 485 1049 415 1083 449 b 1188 585 1142 515 1168 549 b 1206 653 1197 606 1207 629 b 1190 701 1206 669 1199 688 b 1131 746 1175 722 1154 738 b 1011 768 1093 760 1051 764 b 869 778 964 772 917 775 b 778 951 843 838 815 899 b 703 1033 756 982 731 1011 b 649 1063 686 1047 668 1058 b 589 1044 629 1065 607 1057 b 496 950 553 1019 524 985 b 376 754 449 890 411 822 b 110 731 288 747 197 750 b 42 700 86 725 61 717 b 7 611 18 679 0 642 b 39 556 11 589 25 571 b 124 488 50 543 110 497 b 207 422 153 467 179 443 b 106 126 164 328 122 231 b 106 42 100 99 97 69 b 161 -24 114 14 136 -14 b 236 -26 185 -32 211 -29 m 736 843 b 724 865 735 847 725 863 b 714 894 719 875 719 886 b 699 915 710 901 704 910 b 678 954 693 919 681 949 b 639 989 674 961 640 981 b 665 1000 636 1001 657 1011 b 701 972 669 996 697 976 b 728 932 706 967 724 936 b 774 863 750 914 761 888 b 790 824 781 850 783 836 b 783 801 796 817 792 806 b 736 843 760 788 744 819 m 793 756 b 810 735 810 772 829 750 b 793 756 796 724 779 742 "},"Ã":{"ha":1214,"x_min":0,"x_max":0,"o":"m 236 -26 b 161 -24 211 -29 185 -32 b 106 42 136 -14 114 14 b 106 126 97 69 100 99 b 207 422 122 231 164 328 b 124 488 179 443 153 467 b 39 556 110 497 50 543 b 7 611 25 571 11 589 b 42 700 0 642 18 679 b 110 731 61 717 86 725 b 376 754 197 750 288 747 b 496 950 411 822 449 890 b 589 1044 524 985 553 1019 b 649 1063 607 1057 629 1065 b 703 1033 668 1058 686 1047 b 778 951 731 1011 756 982 b 869 778 815 899 843 838 b 1011 768 917 775 964 772 b 1131 746 1051 764 1093 760 b 1190 701 1154 738 1175 722 b 1206 653 1199 688 1206 669 b 1188 585 1207 629 1197 606 b 1115 485 1168 549 1142 515 b 1013 386 1083 449 1049 415 b 1118 67 1044 301 1110 157 b 1117 26 1118 53 1118 39 b 1088 -17 1113 8 1103 -8 b 1025 -29 1068 -26 1046 -29 b 929 -8 993 -28 960 -19 b 647 160 897 4 679 146 b 476 68 592 128 535 96 b 236 -26 399 31 319 -11 m 736 843 b 783 801 744 819 760 788 b 790 824 792 806 796 817 b 774 863 783 836 781 850 b 728 932 761 888 750 914 b 701 972 724 936 706 967 b 665 1000 697 976 669 996 b 639 989 657 1011 636 1001 b 678 954 640 981 674 961 b 699 915 681 949 693 919 b 714 894 704 910 710 901 b 724 865 719 886 719 875 b 736 843 725 863 735 847 m 793 756 b 810 735 779 742 796 724 b 793 756 829 750 810 772 "},"Ä":{"ha":1214,"x_min":0,"x_max":0,"o":"m 236 -26 b 476 68 319 -11 399 31 b 647 160 535 96 592 128 b 929 -8 679 146 897 4 b 1025 -29 960 -19 993 -28 b 1088 -17 1046 -29 1068 -26 b 1117 26 1103 -8 1113 8 b 1118 67 1118 39 1118 53 b 1013 386 1110 157 1044 301 b 1115 485 1049 415 1083 449 b 1188 585 1142 515 1168 549 b 1206 653 1197 606 1207 629 b 1190 701 1206 669 1199 688 b 1131 746 1175 722 1154 738 b 1011 768 1093 760 1051 764 b 869 778 964 772 917 775 b 778 951 843 838 815 899 b 703 1033 756 982 731 1011 b 649 1063 686 1047 668 1058 b 589 1044 629 1065 607 1057 b 496 950 553 1019 524 985 b 376 754 449 890 411 822 b 110 731 288 747 197 750 b 42 700 86 725 61 717 b 7 611 18 679 0 642 b 39 556 11 589 25 571 b 124 488 50 543 110 497 b 207 422 153 467 179 443 b 106 126 164 328 122 231 b 106 42 100 99 97 69 b 161 -24 114 14 136 -14 b 236 -26 185 -32 211 -29 m 736 843 b 724 865 735 847 725 863 b 714 894 719 875 719 886 b 699 915 710 901 704 910 b 678 954 693 919 681 949 b 639 989 674 961 640 981 b 665 1000 636 1001 657 1011 b 701 972 669 996 697 976 b 728 932 706 967 724 936 b 774 863 750 914 761 888 b 790 824 781 850 783 836 b 783 801 796 817 792 806 b 736 843 760 788 744 819 m 793 756 b 810 735 810 772 829 750 b 793 756 796 724 779 742 "},"Å":{"ha":1214,"x_min":0,"x_max":0,"o":"m 236 -26 b 161 -24 211 -29 185 -32 b 106 42 136 -14 114 14 b 106 126 97 69 100 99 b 207 422 122 231 164 328 b 124 488 179 443 153 467 b 39 556 110 497 50 543 b 7 611 25 571 11 589 b 42 700 0 642 18 679 b 110 731 61 717 86 725 b 376 754 197 750 288 747 b 496 950 411 822 449 890 b 589 1044 524 985 553 1019 b 649 1063 607 1057 629 1065 b 703 1033 668 1058 686 1047 b 778 951 731 1011 756 982 b 869 778 815 899 843 838 b 1011 768 917 775 964 772 b 1131 746 1051 764 1093 760 b 1190 701 1154 738 1175 722 b 1206 653 1199 688 1206 669 b 1188 585 1207 629 1197 606 b 1115 485 1168 549 1142 515 b 1013 386 1083 449 1049 415 b 1118 67 1044 301 1110 157 b 1117 26 1118 53 1118 39 b 1088 -17 1113 8 1103 -8 b 1025 -29 1068 -26 1046 -29 b 929 -8 993 -28 960 -19 b 647 160 897 4 679 146 b 476 68 592 128 535 96 b 236 -26 399 31 319 -11 m 736 843 b 783 801 744 819 760 788 b 790 824 792 806 796 817 b 774 863 783 836 781 850 b 728 932 761 888 750 914 b 701 972 724 936 706 967 b 665 1000 697 976 669 996 b 639 989 657 1011 636 1001 b 678 954 640 981 674 961 b 699 915 681 949 693 919 b 714 894 704 910 710 901 b 724 865 719 886 719 875 b 736 843 725 863 735 847 m 793 756 b 810 735 779 742 796 724 b 793 756 829 750 810 772 "},"B":{"ha":1210,"x_min":0,"x_max":0,"o":"m 842 -15 b 488 -28 725 -33 606 -33 b 213 14 394 -22 300 -15 b 154 40 193 21 171 28 b 118 100 135 56 124 78 b 142 239 104 146 111 201 b 196 275 154 256 175 267 b 225 283 206 278 215 282 b 178 681 224 417 204 550 b 103 675 153 672 126 669 b 65 693 89 678 76 685 b 13 892 19 729 -1 838 b 46 940 18 911 29 928 b 138 986 71 961 104 975 b 226 1015 167 996 196 1006 b 617 1071 351 1053 485 1074 b 829 1040 689 1069 760 1057 b 1042 926 908 1019 988 982 b 1075 565 1136 832 1168 661 b 958 490 1044 533 1003 510 b 1139 389 1028 471 1097 440 b 1188 225 1176 343 1199 281 b 1081 69 1176 165 1135 107 b 842 -15 1013 24 926 -3 m 928 893 b 965 901 940 885 958 888 b 928 944 975 922 947 935 b 847 983 900 958 875 975 b 747 1004 829 988 761 993 b 696 1024 733 1015 714 1022 b 576 1015 657 1029 615 1024 b 554 997 564 1018 551 1010 b 578 989 556 989 568 988 b 638 990 597 989 618 993 b 694 979 657 988 678 989 b 744 969 710 972 728 968 b 776 963 750 969 772 964 b 819 951 783 961 814 954 b 928 893 833 943 914 903 m 1010 850 b 1018 829 990 840 997 822 b 1010 850 1033 835 1026 858 m 486 556 b 496 557 486 554 493 557 b 649 585 547 564 600 571 b 718 614 672 593 697 600 b 713 775 785 654 786 746 b 575 781 671 792 619 790 b 507 750 551 775 524 767 b 483 692 492 735 486 713 b 486 556 478 646 482 600 m 1081 338 b 1101 356 1093 333 1108 344 b 1075 383 1099 361 1079 379 b 1032 415 1069 389 1040 411 b 951 442 1019 421 965 440 b 942 417 931 443 922 418 b 971 408 951 417 961 411 b 1021 386 978 404 1014 392 b 1068 350 1038 375 1054 364 b 1081 338 1072 346 1075 339 m 543 258 b 586 253 556 251 572 251 b 742 308 642 257 700 276 b 772 343 754 318 765 329 b 772 386 778 356 779 374 b 650 411 756 419 689 418 b 506 364 600 401 543 383 b 506 363 506 364 506 363 b 543 258 515 318 506 279 m 1103 286 b 1126 303 1114 272 1140 292 b 1103 286 1114 314 1090 299 "},"C":{"ha":918,"x_min":0,"x_max":0,"o":"m 722 14 b 385 -35 621 -43 499 -61 b 158 96 300 -14 219 33 b 97 179 135 121 114 149 b 39 392 64 244 47 318 b 42 646 28 476 28 563 b 92 800 50 700 68 751 b 235 976 124 868 175 929 b 354 1042 269 1004 310 1029 b 463 1057 389 1053 425 1056 b 689 1010 539 1060 621 1046 b 847 874 750 976 808 932 b 882 779 865 846 882 813 b 857 703 882 753 871 725 b 769 621 836 668 806 639 b 644 624 731 600 685 601 b 525 726 599 649 567 696 b 424 728 494 750 456 750 b 376 665 401 713 386 689 b 356 528 357 622 354 574 b 403 369 360 474 372 415 b 457 326 417 351 436 333 b 544 325 485 317 515 318 b 700 378 597 338 649 360 b 796 382 729 389 767 396 b 890 197 854 354 901 263 b 842 107 885 164 865 132 b 722 14 808 69 767 39 m 667 919 b 688 951 692 911 713 943 b 642 983 681 954 649 981 b 576 1004 633 989 585 1000 b 485 1017 561 1008 500 1019 b 444 1010 471 1015 457 1011 b 436 982 421 1006 414 976 b 457 979 440 982 454 979 b 490 981 468 979 479 982 b 615 956 511 979 596 964 b 667 919 633 946 647 926 m 724 871 b 743 893 736 869 750 883 b 717 892 736 903 722 901 b 724 871 711 882 714 871 m 632 308 b 658 301 631 296 646 297 b 697 315 664 303 692 313 b 743 322 711 322 728 321 b 746 347 769 324 769 358 b 704 347 739 344 711 347 b 664 335 697 346 671 338 b 646 326 658 331 653 328 b 632 308 636 325 632 318 m 790 333 b 799 313 771 328 781 306 b 790 333 818 321 810 340 "},"Ç":{"ha":918,"x_min":0,"x_max":0,"o":"m 722 14 b 842 107 767 39 808 69 b 890 197 865 132 885 164 b 796 382 901 263 854 354 b 700 378 767 396 729 389 b 544 325 649 360 597 338 b 457 326 515 318 485 317 b 403 369 436 333 417 351 b 356 528 372 415 360 474 b 376 665 354 574 357 622 b 424 728 386 689 401 713 b 525 726 456 750 494 750 b 644 624 567 696 599 649 b 769 621 685 601 731 600 b 857 703 806 639 836 668 b 882 779 871 725 882 753 b 847 874 882 813 865 846 b 689 1010 808 932 750 976 b 463 1057 621 1046 539 1060 b 354 1042 425 1056 389 1053 b 235 976 310 1029 269 1004 b 92 800 175 929 124 868 b 42 646 68 751 50 700 b 39 392 28 563 28 476 b 97 179 47 318 64 244 b 158 96 114 149 135 121 b 385 -35 219 33 300 -14 b 722 14 499 -61 621 -43 m 667 919 b 615 956 647 926 633 946 b 490 981 596 964 511 979 b 457 979 479 982 468 979 b 436 982 454 979 440 982 b 444 1010 414 976 421 1006 b 485 1017 457 1011 471 1015 b 576 1004 500 1019 561 1008 b 642 983 585 1000 633 989 b 688 951 649 981 681 954 b 667 919 713 943 692 911 m 724 871 b 717 892 714 871 711 882 b 743 893 722 901 736 903 b 724 871 750 883 736 869 m 632 308 b 646 326 632 318 636 325 b 664 335 653 328 658 331 b 704 347 671 338 697 346 b 746 347 711 347 739 344 b 743 322 769 358 769 324 b 697 315 728 321 711 322 b 658 301 692 313 664 303 b 632 308 646 297 631 296 m 790 333 b 799 313 810 340 818 321 b 790 333 781 306 771 328 "},"D":{"ha":1061,"x_min":0,"x_max":0,"o":"m 640 -10 b 235 -39 510 -47 368 -64 b 126 -1 197 -32 156 -26 b 86 88 101 19 89 54 b 106 232 85 118 86 207 b 174 261 121 251 149 257 b 178 268 175 264 176 267 b 171 390 175 313 171 375 b 139 724 163 501 153 613 b 125 722 135 722 131 722 b 64 731 106 719 81 719 b 15 897 28 756 14 853 b 36 986 17 928 21 960 b 358 1081 79 1063 271 1078 b 674 1036 465 1083 575 1074 b 894 893 756 1006 831 954 b 989 749 936 854 967 801 b 1021 371 1036 632 1049 494 b 968 236 1010 324 992 279 b 860 108 942 188 903 146 b 640 -10 797 54 719 14 m 764 882 b 797 893 772 867 797 876 b 799 911 800 899 801 907 b 764 936 794 919 772 932 b 646 992 747 944 665 988 b 613 997 635 993 622 992 b 590 1008 606 1001 599 1006 b 551 1017 578 1013 564 1013 b 526 1025 543 1019 536 1024 b 485 1017 513 1025 499 1019 b 451 1014 479 1017 456 1017 b 438 997 444 1013 439 1004 b 472 983 433 983 457 985 b 508 988 485 983 496 986 b 521 982 513 988 517 983 b 567 971 526 981 561 972 b 575 964 571 969 572 967 b 636 954 593 953 617 960 b 718 914 650 950 706 922 b 764 882 726 908 760 890 m 832 836 b 842 814 826 828 832 814 b 854 818 847 814 851 817 b 832 836 879 831 846 860 m 446 393 b 450 313 449 367 450 339 b 513 332 472 315 493 322 b 654 444 568 357 619 394 b 690 539 674 472 688 506 b 635 676 692 589 669 642 b 514 742 603 708 558 732 b 417 753 499 746 447 751 b 446 393 425 663 442 435 "},"E":{"ha":919,"x_min":0,"x_max":0,"o":"m 711 -21 b 388 -46 606 -44 496 -56 b 163 43 308 -39 222 -11 b 78 178 124 78 96 128 b 39 379 54 242 43 311 b 47 621 35 460 39 540 b 114 879 57 708 75 800 b 233 994 140 928 182 975 b 444 1028 300 1021 374 1026 b 446 1028 444 1028 444 1028 b 710 1043 532 1044 621 1044 b 822 1036 747 1043 786 1044 b 871 1008 840 1032 860 1024 b 881 824 900 974 893 868 b 825 728 871 789 854 751 b 738 699 801 708 768 703 b 486 714 654 690 569 714 b 411 700 461 714 435 710 b 375 672 397 694 383 685 b 351 575 361 653 354 615 b 571 593 419 589 533 606 b 622 546 593 586 615 568 b 607 425 631 518 625 449 b 496 406 592 404 522 408 b 363 389 451 403 407 396 b 382 326 367 367 372 346 b 410 293 389 313 397 300 b 458 282 425 285 442 283 b 557 289 490 281 524 285 b 690 310 601 293 646 300 b 814 321 715 314 792 333 b 865 251 840 308 854 278 b 886 108 883 207 893 156 b 864 50 882 88 876 67 b 825 17 854 36 840 24 b 711 -21 789 -1 750 -12 m 567 953 b 618 940 581 942 600 939 b 711 950 632 942 697 953 b 738 954 719 949 731 949 b 743 975 743 960 743 968 b 719 979 742 986 728 986 b 701 979 717 976 706 979 b 632 981 678 981 654 986 b 607 979 624 979 615 978 b 571 989 594 982 583 989 b 513 974 550 986 528 986 b 521 956 501 967 508 953 b 567 953 532 957 557 958 m 796 947 b 818 944 796 936 811 935 b 822 954 821 947 821 950 b 796 956 826 969 800 972 b 796 947 796 954 794 949 m 418 551 b 431 529 406 543 415 528 b 457 536 439 532 447 536 b 504 535 463 536 499 535 b 519 554 515 535 526 546 b 486 561 515 561 494 561 b 450 561 475 561 463 563 b 418 551 444 560 422 554 m 578 551 b 563 531 558 564 538 531 b 578 551 576 529 590 543 m 574 210 b 607 213 585 206 596 211 b 676 229 631 218 654 222 b 744 235 685 232 736 232 b 756 260 756 238 765 251 b 733 264 750 264 740 263 b 674 263 714 264 693 267 b 574 232 660 260 588 235 b 574 210 554 229 554 204 m 792 244 b 819 249 797 229 814 233 b 792 244 828 272 783 269 "},"È":{"ha":919,"x_min":0,"x_max":0,"o":"m 711 -21 b 825 17 750 -12 789 -1 b 864 50 840 24 854 36 b 886 108 876 67 882 88 b 865 251 893 156 883 207 b 814 321 854 278 840 308 b 690 310 792 333 715 314 b 557 289 646 300 601 293 b 458 282 524 285 490 281 b 410 293 442 283 425 285 b 382 326 397 300 389 313 b 363 389 372 346 367 367 b 496 406 407 396 451 403 b 607 425 522 408 592 404 b 622 546 625 449 631 518 b 571 593 615 568 593 586 b 351 575 533 606 419 589 b 375 672 354 615 361 653 b 411 700 383 685 397 694 b 486 714 435 710 461 714 b 738 699 569 714 654 690 b 825 728 768 703 801 708 b 881 824 854 751 871 789 b 871 1008 893 868 900 974 b 822 1036 860 1024 840 1032 b 710 1043 786 1044 747 1043 b 446 1028 621 1044 532 1044 b 444 1028 444 1028 444 1028 b 233 994 374 1026 300 1021 b 114 879 182 975 140 928 b 47 621 75 800 57 708 b 39 379 39 540 35 460 b 78 178 43 311 54 242 b 163 43 96 128 124 78 b 388 -46 222 -11 308 -39 b 711 -21 496 -56 606 -44 m 567 953 b 521 956 557 958 532 957 b 513 974 508 953 501 967 b 571 989 528 986 550 986 b 607 979 583 989 594 982 b 632 981 615 978 624 979 b 701 979 654 986 678 981 b 719 979 706 979 717 976 b 743 975 728 986 742 986 b 738 954 743 968 743 960 b 711 950 731 949 719 949 b 618 940 697 953 632 942 b 567 953 600 939 581 942 m 796 947 b 796 956 794 949 796 954 b 822 954 800 972 826 969 b 818 944 821 950 821 947 b 796 947 811 935 796 936 m 418 551 b 450 561 422 554 444 560 b 486 561 463 563 475 561 b 519 554 494 561 515 561 b 504 535 526 546 515 535 b 457 536 499 535 463 536 b 431 529 447 536 439 532 b 418 551 415 528 406 543 m 578 551 b 563 531 590 543 576 529 b 578 551 538 531 558 564 m 574 210 b 574 232 554 204 554 229 b 674 263 588 235 660 260 b 733 264 693 267 714 264 b 756 260 740 263 750 264 b 744 235 765 251 756 238 b 676 229 736 232 685 232 b 607 213 654 222 631 218 b 574 210 596 211 585 206 m 792 244 b 819 249 783 269 828 272 b 792 244 814 233 797 229 "},"É":{"ha":919,"x_min":0,"x_max":0,"o":"m 711 -21 b 388 -46 606 -44 496 -56 b 163 43 308 -39 222 -11 b 78 178 124 78 96 128 b 39 379 54 242 43 311 b 47 621 35 460 39 540 b 114 879 57 708 75 800 b 233 994 140 928 182 975 b 444 1028 300 1021 374 1026 b 446 1028 444 1028 444 1028 b 710 1043 532 1044 621 1044 b 822 1036 747 1043 786 1044 b 871 1008 840 1032 860 1024 b 881 824 900 974 893 868 b 825 728 871 789 854 751 b 738 699 801 708 768 703 b 486 714 654 690 569 714 b 411 700 461 714 435 710 b 375 672 397 694 383 685 b 351 575 361 653 354 615 b 571 593 419 589 533 606 b 622 546 593 586 615 568 b 607 425 631 518 625 449 b 496 406 592 404 522 408 b 363 389 451 403 407 396 b 382 326 367 367 372 346 b 410 293 389 313 397 300 b 458 282 425 285 442 283 b 557 289 490 281 524 285 b 690 310 601 293 646 300 b 814 321 715 314 792 333 b 865 251 840 308 854 278 b 886 108 883 207 893 156 b 864 50 882 88 876 67 b 825 17 854 36 840 24 b 711 -21 789 -1 750 -12 m 567 953 b 618 940 581 942 600 939 b 711 950 632 942 697 953 b 738 954 719 949 731 949 b 743 975 743 960 743 968 b 719 979 742 986 728 986 b 701 979 717 976 706 979 b 632 981 678 981 654 986 b 607 979 624 979 615 978 b 571 989 594 982 583 989 b 513 974 550 986 528 986 b 521 956 501 967 508 953 b 567 953 532 957 557 958 m 796 947 b 818 944 796 936 811 935 b 822 954 821 947 821 950 b 796 956 826 969 800 972 b 796 947 796 954 794 949 m 418 551 b 431 529 406 543 415 528 b 457 536 439 532 447 536 b 504 535 463 536 499 535 b 519 554 515 535 526 546 b 486 561 515 561 494 561 b 450 561 475 561 463 563 b 418 551 444 560 422 554 m 578 551 b 563 531 558 564 538 531 b 578 551 576 529 590 543 m 574 210 b 607 213 585 206 596 211 b 676 229 631 218 654 222 b 744 235 685 232 736 232 b 756 260 756 238 765 251 b 733 264 750 264 740 263 b 674 263 714 264 693 267 b 574 232 660 260 588 235 b 574 210 554 229 554 204 m 792 244 b 819 249 797 229 814 233 b 792 244 828 272 783 269 "},"Ê":{"ha":919,"x_min":0,"x_max":0,"o":"m 711 -21 b 825 17 750 -12 789 -1 b 864 50 840 24 854 36 b 886 108 876 67 882 88 b 865 251 893 156 883 207 b 814 321 854 278 840 308 b 690 310 792 333 715 314 b 557 289 646 300 601 293 b 458 282 524 285 490 281 b 410 293 442 283 425 285 b 382 326 397 300 389 313 b 363 389 372 346 367 367 b 496 406 407 396 451 403 b 607 425 522 408 592 404 b 622 546 625 449 631 518 b 571 593 615 568 593 586 b 351 575 533 606 419 589 b 375 672 354 615 361 653 b 411 700 383 685 397 694 b 486 714 435 710 461 714 b 738 699 569 714 654 690 b 825 728 768 703 801 708 b 881 824 854 751 871 789 b 871 1008 893 868 900 974 b 822 1036 860 1024 840 1032 b 710 1043 786 1044 747 1043 b 446 1028 621 1044 532 1044 b 444 1028 444 1028 444 1028 b 233 994 374 1026 300 1021 b 114 879 182 975 140 928 b 47 621 75 800 57 708 b 39 379 39 540 35 460 b 78 178 43 311 54 242 b 163 43 96 128 124 78 b 388 -46 222 -11 308 -39 b 711 -21 496 -56 606 -44 m 567 953 b 521 956 557 958 532 957 b 513 974 508 953 501 967 b 571 989 528 986 550 986 b 607 979 583 989 594 982 b 632 981 615 978 624 979 b 701 979 654 986 678 981 b 719 979 706 979 717 976 b 743 975 728 986 742 986 b 738 954 743 968 743 960 b 711 950 731 949 719 949 b 618 940 697 953 632 942 b 567 953 600 939 581 942 m 796 947 b 796 956 794 949 796 954 b 822 954 800 972 826 969 b 818 944 821 950 821 947 b 796 947 811 935 796 936 m 418 551 b 450 561 422 554 444 560 b 486 561 463 563 475 561 b 519 554 494 561 515 561 b 504 535 526 546 515 535 b 457 536 499 535 463 536 b 431 529 447 536 439 532 b 418 551 415 528 406 543 m 578 551 b 563 531 590 543 576 529 b 578 551 538 531 558 564 m 574 210 b 574 232 554 204 554 229 b 674 263 588 235 660 260 b 733 264 693 267 714 264 b 756 260 740 263 750 264 b 744 235 765 251 756 238 b 676 229 736 232 685 232 b 607 213 654 222 631 218 b 574 210 596 211 585 206 m 792 244 b 819 249 783 269 828 272 b 792 244 814 233 797 229 "},"Ë":{"ha":919,"x_min":0,"x_max":0,"o":"m 711 -21 b 388 -46 606 -44 496 -56 b 163 43 308 -39 222 -11 b 78 178 124 78 96 128 b 39 379 54 242 43 311 b 47 621 35 460 39 540 b 114 879 57 708 75 800 b 233 994 140 928 182 975 b 444 1028 300 1021 374 1026 b 446 1028 444 1028 444 1028 b 710 1043 532 1044 621 1044 b 822 1036 747 1043 786 1044 b 871 1008 840 1032 860 1024 b 881 824 900 974 893 868 b 825 728 871 789 854 751 b 738 699 801 708 768 703 b 486 714 654 690 569 714 b 411 700 461 714 435 710 b 375 672 397 694 383 685 b 351 575 361 653 354 615 b 571 593 419 589 533 606 b 622 546 593 586 615 568 b 607 425 631 518 625 449 b 496 406 592 404 522 408 b 363 389 451 403 407 396 b 382 326 367 367 372 346 b 410 293 389 313 397 300 b 458 282 425 285 442 283 b 557 289 490 281 524 285 b 690 310 601 293 646 300 b 814 321 715 314 792 333 b 865 251 840 308 854 278 b 886 108 883 207 893 156 b 864 50 882 88 876 67 b 825 17 854 36 840 24 b 711 -21 789 -1 750 -12 m 567 953 b 618 940 581 942 600 939 b 711 950 632 942 697 953 b 738 954 719 949 731 949 b 743 975 743 960 743 968 b 719 979 742 986 728 986 b 701 979 717 976 706 979 b 632 981 678 981 654 986 b 607 979 624 979 615 978 b 571 989 594 982 583 989 b 513 974 550 986 528 986 b 521 956 501 967 508 953 b 567 953 532 957 557 958 m 796 947 b 818 944 796 936 811 935 b 822 954 821 947 821 950 b 796 956 826 969 800 972 b 796 947 796 954 794 949 m 418 551 b 431 529 406 543 415 528 b 457 536 439 532 447 536 b 504 535 463 536 499 535 b 519 554 515 535 526 546 b 486 561 515 561 494 561 b 450 561 475 561 463 563 b 418 551 444 560 422 554 m 578 551 b 563 531 558 564 538 531 b 578 551 576 529 590 543 m 574 210 b 607 213 585 206 596 211 b 676 229 631 218 654 222 b 744 235 685 232 736 232 b 756 260 756 238 765 251 b 733 264 750 264 740 263 b 674 263 714 264 693 267 b 574 232 660 260 588 235 b 574 210 554 229 554 204 m 792 244 b 819 249 797 229 814 233 b 792 244 828 272 783 269 "},"F":{"ha":893,"x_min":0,"x_max":0,"o":"m 335 -49 b 163 -58 279 -62 219 -68 b 82 28 121 -50 92 -12 b 65 278 65 110 68 194 b 49 683 58 413 42 549 b 113 951 53 775 67 872 b 182 1025 131 981 154 1007 b 339 1058 228 1054 286 1058 b 496 1049 392 1057 443 1053 b 614 1033 510 1047 600 1035 b 750 1031 660 1029 704 1032 b 836 1014 779 1029 810 1028 b 871 981 850 1007 864 994 b 889 908 882 958 886 933 b 885 817 894 864 893 860 b 856 749 881 792 872 767 b 764 714 833 725 797 717 b 632 717 721 711 676 714 b 476 738 588 719 521 739 b 481 564 343 732 344 553 b 646 564 514 567 611 565 b 689 556 661 564 676 561 b 717 528 701 549 711 540 b 718 326 742 479 749 371 b 636 281 701 300 667 286 b 478 274 585 269 531 278 b 432 269 463 272 447 271 b 413 261 424 268 414 268 b 424 49 408 231 424 79 b 415 -6 425 31 425 10 b 335 -49 400 -33 364 -42 m 743 951 b 757 979 765 947 781 979 b 747 982 756 979 749 982 b 681 990 726 990 703 993 b 661 988 674 990 667 988 b 600 992 653 986 608 992 b 547 988 582 990 564 988 b 542 958 529 986 524 961 b 583 956 547 957 578 957 b 663 953 610 954 638 947 b 704 958 676 957 690 960 b 743 951 717 957 731 953 m 815 953 b 835 944 811 940 826 935 b 838 965 842 951 844 960 b 815 953 829 972 815 965 m 528 494 b 582 501 546 493 564 500 b 606 497 586 501 601 497 b 625 517 619 494 635 507 b 565 532 617 525 576 529 b 476 526 551 533 490 529 b 453 504 463 533 442 517 b 528 494 464 492 511 494 m 646 499 b 672 494 646 481 663 483 b 646 499 685 511 646 513 "},"G":{"ha":971,"x_min":0,"x_max":0,"o":"m 722 14 b 385 -35 621 -43 499 -61 b 158 96 300 -14 219 33 b 97 179 135 121 114 149 b 39 392 64 244 47 318 b 42 646 28 476 28 563 b 92 800 50 700 68 751 b 235 976 124 868 175 929 b 354 1042 269 1004 310 1029 b 463 1057 389 1053 425 1056 b 689 1010 539 1060 621 1046 b 847 874 750 976 808 932 b 882 779 865 846 882 813 b 857 703 882 753 871 725 b 769 621 836 668 806 639 b 644 624 731 600 685 601 b 525 726 599 649 567 696 b 424 728 494 750 456 750 b 376 665 401 713 386 689 b 356 528 357 622 354 574 b 403 369 360 474 372 415 b 457 326 417 351 436 333 b 544 325 485 317 515 318 b 589 338 560 328 574 332 b 597 347 592 340 594 343 b 607 369 601 351 608 364 b 596 379 606 375 600 378 b 519 393 571 388 544 388 b 478 421 503 396 486 406 b 475 542 464 443 468 515 b 506 578 478 557 490 572 b 818 535 565 597 757 554 b 900 493 847 525 876 513 b 936 444 915 481 929 464 b 950 350 949 415 950 382 b 722 14 943 207 844 83 m 694 904 b 718 929 711 897 731 917 b 664 968 713 936 672 963 b 607 996 647 981 626 988 b 442 996 557 1021 492 1018 b 438 975 433 992 429 981 b 460 976 444 972 453 975 b 490 981 469 979 479 979 b 579 968 519 983 551 981 b 597 961 585 967 590 964 b 632 951 608 958 621 957 b 694 904 642 947 686 910 m 729 874 b 751 867 724 861 742 856 b 729 874 768 888 739 899 m 867 431 b 893 443 874 415 897 428 b 860 468 890 453 868 464 b 839 488 851 472 847 483 b 796 499 832 492 803 497 b 781 504 793 500 783 504 b 726 517 774 507 735 515 b 700 518 722 517 703 517 b 688 493 682 524 669 497 b 710 490 694 492 703 492 b 761 474 717 488 753 474 b 811 460 769 472 804 463 b 835 447 815 460 832 449 b 867 431 842 444 864 438 m 889 379 b 914 372 885 360 906 361 b 889 379 928 390 890 394 "},"H":{"ha":1083,"x_min":0,"x_max":0,"o":"m 903 -33 b 690 -10 850 -43 728 -51 b 640 315 644 42 643 244 b 640 322 640 317 640 319 b 454 318 596 319 514 317 b 458 204 456 269 458 219 b 457 111 460 174 460 143 b 429 33 454 85 446 54 b 340 -15 407 7 374 -7 b 213 -26 299 -26 256 -31 b 121 -4 181 -25 149 -21 b 82 38 104 4 90 19 b 65 142 68 69 67 107 b 60 556 64 192 61 504 b 53 783 60 583 54 756 b 65 932 53 833 51 885 b 101 986 71 953 83 974 b 203 1017 131 1007 168 1011 b 314 1029 240 1022 276 1028 b 397 1004 343 1029 372 1019 b 458 947 421 990 446 972 b 476 851 474 919 476 883 b 475 599 479 767 476 683 b 475 599 475 599 475 599 b 525 596 497 597 518 596 b 653 599 568 593 611 593 b 654 657 653 619 654 647 b 671 867 656 726 658 797 b 713 988 679 908 689 953 b 764 1028 725 1006 744 1021 b 831 1039 785 1036 808 1039 b 950 1011 871 1038 915 1033 b 1001 933 976 996 994 964 b 1010 771 1014 881 1010 825 b 1015 436 1013 658 1011 547 b 1032 233 1019 368 1026 301 b 1038 92 1036 186 1040 139 b 1019 24 1038 68 1032 43 b 978 -11 1010 7 994 -4 b 903 -33 954 -22 929 -28 m 917 910 b 942 904 914 894 935 890 b 946 922 946 910 949 917 b 926 950 944 926 929 946 b 881 976 915 964 897 972 b 844 978 875 978 849 978 b 788 983 835 979 796 985 b 758 956 769 982 746 969 b 772 950 763 953 768 950 b 828 940 790 944 810 946 b 896 931 850 935 878 944 b 917 910 899 928 914 913 m 358 915 b 386 917 361 901 382 904 b 385 931 386 922 386 926 b 339 949 381 943 351 944 b 304 953 328 951 317 953 b 268 965 292 953 281 963 b 189 943 247 972 204 958 b 199 918 178 933 185 918 b 236 926 204 918 231 925 b 265 919 242 928 260 919 b 307 924 279 917 293 922 b 332 918 311 924 328 919 b 358 915 342 917 350 918 m 399 899 b 419 886 376 878 400 863 b 399 899 431 899 411 911 m 940 840 b 953 865 960 835 972 858 b 940 840 935 872 922 844 "},"I":{"ha":514,"x_min":0,"x_max":0,"o":"m 353 -8 b 249 -14 318 -14 283 -17 b 165 10 219 -11 190 -6 b 121 63 147 22 132 42 b 78 186 100 101 88 143 b 47 579 46 313 47 447 b 57 817 49 658 47 738 b 99 968 64 869 75 922 b 165 1024 113 994 139 1013 b 428 922 275 1069 419 1049 b 429 753 431 865 428 808 b 439 536 431 681 435 608 b 460 328 444 467 450 397 b 476 169 467 275 475 222 b 464 67 478 135 476 99 b 426 18 457 47 443 31 b 353 -8 404 3 378 -4 m 358 865 b 386 875 365 853 388 861 b 363 953 383 889 369 940 b 328 983 358 961 336 979 b 294 992 324 986 299 990 b 253 1001 288 993 260 1001 b 197 989 233 1001 215 997 b 189 963 176 989 169 965 b 228 969 203 960 215 968 b 257 964 238 972 247 968 b 292 954 267 958 279 956 b 308 951 294 954 306 953 b 329 935 313 949 326 939 b 347 882 333 928 343 888 b 354 875 349 879 351 878 b 358 865 356 874 357 867 m 356 806 b 367 788 342 796 353 781 b 382 804 375 792 385 796 b 356 806 378 815 364 811 "},"Ì":{"ha":514,"x_min":0,"x_max":0,"o":"m 353 -8 b 426 18 378 -4 404 3 b 464 67 443 31 457 47 b 476 169 476 99 478 135 b 460 328 475 222 467 275 b 439 536 450 397 444 467 b 429 753 435 608 431 681 b 428 922 428 808 431 865 b 165 1024 419 1049 275 1069 b 99 968 139 1013 113 994 b 57 817 75 922 64 869 b 47 579 47 738 49 658 b 78 186 47 447 46 313 b 121 63 88 143 100 101 b 165 10 132 42 147 22 b 249 -14 190 -6 219 -11 b 353 -8 283 -17 318 -14 m 358 865 b 354 875 357 867 356 874 b 347 882 351 878 349 879 b 329 935 343 888 333 928 b 308 951 326 939 313 949 b 292 954 306 953 294 954 b 257 964 279 956 267 958 b 228 969 247 968 238 972 b 189 963 215 968 203 960 b 197 989 169 965 176 989 b 253 1001 215 997 233 1001 b 294 992 260 1001 288 993 b 328 983 299 990 324 986 b 363 953 336 979 358 961 b 386 875 369 940 383 889 b 358 865 388 861 365 853 m 356 806 b 382 804 364 811 378 815 b 367 788 385 796 375 792 b 356 806 353 781 342 796 "},"Í":{"ha":514,"x_min":0,"x_max":0,"o":"m 353 -8 b 249 -14 318 -14 283 -17 b 165 10 219 -11 190 -6 b 121 63 147 22 132 42 b 78 186 100 101 88 143 b 47 579 46 313 47 447 b 57 817 49 658 47 738 b 99 968 64 869 75 922 b 165 1024 113 994 139 1013 b 428 922 275 1069 419 1049 b 429 753 431 865 428 808 b 439 536 431 681 435 608 b 460 328 444 467 450 397 b 476 169 467 275 475 222 b 464 67 478 135 476 99 b 426 18 457 47 443 31 b 353 -8 404 3 378 -4 m 358 865 b 386 875 365 853 388 861 b 363 953 383 889 369 940 b 328 983 358 961 336 979 b 294 992 324 986 299 990 b 253 1001 288 993 260 1001 b 197 989 233 1001 215 997 b 189 963 176 989 169 965 b 228 969 203 960 215 968 b 257 964 238 972 247 968 b 292 954 267 958 279 956 b 308 951 294 954 306 953 b 329 935 313 949 326 939 b 347 882 333 928 343 888 b 354 875 349 879 351 878 b 358 865 356 874 357 867 m 356 806 b 367 788 342 796 353 781 b 382 804 375 792 385 796 b 356 806 378 815 364 811 "},"Î":{"ha":514,"x_min":0,"x_max":0,"o":"m 353 -8 b 426 18 378 -4 404 3 b 464 67 443 31 457 47 b 476 169 476 99 478 135 b 460 328 475 222 467 275 b 439 536 450 397 444 467 b 429 753 435 608 431 681 b 428 922 428 808 431 865 b 165 1024 419 1049 275 1069 b 99 968 139 1013 113 994 b 57 817 75 922 64 869 b 47 579 47 738 49 658 b 78 186 47 447 46 313 b 121 63 88 143 100 101 b 165 10 132 42 147 22 b 249 -14 190 -6 219 -11 b 353 -8 283 -17 318 -14 m 358 865 b 354 875 357 867 356 874 b 347 882 351 878 349 879 b 329 935 343 888 333 928 b 308 951 326 939 313 949 b 292 954 306 953 294 954 b 257 964 279 956 267 958 b 228 969 247 968 238 972 b 189 963 215 968 203 960 b 197 989 169 965 176 989 b 253 1001 215 997 233 1001 b 294 992 260 1001 288 993 b 328 983 299 990 324 986 b 363 953 336 979 358 961 b 386 875 369 940 383 889 b 358 865 388 861 365 853 m 356 806 b 382 804 364 811 378 815 b 367 788 385 796 375 792 b 356 806 353 781 342 796 "},"Ï":{"ha":514,"x_min":0,"x_max":0,"o":"m 353 -8 b 249 -14 318 -14 283 -17 b 165 10 219 -11 190 -6 b 121 63 147 22 132 42 b 78 186 100 101 88 143 b 47 579 46 313 47 447 b 57 817 49 658 47 738 b 99 968 64 869 75 922 b 165 1024 113 994 139 1013 b 428 922 275 1069 419 1049 b 429 753 431 865 428 808 b 439 536 431 681 435 608 b 460 328 444 467 450 397 b 476 169 467 275 475 222 b 464 67 478 135 476 99 b 426 18 457 47 443 31 b 353 -8 404 3 378 -4 m 358 865 b 386 875 365 853 388 861 b 363 953 383 889 369 940 b 328 983 358 961 336 979 b 294 992 324 986 299 990 b 253 1001 288 993 260 1001 b 197 989 233 1001 215 997 b 189 963 176 989 169 965 b 228 969 203 960 215 968 b 257 964 238 972 247 968 b 292 954 267 958 279 956 b 308 951 294 954 306 953 b 329 935 313 949 326 939 b 347 882 333 928 343 888 b 354 875 349 879 351 878 b 358 865 356 874 357 867 m 356 806 b 367 788 342 796 353 781 b 382 804 375 792 385 796 b 356 806 378 815 364 811 "},"J":{"ha":954,"x_min":0,"x_max":0,"o":"m 536 -53 b 149 58 401 -62 253 -22 b 24 267 83 110 43 189 b 18 428 11 319 13 374 b 31 494 19 450 22 474 b 231 597 53 557 158 599 b 385 513 286 594 371 564 b 381 406 396 478 385 442 b 578 406 363 268 536 211 b 547 715 588 453 583 704 b 463 725 538 719 474 725 b 333 722 419 725 376 718 b 246 758 301 725 268 738 b 215 808 231 771 219 790 b 204 899 207 838 204 868 b 247 1018 206 942 213 992 b 306 1039 264 1031 285 1036 b 444 1047 351 1044 399 1046 b 749 1061 485 1049 708 1063 b 801 1053 765 1060 785 1058 b 864 1003 826 1043 851 1026 b 886 896 882 971 883 932 b 904 617 892 803 896 710 b 913 413 911 549 918 481 b 824 108 903 307 879 199 b 707 0 797 63 754 25 b 536 -53 656 -29 596 -47 m 551 954 b 594 960 565 953 581 956 b 697 968 611 965 679 968 b 743 958 706 968 736 963 b 760 956 749 956 754 957 b 778 974 772 950 788 964 b 690 997 764 990 711 997 b 610 999 663 996 636 1003 b 582 994 600 999 590 997 b 542 1000 568 993 554 999 b 474 1000 519 1003 496 999 b 454 972 457 1000 442 983 b 515 964 463 964 504 965 b 551 954 528 963 539 956 m 796 901 b 824 926 815 888 840 908 b 796 901 808 942 778 915 m 272 490 b 290 511 285 486 300 501 b 238 533 276 524 257 532 b 201 542 225 533 214 542 b 136 528 179 540 156 540 b 153 507 115 515 133 493 b 193 508 158 507 188 510 b 224 500 203 507 213 501 b 243 500 226 500 240 501 b 272 490 247 500 268 493 m 308 472 b 322 454 296 463 307 447 b 333 460 326 456 329 458 b 324 482 351 468 340 488 b 308 472 321 481 311 475 "},"K":{"ha":996,"x_min":0,"x_max":0,"o":"m 371 3 b 82 40 282 -29 139 -33 b 54 113 65 60 57 88 b 60 382 43 203 56 293 b 63 678 61 419 63 642 b 76 900 65 751 67 826 b 106 1004 82 935 88 972 b 146 1035 113 1019 129 1031 b 353 1036 224 1058 278 1065 b 396 999 371 1029 388 1015 b 411 950 403 983 407 967 b 433 781 424 894 429 838 b 446 792 439 786 443 790 b 726 957 486 825 678 938 b 840 1000 757 969 807 1003 b 974 797 932 992 975 881 b 963 758 974 783 971 769 b 928 731 954 747 942 738 b 829 682 896 713 861 699 b 549 533 735 635 640 588 b 921 269 647 467 825 342 b 853 19 1015 199 954 75 b 800 1 838 10 819 4 b 454 243 703 -8 522 175 b 426 269 444 251 436 260 b 433 138 431 210 433 154 b 371 3 435 75 429 25 m 154 960 b 178 961 158 951 171 953 b 215 958 183 969 206 960 b 254 963 229 957 242 960 b 290 969 267 964 278 969 b 306 990 303 968 314 981 b 272 996 297 999 283 999 b 261 993 269 996 263 993 b 208 1000 253 994 215 1000 b 154 979 189 1001 168 993 b 154 960 149 974 149 965 m 331 960 b 356 958 329 947 350 946 b 357 964 356 960 356 963 b 333 969 368 981 340 989 b 331 960 333 968 332 961 m 685 876 b 744 886 696 864 728 885 b 775 897 754 889 765 894 b 821 906 781 900 815 903 b 828 910 822 907 825 910 b 831 938 851 901 856 939 b 814 931 828 938 817 932 b 801 936 811 931 804 935 b 769 942 792 942 779 943 b 714 919 758 940 724 925 b 685 876 697 908 672 893 m 864 915 b 889 914 863 901 883 901 b 890 922 889 917 889 919 b 867 925 901 940 868 946 b 864 915 865 921 864 918 "},"L":{"ha":801,"x_min":0,"x_max":0,"o":"m 483 -42 b 258 -56 408 -49 333 -62 b 119 -1 208 -51 154 -37 b 74 108 92 26 81 69 b 61 404 57 206 58 306 b 61 407 61 406 61 406 b 60 779 50 531 56 656 b 93 1011 63 825 67 975 b 121 1033 100 1021 110 1029 b 189 1047 143 1042 167 1043 b 371 1031 250 1056 317 1057 b 428 976 396 1019 418 1000 b 439 865 442 942 442 903 b 422 735 436 822 429 778 b 385 464 408 644 394 554 b 382 369 382 432 379 400 b 392 340 383 358 385 347 b 413 335 397 335 406 335 b 653 365 493 338 572 360 b 740 353 682 367 714 367 b 774 315 754 344 765 331 b 790 246 783 293 786 269 b 789 81 797 190 799 135 b 746 1 783 51 769 19 b 650 -32 719 -19 685 -29 b 483 -42 594 -36 539 -37 m 292 960 b 335 964 308 956 331 947 b 300 989 338 981 315 986 b 275 990 296 990 278 988 b 200 997 253 1003 225 1000 b 174 975 186 994 168 988 b 247 960 181 958 231 965 b 292 960 261 956 278 963 m 371 961 b 371 938 357 961 351 935 b 371 961 390 939 397 963 m 467 268 b 521 267 483 261 503 268 b 575 275 539 265 558 268 b 615 281 588 281 601 281 b 650 279 626 281 639 276 b 649 306 667 285 667 308 b 622 308 640 303 632 307 b 581 307 608 310 594 308 b 554 310 572 307 563 310 b 464 293 533 311 479 306 b 467 268 454 285 456 272 m 692 276 b 714 268 685 263 704 256 b 725 286 718 271 725 282 b 700 292 725 297 710 299 b 692 276 697 290 693 279 "},"M":{"ha":1293,"x_min":0,"x_max":0,"o":"m 315 -12 b 142 -19 261 -33 199 -33 b 76 10 119 -14 94 -6 b 43 61 61 22 51 42 b 26 163 31 93 28 128 b 119 697 21 343 68 524 b 232 951 146 786 176 876 b 313 1008 251 978 281 1000 b 461 983 364 1021 418 1013 b 542 868 500 957 521 910 b 633 635 578 792 603 713 b 644 607 638 625 640 615 b 657 636 649 617 653 626 b 765 897 689 725 722 814 b 838 990 783 932 806 968 b 1008 1000 883 1024 960 1029 b 1104 882 1051 974 1081 926 b 1204 592 1150 790 1178 690 b 1267 186 1240 460 1267 322 b 1253 71 1267 147 1265 107 b 1217 14 1246 49 1233 28 b 981 -10 1167 -28 1040 -35 b 921 39 957 0 933 17 b 888 286 899 78 890 242 b 876 438 886 304 881 378 b 831 365 860 411 836 375 b 724 231 804 326 767 268 b 658 190 706 211 683 194 b 563 233 624 186 589 208 b 506 300 542 253 522 276 b 417 432 493 317 444 390 b 400 199 411 349 401 226 b 381 54 396 150 396 100 b 315 -12 371 24 344 -1 m 443 876 b 476 831 451 864 463 831 b 492 849 488 831 496 839 b 479 886 490 853 481 881 b 435 940 469 907 456 929 b 392 953 429 943 397 951 b 354 967 379 957 367 964 b 321 964 343 968 332 967 b 288 942 311 961 290 951 b 300 928 285 933 292 926 b 332 935 311 928 321 935 b 374 922 347 935 360 926 b 411 913 379 921 406 915 b 443 876 425 904 433 889 m 1046 813 b 1065 829 1057 801 1075 817 b 1038 879 1056 846 1050 865 b 1025 890 1036 882 1026 889 b 994 938 1014 906 1007 924 b 953 960 983 950 968 957 b 871 956 925 964 897 961 b 874 932 853 951 856 932 b 921 932 881 933 915 933 b 967 913 938 929 957 925 b 1011 864 981 896 992 874 b 1035 824 1019 860 1029 832 b 1046 813 1036 822 1043 814 m 494 776 b 513 797 515 763 536 789 b 494 776 499 803 481 785 m 1076 774 b 1082 750 1053 769 1061 740 b 1076 774 1103 760 1099 778 "},"N":{"ha":1119,"x_min":0,"x_max":0,"o":"m 286 -24 b 82 15 238 -28 117 -18 b 51 189 33 60 53 131 b 50 222 51 200 50 211 b 50 438 49 294 47 365 b 78 782 53 553 63 668 b 103 883 82 817 86 853 b 144 917 113 899 126 911 b 233 918 172 925 204 922 b 340 883 269 913 307 901 b 467 776 389 857 429 817 b 618 589 521 718 569 653 b 713 461 633 569 701 485 b 724 693 725 511 724 654 b 724 949 721 778 708 864 b 751 1007 728 969 735 993 b 974 1042 793 1046 919 1054 b 1031 1019 994 1036 1015 1032 b 1069 911 1060 994 1067 950 b 1067 631 1075 818 1071 724 b 1044 219 1065 576 1051 274 b 1015 90 1038 175 1032 131 b 968 17 1006 63 990 35 b 711 33 906 -32 776 -11 b 607 138 671 60 638 99 b 379 435 576 175 457 336 b 390 329 382 399 386 364 b 403 111 397 257 407 185 b 378 19 401 79 396 44 b 286 -24 357 -8 319 -19 m 994 922 b 1024 928 1001 913 1021 917 b 1015 956 1026 935 1019 949 b 981 985 1006 967 994 979 b 913 1014 957 994 936 1011 b 856 1006 904 1015 864 1006 b 842 986 846 1004 836 994 b 876 981 847 979 868 981 b 924 968 885 981 917 971 b 975 949 942 961 961 960 b 994 922 985 943 989 932 m 1007 858 b 1032 869 1014 846 1036 856 b 1004 867 1040 889 1000 886 b 1007 858 1004 865 1007 860 m 421 703 b 443 717 432 699 443 706 b 424 738 443 722 428 733 b 399 768 415 747 408 760 b 374 786 392 776 382 781 b 349 807 369 789 353 804 b 206 874 308 840 258 871 b 171 860 194 874 175 872 b 197 843 168 847 185 847 b 289 804 229 835 256 808 b 344 769 301 804 335 776 b 375 750 354 763 367 758 b 399 721 379 747 394 725 b 421 703 401 718 417 704 m 456 642 b 482 640 450 625 475 624 b 481 660 492 646 492 657 b 456 642 468 665 458 654 "},"Ñ":{"ha":1119,"x_min":0,"x_max":0,"o":"m 286 -24 b 378 19 319 -19 357 -8 b 403 111 396 44 401 79 b 390 329 407 185 397 257 b 379 435 386 364 382 399 b 607 138 457 336 576 175 b 711 33 638 99 671 60 b 968 17 776 -11 906 -32 b 1015 90 990 35 1006 63 b 1044 219 1032 131 1038 175 b 1067 631 1051 274 1065 576 b 1069 911 1071 724 1075 818 b 1031 1019 1067 950 1060 994 b 974 1042 1015 1032 994 1036 b 751 1007 919 1054 793 1046 b 724 949 735 993 728 969 b 724 693 708 864 721 778 b 713 461 724 654 725 511 b 618 589 701 485 633 569 b 467 776 569 653 521 718 b 340 883 429 817 389 857 b 233 918 307 901 269 913 b 144 917 204 922 172 925 b 103 883 126 911 113 899 b 78 782 86 853 82 817 b 50 438 63 668 53 553 b 50 222 47 365 49 294 b 51 189 50 211 51 200 b 82 15 53 131 33 60 b 286 -24 117 -18 238 -28 m 994 922 b 975 949 989 932 985 943 b 924 968 961 960 942 961 b 876 981 917 971 885 981 b 842 986 868 981 847 979 b 856 1006 836 994 846 1004 b 913 1014 864 1006 904 1015 b 981 985 936 1011 957 994 b 1015 956 994 979 1006 967 b 1024 928 1019 949 1026 935 b 994 922 1021 917 1001 913 m 1007 858 b 1004 867 1007 860 1004 865 b 1032 869 1000 886 1040 889 b 1007 858 1036 856 1014 846 m 421 703 b 399 721 417 704 401 718 b 375 750 394 725 379 747 b 344 769 367 758 354 763 b 289 804 335 776 301 804 b 197 843 256 808 229 835 b 171 860 185 847 168 847 b 206 874 175 872 194 874 b 349 807 258 871 308 840 b 374 786 353 804 369 789 b 399 768 382 781 392 776 b 424 738 408 760 415 747 b 443 717 428 733 443 722 b 421 703 443 706 432 699 m 456 642 b 481 660 458 654 468 665 b 482 640 492 657 492 646 b 456 642 475 624 450 625 "},"O":{"ha":1210,"x_min":0,"x_max":0,"o":"m 790 -46 b 589 -68 725 -65 657 -69 b 314 -12 496 -68 399 -54 b 117 169 233 26 161 92 b 29 482 61 263 35 374 b 61 725 25 564 32 649 b 256 975 99 825 171 914 b 407 1046 301 1008 353 1036 b 432 1050 410 1046 421 1049 b 463 1057 446 1053 458 1056 b 694 1061 539 1072 618 1071 b 967 947 792 1050 890 1010 b 1143 693 1046 882 1110 792 b 1144 689 1143 692 1144 690 b 1179 388 1182 594 1193 488 b 1093 165 1168 308 1140 229 b 790 -46 1019 67 908 -11 m 943 814 b 993 818 958 797 992 794 b 924 897 994 847 950 883 b 897 907 915 901 907 906 b 844 940 878 911 863 929 b 815 954 842 942 819 951 b 785 975 806 960 796 969 b 667 992 749 992 706 989 b 614 979 646 994 615 1000 b 628 964 614 972 622 967 b 782 929 676 943 736 954 b 822 914 794 922 810 921 b 860 888 836 908 847 897 b 889 875 868 881 881 881 b 936 825 899 868 931 836 b 943 814 939 822 940 818 m 994 743 b 1017 733 990 731 1007 726 b 1022 738 1018 735 1019 738 b 1031 757 1032 739 1038 751 b 994 743 1021 765 997 756 m 407 440 b 688 315 447 335 579 282 b 768 363 717 324 746 340 b 804 664 835 432 854 581 b 693 742 781 701 736 729 b 458 703 617 763 522 750 b 432 668 447 693 439 681 b 407 440 396 600 379 511 "},"Ò":{"ha":1210,"x_min":0,"x_max":0,"o":"m 790 -46 b 1093 165 908 -11 1019 67 b 1179 388 1140 229 1168 308 b 1144 689 1193 488 1182 594 b 1143 693 1144 690 1143 692 b 967 947 1110 792 1046 882 b 694 1061 890 1010 792 1050 b 463 1057 618 1071 539 1072 b 432 1050 458 1056 446 1053 b 407 1046 421 1049 410 1046 b 256 975 353 1036 301 1008 b 61 725 171 914 99 825 b 29 482 32 649 25 564 b 117 169 35 374 61 263 b 314 -12 161 92 233 26 b 589 -68 399 -54 496 -68 b 790 -46 657 -69 725 -65 m 943 814 b 936 825 940 818 939 822 b 889 875 931 836 899 868 b 860 888 881 881 868 881 b 822 914 847 897 836 908 b 782 929 810 921 794 922 b 628 964 736 954 676 943 b 614 979 622 967 614 972 b 667 992 615 1000 646 994 b 785 975 706 989 749 992 b 815 954 796 969 806 960 b 844 940 819 951 842 942 b 897 907 863 929 878 911 b 924 897 907 906 915 901 b 993 818 950 883 994 847 b 943 814 992 794 958 797 m 994 743 b 1031 757 997 756 1021 765 b 1022 738 1038 751 1032 739 b 1017 733 1019 738 1018 735 b 994 743 1007 726 990 731 m 407 440 b 432 668 379 511 396 600 b 458 703 439 681 447 693 b 693 742 522 750 617 763 b 804 664 736 729 781 701 b 768 363 854 581 835 432 b 688 315 746 340 717 324 b 407 440 579 282 447 335 "},"Ó":{"ha":1210,"x_min":0,"x_max":0,"o":"m 790 -46 b 589 -68 725 -65 657 -69 b 314 -12 496 -68 399 -54 b 117 169 233 26 161 92 b 29 482 61 263 35 374 b 61 725 25 564 32 649 b 256 975 99 825 171 914 b 407 1046 301 1008 353 1036 b 432 1050 410 1046 421 1049 b 463 1057 446 1053 458 1056 b 694 1061 539 1072 618 1071 b 967 947 792 1050 890 1010 b 1143 693 1046 882 1110 792 b 1144 689 1143 692 1144 690 b 1179 388 1182 594 1193 488 b 1093 165 1168 308 1140 229 b 790 -46 1019 67 908 -11 m 943 814 b 993 818 958 797 992 794 b 924 897 994 847 950 883 b 897 907 915 901 907 906 b 844 940 878 911 863 929 b 815 954 842 942 819 951 b 785 975 806 960 796 969 b 667 992 749 992 706 989 b 614 979 646 994 615 1000 b 628 964 614 972 622 967 b 782 929 676 943 736 954 b 822 914 794 922 810 921 b 860 888 836 908 847 897 b 889 875 868 881 881 881 b 936 825 899 868 931 836 b 943 814 939 822 940 818 m 994 743 b 1017 733 990 731 1007 726 b 1022 738 1018 735 1019 738 b 1031 757 1032 739 1038 751 b 994 743 1021 765 997 756 m 407 440 b 688 315 447 335 579 282 b 768 363 717 324 746 340 b 804 664 835 432 854 581 b 693 742 781 701 736 729 b 458 703 617 763 522 750 b 432 668 447 693 439 681 b 407 440 396 600 379 511 "},"Ô":{"ha":1210,"x_min":0,"x_max":0,"o":"m 790 -46 b 1093 165 908 -11 1019 67 b 1179 388 1140 229 1168 308 b 1144 689 1193 488 1182 594 b 1143 693 1144 690 1143 692 b 967 947 1110 792 1046 882 b 694 1061 890 1010 792 1050 b 463 1057 618 1071 539 1072 b 432 1050 458 1056 446 1053 b 407 1046 421 1049 410 1046 b 256 975 353 1036 301 1008 b 61 725 171 914 99 825 b 29 482 32 649 25 564 b 117 169 35 374 61 263 b 314 -12 161 92 233 26 b 589 -68 399 -54 496 -68 b 790 -46 657 -69 725 -65 m 943 814 b 936 825 940 818 939 822 b 889 875 931 836 899 868 b 860 888 881 881 868 881 b 822 914 847 897 836 908 b 782 929 810 921 794 922 b 628 964 736 954 676 943 b 614 979 622 967 614 972 b 667 992 615 1000 646 994 b 785 975 706 989 749 992 b 815 954 796 969 806 960 b 844 940 819 951 842 942 b 897 907 863 929 878 911 b 924 897 907 906 915 901 b 993 818 950 883 994 847 b 943 814 992 794 958 797 m 994 743 b 1031 757 997 756 1021 765 b 1022 738 1038 751 1032 739 b 1017 733 1019 738 1018 735 b 994 743 1007 726 990 731 m 407 440 b 432 668 379 511 396 600 b 458 703 439 681 447 693 b 693 742 522 750 617 763 b 804 664 736 729 781 701 b 768 363 854 581 835 432 b 688 315 746 340 717 324 b 407 440 579 282 447 335 "},"Õ":{"ha":1210,"x_min":0,"x_max":0,"o":"m 790 -46 b 589 -68 725 -65 657 -69 b 314 -12 496 -68 399 -54 b 117 169 233 26 161 92 b 29 482 61 263 35 374 b 61 725 25 564 32 649 b 256 975 99 825 171 914 b 407 1046 301 1008 353 1036 b 432 1050 410 1046 421 1049 b 463 1057 446 1053 458 1056 b 694 1061 539 1072 618 1071 b 967 947 792 1050 890 1010 b 1143 693 1046 882 1110 792 b 1144 689 1143 692 1144 690 b 1179 388 1182 594 1193 488 b 1093 165 1168 308 1140 229 b 790 -46 1019 67 908 -11 m 943 814 b 993 818 958 797 992 794 b 924 897 994 847 950 883 b 897 907 915 901 907 906 b 844 940 878 911 863 929 b 815 954 842 942 819 951 b 785 975 806 960 796 969 b 667 992 749 992 706 989 b 614 979 646 994 615 1000 b 628 964 614 972 622 967 b 782 929 676 943 736 954 b 822 914 794 922 810 921 b 860 888 836 908 847 897 b 889 875 868 881 881 881 b 936 825 899 868 931 836 b 943 814 939 822 940 818 m 994 743 b 1017 733 990 731 1007 726 b 1022 738 1018 735 1019 738 b 1031 757 1032 739 1038 751 b 994 743 1021 765 997 756 m 407 440 b 688 315 447 335 579 282 b 768 363 717 324 746 340 b 804 664 835 432 854 581 b 693 742 781 701 736 729 b 458 703 617 763 522 750 b 432 668 447 693 439 681 b 407 440 396 600 379 511 "},"Ö":{"ha":1210,"x_min":0,"x_max":0,"o":"m 790 -46 b 1093 165 908 -11 1019 67 b 1179 388 1140 229 1168 308 b 1144 689 1193 488 1182 594 b 1143 693 1144 690 1143 692 b 967 947 1110 792 1046 882 b 694 1061 890 1010 792 1050 b 463 1057 618 1071 539 1072 b 432 1050 458 1056 446 1053 b 407 1046 421 1049 410 1046 b 256 975 353 1036 301 1008 b 61 725 171 914 99 825 b 29 482 32 649 25 564 b 117 169 35 374 61 263 b 314 -12 161 92 233 26 b 589 -68 399 -54 496 -68 b 790 -46 657 -69 725 -65 m 943 814 b 936 825 940 818 939 822 b 889 875 931 836 899 868 b 860 888 881 881 868 881 b 822 914 847 897 836 908 b 782 929 810 921 794 922 b 628 964 736 954 676 943 b 614 979 622 967 614 972 b 667 992 615 1000 646 994 b 785 975 706 989 749 992 b 815 954 796 969 806 960 b 844 940 819 951 842 942 b 897 907 863 929 878 911 b 924 897 907 906 915 901 b 993 818 950 883 994 847 b 943 814 992 794 958 797 m 994 743 b 1031 757 997 756 1021 765 b 1022 738 1038 751 1032 739 b 1017 733 1019 738 1018 735 b 994 743 1007 726 990 731 m 407 440 b 432 668 379 511 396 600 b 458 703 439 681 447 693 b 693 742 522 750 617 763 b 804 664 736 729 781 701 b 768 363 854 581 835 432 b 688 315 746 340 717 324 b 407 440 579 282 447 335 "},"Ø":{"ha":1210,"x_min":0,"x_max":0,"o":"m 790 -46 b 589 -68 725 -65 657 -69 b 314 -12 496 -68 399 -54 b 117 169 233 26 161 92 b 29 482 61 263 35 374 b 61 725 25 564 32 649 b 256 975 99 825 171 914 b 407 1046 301 1008 353 1036 b 432 1050 410 1046 421 1049 b 463 1057 446 1053 458 1056 b 694 1061 539 1072 618 1071 b 967 947 792 1050 890 1010 b 1143 693 1046 882 1110 792 b 1144 689 1143 692 1144 690 b 1179 388 1182 594 1193 488 b 1093 165 1168 308 1140 229 b 790 -46 1019 67 908 -11 m 943 814 b 993 818 958 797 992 794 b 924 897 994 847 950 883 b 897 907 915 901 907 906 b 844 940 878 911 863 929 b 815 954 842 942 819 951 b 785 975 806 960 796 969 b 667 992 749 992 706 989 b 614 979 646 994 615 1000 b 628 964 614 972 622 967 b 782 929 676 943 736 954 b 822 914 794 922 810 921 b 860 888 836 908 847 897 b 889 875 868 881 881 881 b 936 825 899 868 931 836 b 943 814 939 822 940 818 m 994 743 b 1017 733 990 731 1007 726 b 1022 738 1018 735 1019 738 b 1031 757 1032 739 1038 751 b 994 743 1021 765 997 756 m 407 440 b 688 315 447 335 579 282 b 768 363 717 324 746 340 b 804 664 835 432 854 581 b 693 742 781 701 736 729 b 458 703 617 763 522 750 b 432 668 447 693 439 681 b 407 440 396 600 379 511 "},"P":{"ha":1131,"x_min":0,"x_max":0,"o":"m 344 -58 b 218 -53 303 -64 258 -67 b 154 -14 194 -44 171 -32 b 129 36 142 0 135 18 b 115 172 125 54 117 153 b 104 567 106 303 101 435 b 115 704 106 613 107 660 b 101 706 110 704 104 704 b 49 724 83 706 61 711 b 22 851 31 744 24 824 b 49 989 21 899 26 949 b 117 1050 63 1017 86 1044 b 700 1074 303 1083 521 1100 b 1086 536 1046 1022 1189 790 b 894 346 1053 454 976 385 b 703 297 835 318 768 303 b 594 296 667 294 629 292 b 514 313 567 299 539 301 b 506 317 511 313 508 314 b 517 239 510 290 513 264 b 531 96 524 192 531 143 b 515 25 531 72 528 46 b 467 -24 506 4 488 -12 b 344 -58 429 -43 386 -51 m 888 908 b 917 932 903 904 921 917 b 904 944 915 936 907 942 b 867 968 899 949 874 965 b 835 978 856 972 844 974 b 792 1000 819 983 806 992 b 699 1024 764 1015 731 1022 b 683 1028 696 1024 686 1028 b 592 1031 667 1033 608 1035 b 578 1001 575 1028 565 1011 b 649 989 586 996 639 994 b 688 976 660 983 674 976 b 786 964 721 978 757 979 b 846 938 796 960 839 944 b 888 908 853 931 878 911 m 939 853 b 975 872 954 844 978 854 b 946 881 972 883 958 885 b 939 853 933 876 926 860 m 479 557 b 651 564 536 551 594 554 b 738 597 681 571 714 578 b 740 721 772 628 774 692 b 660 753 718 740 688 749 b 472 751 597 761 535 756 b 474 747 472 750 474 749 b 474 656 475 735 474 668 b 479 557 475 622 476 590 "},"Q":{"ha":1210,"x_min":0,"x_max":0,"o":"m 1046 -156 b 886 -226 1006 -197 944 -226 b 825 -200 864 -225 842 -217 b 769 -111 800 -176 783 -143 b 747 -57 765 -101 757 -82 b 589 -68 696 -67 642 -69 b 314 -12 496 -68 399 -54 b 117 169 233 26 161 92 b 29 482 61 263 35 374 b 61 725 25 564 32 649 b 256 975 99 825 171 914 b 407 1046 301 1008 353 1036 b 432 1050 410 1046 421 1049 b 463 1057 446 1053 458 1056 b 694 1061 539 1072 618 1071 b 967 947 792 1050 890 1010 b 1143 693 1046 882 1110 792 b 1144 689 1143 692 1144 690 b 1179 388 1182 594 1193 488 b 1093 165 1168 308 1140 229 b 1010 76 1069 133 1040 103 b 1053 7 1024 53 1039 31 b 1085 -71 1067 -17 1082 -43 b 1046 -156 1088 -101 1067 -133 m 928 864 b 958 888 946 857 967 871 b 881 938 950 904 897 929 b 818 960 871 942 828 958 b 797 964 815 961 800 963 b 756 992 782 971 769 982 b 703 1010 740 1001 721 1007 b 632 1000 690 1011 643 1004 b 614 974 619 996 604 983 b 639 971 618 969 633 971 b 665 972 642 971 661 972 b 729 953 676 971 719 958 b 758 943 739 947 749 946 b 781 933 767 940 774 935 b 814 931 786 933 808 932 b 886 896 839 922 865 913 b 928 864 893 890 919 867 m 985 807 b 996 833 999 799 1017 828 b 985 807 976 839 961 821 m 407 440 b 603 306 438 363 518 313 b 550 525 575 361 526 475 b 611 574 563 549 588 563 b 676 586 631 582 654 592 b 754 494 704 581 739 518 b 801 413 771 468 786 440 b 804 664 840 489 844 597 b 693 742 781 701 736 729 b 458 703 617 763 522 750 b 432 668 447 693 439 681 b 407 440 396 600 379 511 "},"R":{"ha":1160,"x_min":0,"x_max":0,"o":"m 449 6 b 236 -6 410 -21 282 -14 b 144 51 200 1 163 21 b 132 157 128 82 131 121 b 140 633 135 315 150 475 b 139 672 140 646 139 660 b 94 660 121 665 103 660 b 61 679 82 661 69 669 b 31 742 46 697 38 719 b 14 872 17 783 14 828 b 29 936 14 894 15 919 b 82 975 43 954 63 965 b 165 1007 108 988 136 999 b 592 1082 301 1053 447 1086 b 888 1029 693 1079 797 1069 b 1058 907 953 1000 1017 961 b 1125 771 1090 867 1113 819 b 1111 576 1140 707 1135 636 b 1051 481 1097 542 1076 510 b 993 428 1035 461 1017 442 b 864 379 954 404 910 390 b 931 336 886 365 908 351 b 1069 215 981 301 1031 263 b 1096 150 1085 197 1099 174 b 928 -10 1090 75 1004 0 b 878 -6 911 -12 893 -11 b 792 57 844 6 817 32 b 690 163 756 90 724 128 b 514 321 636 219 576 272 b 511 318 513 319 513 319 b 514 293 513 310 513 301 b 486 54 521 214 518 128 b 449 6 478 36 467 18 m 926 883 b 950 875 933 879 942 875 b 967 897 961 876 972 886 b 926 938 963 906 933 932 b 863 969 908 953 883 958 b 801 996 843 979 821 983 b 678 1024 765 1017 721 1021 b 615 1015 668 1024 625 1018 b 603 990 601 1015 592 1000 b 661 985 610 985 651 989 b 701 978 674 979 689 982 b 744 971 715 974 729 969 b 775 969 754 972 765 974 b 836 947 783 967 829 951 b 893 914 857 939 875 928 b 926 883 904 906 913 892 m 988 836 b 1014 838 981 818 1013 818 b 988 836 1017 853 992 850 m 496 521 b 672 563 557 517 625 526 b 715 715 715 596 740 668 b 647 774 701 740 675 761 b 578 788 625 782 601 786 b 485 786 547 789 515 792 b 475 785 483 786 479 786 b 476 775 476 781 476 776 b 486 643 481 731 483 688 b 494 546 492 610 493 561 b 496 521 494 538 496 529 "},"S":{"ha":1085,"x_min":0,"x_max":0,"o":"m 878 40 b 282 -43 696 -65 482 -64 b 69 19 233 -37 101 -15 b 51 94 53 40 51 69 b 81 233 53 132 64 200 b 124 285 92 253 104 274 b 267 299 165 311 189 314 b 518 281 340 283 444 269 b 493 365 608 294 599 386 b 81 428 360 339 171 307 b 146 879 -18 558 43 763 b 211 940 165 903 186 924 b 489 1047 293 996 390 1031 b 717 1049 564 1060 640 1056 b 939 1000 792 1042 868 1029 b 1028 946 971 986 1006 972 b 1057 858 1050 922 1060 890 b 1003 739 1053 815 1032 772 b 914 664 978 710 951 678 b 867 658 899 658 882 657 b 569 725 826 664 610 722 b 544 569 417 731 339 568 b 744 569 617 569 672 564 b 899 556 796 572 850 572 b 967 515 924 547 949 535 b 999 468 981 501 990 485 b 1033 269 1025 406 1038 338 b 1001 154 1029 231 1022 189 b 878 40 974 107 928 69 m 840 949 b 863 964 853 940 871 951 b 833 981 858 971 840 979 b 769 988 825 982 778 985 b 753 997 763 989 758 994 b 711 1008 747 1000 717 1007 b 596 1007 693 1013 614 1007 b 582 974 576 1006 564 983 b 699 972 600 964 678 974 b 729 972 703 972 725 974 b 747 963 732 972 744 964 b 814 951 757 958 804 951 b 840 949 822 950 832 947 m 894 940 b 906 924 890 932 896 924 b 925 947 918 925 932 936 b 894 940 918 958 900 953 m 893 464 b 928 469 904 453 924 453 b 903 503 931 483 915 497 b 818 524 890 508 832 522 b 744 521 794 528 768 525 b 708 522 739 521 714 522 b 642 515 686 524 664 519 b 629 494 632 514 624 503 b 678 488 638 485 665 488 b 740 486 699 488 719 485 b 771 494 750 488 761 493 b 846 483 796 496 821 489 b 893 464 861 478 881 476 m 936 404 b 946 429 950 396 971 435 b 936 404 931 428 917 415 "},"T":{"ha":1032,"x_min":0,"x_max":0,"o":"m 538 -47 b 346 -15 493 -51 379 -44 b 325 44 331 0 326 24 b 338 207 324 68 335 185 b 358 678 354 364 364 521 b 354 733 358 696 357 715 b 310 722 339 728 318 725 b 97 690 271 714 135 681 b 40 731 75 697 54 713 b 14 800 24 750 17 775 b 19 1001 6 847 -12 965 b 174 1054 42 1026 140 1049 b 429 1079 258 1069 344 1074 b 735 1086 531 1086 633 1096 b 892 1065 754 1085 871 1068 b 978 1033 922 1060 953 1051 b 1018 986 994 1022 1010 1006 b 1032 885 1032 954 1033 918 b 1003 779 1029 849 1024 810 b 933 733 988 756 961 740 b 799 722 890 724 844 722 b 718 721 788 722 740 721 b 738 585 725 675 732 629 b 749 426 744 532 746 479 b 719 22 751 344 767 90 b 639 -26 701 -3 668 -17 b 538 -47 606 -37 571 -44 m 833 990 b 860 999 840 978 861 985 b 849 1019 860 1006 857 1015 b 782 1032 839 1024 792 1031 b 750 1039 778 1033 754 1039 b 703 1038 735 1039 718 1036 b 672 1040 693 1038 682 1039 b 592 1036 646 1047 618 1043 b 558 1031 581 1033 568 1036 b 551 1011 551 1026 547 1018 b 569 1004 556 1006 563 1004 b 644 1000 594 1001 619 1001 b 664 997 647 1000 661 997 b 707 999 671 996 700 997 b 732 1006 711 1000 729 1006 b 833 990 747 1007 818 993 m 899 971 b 921 963 892 958 911 951 b 926 971 922 965 925 968 b 907 983 936 983 919 994 b 899 971 906 982 900 974 "},"U":{"ha":1068,"x_min":0,"x_max":0,"o":"m 697 7 b 439 -7 615 -21 524 -21 b 268 61 379 4 319 29 b 90 272 192 111 129 189 b 33 565 49 363 35 465 b 81 922 32 685 49 807 b 122 1019 90 957 100 992 b 150 1043 128 1025 143 1042 b 215 1085 167 1063 190 1078 b 414 1046 265 1099 375 1081 b 442 990 429 1032 439 1011 b 429 858 447 946 438 901 b 389 615 411 778 392 697 b 411 457 388 563 389 506 b 463 400 422 435 439 410 b 599 461 510 382 572 418 b 638 578 619 496 631 538 b 636 864 653 672 643 768 b 638 993 633 907 628 951 b 678 1049 643 1015 658 1038 b 808 1069 717 1069 764 1072 b 925 1042 849 1067 890 1060 b 978 992 947 1032 965 1013 b 1017 857 1001 951 1010 903 b 1033 608 1031 775 1036 690 b 1001 382 1031 532 1022 456 b 874 126 976 290 935 199 b 697 7 828 72 764 31 m 358 974 b 390 981 368 963 389 965 b 376 1006 390 986 381 1000 b 344 1031 367 1015 358 1026 b 306 1040 332 1033 318 1036 b 247 1043 288 1047 267 1047 b 218 1036 243 1042 222 1036 b 214 1006 199 1033 194 1008 b 278 1001 235 1004 258 1011 b 319 996 290 994 306 994 b 349 982 331 997 340 989 b 358 974 351 979 356 978 m 925 903 b 949 919 939 893 958 907 b 928 956 947 928 933 950 b 879 1006 913 972 900 994 b 842 1018 875 1010 849 1017 b 782 1021 822 1022 801 1022 b 715 1010 760 1021 736 1018 b 711 986 706 1006 701 993 b 746 985 721 981 733 983 b 847 978 779 988 814 983 b 890 946 865 976 874 953 b 925 903 899 943 918 907 m 369 911 b 396 922 381 901 394 910 b 369 911 400 944 358 922 m 947 831 b 965 856 964 824 981 849 b 947 831 947 864 929 836 "},"Ù":{"ha":1068,"x_min":0,"x_max":0,"o":"m 697 7 b 874 126 764 31 828 72 b 1001 382 935 199 976 290 b 1033 608 1022 456 1031 532 b 1017 857 1036 690 1031 775 b 978 992 1010 903 1001 951 b 925 1042 965 1013 947 1032 b 808 1069 890 1060 849 1067 b 678 1049 764 1072 717 1069 b 638 993 658 1038 643 1015 b 636 864 628 951 633 907 b 638 578 643 768 653 672 b 599 461 631 538 619 496 b 463 400 572 418 510 382 b 411 457 439 410 422 435 b 389 615 389 506 388 563 b 429 858 392 697 411 778 b 442 990 438 901 447 946 b 414 1046 439 1011 429 1032 b 215 1085 375 1081 265 1099 b 150 1043 190 1078 167 1063 b 122 1019 143 1042 128 1025 b 81 922 100 992 90 957 b 33 565 49 807 32 685 b 90 272 35 465 49 363 b 268 61 129 189 192 111 b 439 -7 319 29 379 4 b 697 7 524 -21 615 -21 m 358 974 b 349 982 356 978 351 979 b 319 996 340 989 331 997 b 278 1001 306 994 290 994 b 214 1006 258 1011 235 1004 b 218 1036 194 1008 199 1033 b 247 1043 222 1036 243 1042 b 306 1040 267 1047 288 1047 b 344 1031 318 1036 332 1033 b 376 1006 358 1026 367 1015 b 390 981 381 1000 390 986 b 358 974 389 965 368 963 m 925 903 b 890 946 918 907 899 943 b 847 978 874 953 865 976 b 746 985 814 983 779 988 b 711 986 733 983 721 981 b 715 1010 701 993 706 1006 b 782 1021 736 1018 760 1021 b 842 1018 801 1022 822 1022 b 879 1006 849 1017 875 1010 b 928 956 900 994 913 972 b 949 919 933 950 947 928 b 925 903 958 907 939 893 m 369 911 b 396 922 358 922 400 944 b 369 911 394 910 381 901 m 947 831 b 965 856 929 836 947 864 b 947 831 981 849 964 824 "},"Ú":{"ha":1068,"x_min":0,"x_max":0,"o":"m 697 7 b 439 -7 615 -21 524 -21 b 268 61 379 4 319 29 b 90 272 192 111 129 189 b 33 565 49 363 35 465 b 81 922 32 685 49 807 b 122 1019 90 957 100 992 b 150 1043 128 1025 143 1042 b 215 1085 167 1063 190 1078 b 414 1046 265 1099 375 1081 b 442 990 429 1032 439 1011 b 429 858 447 946 438 901 b 389 615 411 778 392 697 b 411 457 388 563 389 506 b 463 400 422 435 439 410 b 599 461 510 382 572 418 b 638 578 619 496 631 538 b 636 864 653 672 643 768 b 638 993 633 907 628 951 b 678 1049 643 1015 658 1038 b 808 1069 717 1069 764 1072 b 925 1042 849 1067 890 1060 b 978 992 947 1032 965 1013 b 1017 857 1001 951 1010 903 b 1033 608 1031 775 1036 690 b 1001 382 1031 532 1022 456 b 874 126 976 290 935 199 b 697 7 828 72 764 31 m 358 974 b 390 981 368 963 389 965 b 376 1006 390 986 381 1000 b 344 1031 367 1015 358 1026 b 306 1040 332 1033 318 1036 b 247 1043 288 1047 267 1047 b 218 1036 243 1042 222 1036 b 214 1006 199 1033 194 1008 b 278 1001 235 1004 258 1011 b 319 996 290 994 306 994 b 349 982 331 997 340 989 b 358 974 351 979 356 978 m 925 903 b 949 919 939 893 958 907 b 928 956 947 928 933 950 b 879 1006 913 972 900 994 b 842 1018 875 1010 849 1017 b 782 1021 822 1022 801 1022 b 715 1010 760 1021 736 1018 b 711 986 706 1006 701 993 b 746 985 721 981 733 983 b 847 978 779 988 814 983 b 890 946 865 976 874 953 b 925 903 899 943 918 907 m 369 911 b 396 922 381 901 394 910 b 369 911 400 944 358 922 m 947 831 b 965 856 964 824 981 849 b 947 831 947 864 929 836 "},"Û":{"ha":1068,"x_min":0,"x_max":0,"o":"m 697 7 b 874 126 764 31 828 72 b 1001 382 935 199 976 290 b 1033 608 1022 456 1031 532 b 1017 857 1036 690 1031 775 b 978 992 1010 903 1001 951 b 925 1042 965 1013 947 1032 b 808 1069 890 1060 849 1067 b 678 1049 764 1072 717 1069 b 638 993 658 1038 643 1015 b 636 864 628 951 633 907 b 638 578 643 768 653 672 b 599 461 631 538 619 496 b 463 400 572 418 510 382 b 411 457 439 410 422 435 b 389 615 389 506 388 563 b 429 858 392 697 411 778 b 442 990 438 901 447 946 b 414 1046 439 1011 429 1032 b 215 1085 375 1081 265 1099 b 150 1043 190 1078 167 1063 b 122 1019 143 1042 128 1025 b 81 922 100 992 90 957 b 33 565 49 807 32 685 b 90 272 35 465 49 363 b 268 61 129 189 192 111 b 439 -7 319 29 379 4 b 697 7 524 -21 615 -21 m 358 974 b 349 982 356 978 351 979 b 319 996 340 989 331 997 b 278 1001 306 994 290 994 b 214 1006 258 1011 235 1004 b 218 1036 194 1008 199 1033 b 247 1043 222 1036 243 1042 b 306 1040 267 1047 288 1047 b 344 1031 318 1036 332 1033 b 376 1006 358 1026 367 1015 b 390 981 381 1000 390 986 b 358 974 389 965 368 963 m 925 903 b 890 946 918 907 899 943 b 847 978 874 953 865 976 b 746 985 814 983 779 988 b 711 986 733 983 721 981 b 715 1010 701 993 706 1006 b 782 1021 736 1018 760 1021 b 842 1018 801 1022 822 1022 b 879 1006 849 1017 875 1010 b 928 956 900 994 913 972 b 949 919 933 950 947 928 b 925 903 958 907 939 893 m 369 911 b 396 922 358 922 400 944 b 369 911 394 910 381 901 m 947 831 b 965 856 929 836 947 864 b 947 831 981 849 964 824 "},"Ü":{"ha":1068,"x_min":0,"x_max":0,"o":"m 697 7 b 439 -7 615 -21 524 -21 b 268 61 379 4 319 29 b 90 272 192 111 129 189 b 33 565 49 363 35 465 b 81 922 32 685 49 807 b 122 1019 90 957 100 992 b 150 1043 128 1025 143 1042 b 215 1085 167 1063 190 1078 b 414 1046 265 1099 375 1081 b 442 990 429 1032 439 1011 b 429 858 447 946 438 901 b 389 615 411 778 392 697 b 411 457 388 563 389 506 b 463 400 422 435 439 410 b 599 461 510 382 572 418 b 638 578 619 496 631 538 b 636 864 653 672 643 768 b 638 993 633 907 628 951 b 678 1049 643 1015 658 1038 b 808 1069 717 1069 764 1072 b 925 1042 849 1067 890 1060 b 978 992 947 1032 965 1013 b 1017 857 1001 951 1010 903 b 1033 608 1031 775 1036 690 b 1001 382 1031 532 1022 456 b 874 126 976 290 935 199 b 697 7 828 72 764 31 m 358 974 b 390 981 368 963 389 965 b 376 1006 390 986 381 1000 b 344 1031 367 1015 358 1026 b 306 1040 332 1033 318 1036 b 247 1043 288 1047 267 1047 b 218 1036 243 1042 222 1036 b 214 1006 199 1033 194 1008 b 278 1001 235 1004 258 1011 b 319 996 290 994 306 994 b 349 982 331 997 340 989 b 358 974 351 979 356 978 m 925 903 b 949 919 939 893 958 907 b 928 956 947 928 933 950 b 879 1006 913 972 900 994 b 842 1018 875 1010 849 1017 b 782 1021 822 1022 801 1022 b 715 1010 760 1021 736 1018 b 711 986 706 1006 701 993 b 746 985 721 981 733 983 b 847 978 779 988 814 983 b 890 946 865 976 874 953 b 925 903 899 943 918 907 m 369 911 b 396 922 381 901 394 910 b 369 911 400 944 358 922 m 947 831 b 965 856 964 824 981 849 b 947 831 947 864 929 836 "},"V":{"ha":1136,"x_min":0,"x_max":0,"o":"m 571 -39 b 440 -7 525 -44 479 -33 b 263 239 357 49 301 146 b 89 657 204 378 154 521 b 24 793 68 701 43 747 b 11 958 3 844 -4 906 b 60 1015 19 985 35 1004 b 218 1057 110 1039 164 1051 b 324 1024 258 1063 293 1051 b 381 944 349 1003 367 974 b 521 585 401 899 503 632 b 579 438 529 565 556 499 b 589 464 582 446 585 456 b 700 806 632 575 669 690 b 740 943 713 851 724 899 b 789 1024 750 972 765 1003 b 871 1064 811 1044 842 1056 b 1039 1067 925 1079 985 1082 b 1117 1017 1068 1058 1097 1042 b 1136 935 1133 994 1139 963 b 1103 793 1132 886 1117 840 b 1007 569 1079 715 1043 642 b 965 490 993 543 979 517 b 894 342 942 440 918 390 b 746 67 850 247 808 149 b 571 -39 703 13 638 -32 m 968 974 b 1000 975 972 972 996 975 b 1013 996 1011 976 1019 989 b 990 1003 1007 1001 996 997 b 947 1018 983 1008 956 1017 b 856 997 915 1019 878 1019 b 867 974 846 989 853 976 b 903 978 872 972 897 978 b 968 974 925 981 946 976 m 90 924 b 113 933 100 921 110 924 b 119 936 113 935 117 936 b 133 938 124 939 128 939 b 171 947 146 938 160 940 b 200 951 179 951 190 951 b 225 964 210 942 229 950 b 210 979 222 971 215 975 b 157 976 194 988 172 985 b 126 972 147 972 136 974 b 78 946 108 967 92 958 b 90 924 68 936 76 922 m 260 963 b 276 949 250 951 265 940 b 292 972 286 956 297 964 b 263 969 286 981 268 978 b 260 963 261 968 261 965 m 1072 975 b 1063 951 1054 979 1043 953 b 1072 975 1079 951 1089 974 "},"W":{"ha":1350,"x_min":0,"x_max":0,"o":"m 393 -33 b 201 43 325 -42 243 -11 b 165 115 185 64 174 89 b 119 303 144 176 132 239 b 93 456 110 353 101 404 b 25 856 64 588 33 719 b 26 949 24 886 22 917 b 63 1003 31 971 42 989 b 178 1043 96 1025 138 1035 b 272 1043 208 1049 242 1051 b 321 1021 290 1039 307 1032 b 365 944 342 1001 357 972 b 386 836 375 910 381 872 b 439 538 401 736 417 636 b 449 492 440 532 444 511 b 458 513 453 499 456 506 b 564 721 489 585 521 657 b 800 708 624 808 743 803 b 903 501 840 643 872 572 b 965 846 929 614 949 731 b 989 960 971 885 976 922 b 1039 1033 999 988 1014 1015 b 1124 1056 1063 1050 1094 1056 b 1240 1033 1164 1056 1203 1044 b 1307 993 1265 1025 1290 1013 b 1325 950 1318 982 1324 965 b 1325 849 1329 917 1328 882 b 1260 468 1314 721 1286 594 b 1249 401 1256 446 1253 424 b 1189 132 1233 311 1217 219 b 1149 49 1181 103 1168 72 b 1031 -22 1117 13 1076 -12 b 908 -7 990 -32 943 -29 b 804 107 864 19 832 64 b 692 332 760 178 725 256 b 676 364 689 339 683 351 b 660 324 671 347 663 331 b 500 33 614 222 571 118 b 393 -33 472 1 435 -26 m 1222 954 b 1243 972 1233 947 1251 961 b 1182 1004 1235 982 1193 999 b 1146 1014 1175 1007 1153 1014 b 1096 997 1128 1013 1111 1006 b 1101 971 1082 989 1085 969 b 1129 975 1111 971 1119 974 b 1179 968 1143 965 1163 968 b 1222 954 1194 968 1210 963 m 103 936 b 129 936 110 931 121 932 b 157 943 135 939 151 946 b 199 949 171 938 188 942 b 226 951 207 953 217 951 b 254 949 236 953 246 954 b 275 954 261 944 271 947 b 265 976 281 963 275 974 b 204 986 246 983 222 975 b 144 982 186 996 163 989 b 103 936 118 974 82 951 m 1267 942 b 1294 944 1265 922 1290 928 b 1267 942 1299 963 1268 956 m 300 931 b 314 914 286 921 300 904 b 325 921 315 915 324 921 b 310 938 339 932 324 949 b 300 931 308 938 301 932 m 721 685 b 746 689 728 675 742 679 b 714 724 751 704 728 715 b 667 740 699 732 683 740 b 619 724 650 740 632 735 b 635 697 597 707 610 688 b 650 703 638 699 647 703 b 704 692 668 703 686 699 b 721 685 707 690 719 688 m 758 660 b 786 656 754 642 783 640 b 758 660 790 676 764 676 "},"X":{"ha":1044,"x_min":0,"x_max":0,"o":"m 806 -33 b 704 -15 771 -40 733 -33 b 613 90 665 10 638 51 b 514 238 582 140 549 189 b 406 97 476 192 440 146 b 306 0 378 60 347 22 b 204 -12 275 -17 238 -21 b 76 69 156 1 113 33 b 19 176 49 99 19 136 b 29 217 19 190 24 204 b 124 354 54 267 90 311 b 268 532 171 415 218 475 b 261 540 265 535 264 538 b 85 729 201 603 139 663 b 49 790 69 749 56 768 b 50 850 43 810 44 831 b 136 979 64 900 99 944 b 238 1042 165 1006 200 1029 b 508 858 331 1071 447 935 b 535 824 513 851 522 839 b 564 856 549 839 558 850 b 847 1019 631 928 757 1056 b 943 950 885 1006 917 979 b 1021 815 979 913 1010 865 b 1018 756 1025 796 1025 774 b 978 697 1010 733 993 715 b 789 521 919 635 851 579 b 781 514 786 519 783 517 b 911 326 826 454 869 390 b 996 183 942 281 975 235 b 1003 140 1001 169 1004 156 b 938 39 1000 100 968 65 b 806 -33 900 6 854 -24 m 129 894 b 153 890 131 883 146 882 b 192 915 163 901 181 904 b 221 954 203 926 208 943 b 247 963 228 960 238 963 b 260 986 261 964 271 979 b 225 985 253 992 232 986 b 172 956 214 982 181 963 b 153 932 165 949 160 939 b 129 894 144 925 129 904 m 294 972 b 319 956 278 953 303 939 b 294 972 336 974 310 990 m 908 876 b 933 888 915 867 936 875 b 910 913 931 899 919 906 b 890 933 901 918 897 928 b 869 943 883 939 876 940 b 833 971 865 946 838 968 b 793 975 821 976 806 976 b 749 956 781 974 754 967 b 763 939 743 946 751 935 b 813 935 779 938 799 944 b 843 918 817 932 838 919 b 867 911 850 914 860 915 b 888 893 869 910 885 894 b 908 876 896 888 903 883 m 933 840 b 968 846 933 822 965 828 b 933 840 972 868 935 863 "},"Y":{"ha":964,"x_min":0,"x_max":0,"o":"m 622 -18 b 374 -35 576 -53 431 -46 b 311 -6 351 -31 328 -22 b 281 56 294 10 286 33 b 275 228 269 113 272 171 b 285 393 275 249 282 360 b 239 438 269 404 247 429 b 50 750 158 528 100 639 b 7 871 32 789 17 829 b 1 938 1 892 -3 915 b 22 978 4 953 11 967 b 85 1021 39 997 61 1010 b 306 1060 133 1046 257 1085 b 342 1021 321 1051 333 1038 b 435 788 357 992 422 818 b 479 681 440 774 467 715 b 488 692 483 685 485 689 b 625 900 532 763 572 836 b 753 1010 660 944 701 986 b 826 1015 775 1019 803 1024 b 897 961 854 1007 878 985 b 960 861 922 932 946 899 b 957 796 968 842 967 815 b 888 717 942 764 913 742 b 733 531 832 658 781 596 b 635 356 694 476 657 419 b 632 349 633 353 633 351 b 649 154 636 283 642 218 b 653 47 653 118 656 82 b 622 -18 651 24 640 -3 m 89 949 b 161 965 101 935 142 964 b 208 975 176 965 194 967 b 243 983 214 978 236 983 b 257 981 244 983 256 981 b 269 981 261 981 265 981 b 285 1003 282 978 292 992 b 264 1011 281 1008 271 1007 b 193 1006 244 1024 214 1018 b 149 994 181 997 164 997 b 104 975 142 992 110 979 b 89 949 93 969 82 958 m 868 890 b 894 904 881 886 897 892 b 851 944 890 915 860 938 b 793 975 836 960 815 969 b 747 965 778 979 761 974 b 707 939 735 960 708 951 b 769 938 706 914 744 939 b 778 933 771 938 776 933 b 826 922 793 926 813 932 b 836 914 829 919 832 917 b 851 906 842 913 847 910 b 868 890 857 900 861 893 m 293 957 b 317 943 282 942 306 926 b 293 957 329 960 306 975 m 894 867 b 901 846 883 858 889 844 b 917 868 914 847 925 860 b 894 867 911 874 901 871 "},"Ý":{"ha":964,"x_min":0,"x_max":0,"o":"m 622 -18 b 653 47 640 -3 651 24 b 649 154 656 82 653 118 b 632 349 642 218 636 283 b 635 356 633 351 633 353 b 733 531 657 419 694 476 b 888 717 781 596 832 658 b 957 796 913 742 942 764 b 960 861 967 815 968 842 b 897 961 946 899 922 932 b 826 1015 878 985 854 1007 b 753 1010 803 1024 775 1019 b 625 900 701 986 660 944 b 488 692 572 836 532 763 b 479 681 485 689 483 685 b 435 788 467 715 440 774 b 342 1021 422 818 357 992 b 306 1060 333 1038 321 1051 b 85 1021 257 1085 133 1046 b 22 978 61 1010 39 997 b 1 938 11 967 4 953 b 7 871 -3 915 1 892 b 50 750 17 829 32 789 b 239 438 100 639 158 528 b 285 393 247 429 269 404 b 275 228 282 360 275 249 b 281 56 272 171 269 113 b 311 -6 286 33 294 10 b 374 -35 328 -22 351 -31 b 622 -18 431 -46 576 -53 m 89 949 b 104 975 82 958 93 969 b 149 994 110 979 142 992 b 193 1006 164 997 181 997 b 264 1011 214 1018 244 1024 b 285 1003 271 1007 281 1008 b 269 981 292 992 282 978 b 257 981 265 981 261 981 b 243 983 256 981 244 983 b 208 975 236 983 214 978 b 161 965 194 967 176 965 b 89 949 142 964 101 935 m 868 890 b 851 906 861 893 857 900 b 836 914 847 910 842 913 b 826 922 832 917 829 919 b 778 933 813 932 793 926 b 769 938 776 933 771 938 b 707 939 744 939 706 914 b 747 965 708 951 735 960 b 793 975 761 974 778 979 b 851 944 815 969 836 960 b 894 904 860 938 890 915 b 868 890 897 892 881 886 m 293 957 b 317 943 306 975 329 960 b 293 957 306 926 282 942 m 894 867 b 917 868 901 871 911 874 b 901 846 925 860 914 847 b 894 867 889 844 883 858 "},"Ÿ":{"ha":964,"x_min":0,"x_max":0,"o":"m 622 -18 b 374 -35 576 -53 431 -46 b 311 -6 351 -31 328 -22 b 281 56 294 10 286 33 b 275 228 269 113 272 171 b 285 393 275 249 282 360 b 239 438 269 404 247 429 b 50 750 158 528 100 639 b 7 871 32 789 17 829 b 1 938 1 892 -3 915 b 22 978 4 953 11 967 b 85 1021 39 997 61 1010 b 306 1060 133 1046 257 1085 b 342 1021 321 1051 333 1038 b 435 788 357 992 422 818 b 479 681 440 774 467 715 b 488 692 483 685 485 689 b 625 900 532 763 572 836 b 753 1010 660 944 701 986 b 826 1015 775 1019 803 1024 b 897 961 854 1007 878 985 b 960 861 922 932 946 899 b 957 796 968 842 967 815 b 888 717 942 764 913 742 b 733 531 832 658 781 596 b 635 356 694 476 657 419 b 632 349 633 353 633 351 b 649 154 636 283 642 218 b 653 47 653 118 656 82 b 622 -18 651 24 640 -3 m 89 949 b 161 965 101 935 142 964 b 208 975 176 965 194 967 b 243 983 214 978 236 983 b 257 981 244 983 256 981 b 269 981 261 981 265 981 b 285 1003 282 978 292 992 b 264 1011 281 1008 271 1007 b 193 1006 244 1024 214 1018 b 149 994 181 997 164 997 b 104 975 142 992 110 979 b 89 949 93 969 82 958 m 868 890 b 894 904 881 886 897 892 b 851 944 890 915 860 938 b 793 975 836 960 815 969 b 747 965 778 979 761 974 b 707 939 735 960 708 951 b 769 938 706 914 744 939 b 778 933 771 938 776 933 b 826 922 793 926 813 932 b 836 914 829 919 832 917 b 851 906 842 913 847 910 b 868 890 857 900 861 893 m 293 957 b 317 943 282 942 306 926 b 293 957 329 960 306 975 m 894 867 b 901 846 883 858 889 844 b 917 868 914 847 925 860 b 894 867 911 874 901 871 "},"Z":{"ha":972,"x_min":0,"x_max":0,"o":"m 782 -24 b 381 -37 663 -32 500 -40 b 206 -15 322 -36 263 -31 b 113 31 172 -6 139 8 b 88 331 43 94 47 246 b 488 657 164 494 338 574 b 468 718 610 724 608 749 b 242 644 392 701 318 669 b 147 625 211 635 181 626 b 94 639 129 625 110 628 b 54 694 75 651 64 674 b 36 864 31 746 19 810 b 53 896 39 875 44 886 b 263 1006 82 929 219 992 b 429 1047 317 1025 372 1040 b 919 938 590 1067 828 1093 b 942 847 936 911 942 879 b 883 672 942 786 921 721 b 724 528 838 617 779 572 b 590 408 678 489 632 451 b 500 307 558 376 529 342 b 526 310 508 308 517 308 b 739 331 582 317 682 332 b 858 315 779 329 821 331 b 926 240 889 301 919 274 b 921 71 938 185 939 125 b 869 4 913 44 893 18 b 782 -24 843 -11 813 -21 m 736 967 b 793 949 744 967 785 949 b 808 975 807 950 819 965 b 793 983 807 978 796 983 b 781 996 790 985 782 993 b 689 1022 765 1010 710 1022 b 590 1017 656 1021 622 1021 b 564 1017 581 1015 572 1017 b 492 1010 540 1017 515 1017 b 468 999 489 1008 471 1000 b 463 971 450 996 446 974 b 489 975 472 969 481 974 b 585 981 521 981 554 975 b 681 981 617 985 653 996 b 736 967 689 976 726 968 m 839 906 b 867 910 843 893 864 896 b 868 917 867 913 867 915 b 842 924 876 932 851 938 b 839 906 838 918 838 911 m 807 242 b 829 272 826 235 847 261 b 760 282 819 278 771 279 b 618 272 714 292 664 282 b 607 247 604 269 596 254 b 643 246 613 242 636 244 b 715 254 668 246 692 249 b 782 253 738 258 760 253 b 807 242 786 253 803 243 m 861 211 b 871 236 878 210 892 229 b 861 211 857 242 839 213 "},"[":{"ha":711,"x_min":0,"x_max":0,"o":"m 618 -153 b 339 -168 578 -160 379 -169 b 214 -149 297 -167 254 -161 b 114 -79 175 -136 136 -114 b 79 21 94 -50 85 -14 b 67 317 74 63 67 275 b 65 493 65 375 67 433 b 61 997 63 661 54 829 b 65 1075 61 1024 63 1049 b 89 1156 68 1103 74 1133 b 147 1203 103 1178 125 1192 b 239 1224 175 1218 208 1222 b 379 1226 286 1225 332 1224 b 443 1229 400 1228 422 1231 b 504 1228 451 1229 497 1228 b 579 1231 529 1231 554 1232 b 626 1218 596 1229 613 1226 b 647 1193 635 1213 642 1203 b 672 1104 661 1167 668 1135 b 675 1004 676 1071 676 1038 b 649 918 672 975 665 943 b 600 883 636 901 619 889 b 489 874 564 874 525 882 b 436 844 469 869 447 863 b 411 550 401 796 410 610 b 451 183 413 475 407 243 b 524 149 468 161 497 150 b 629 158 538 147 615 160 b 676 125 647 157 667 143 b 692 -97 704 76 714 -46 b 618 -153 678 -125 649 -147 m 306 1151 b 381 1149 322 1140 363 1139 b 424 1153 393 1156 410 1154 b 476 1150 442 1151 458 1149 b 494 1153 479 1150 493 1153 b 510 1153 500 1153 506 1151 b 522 1183 526 1156 536 1175 b 481 1181 513 1189 490 1183 b 431 1185 472 1176 439 1185 b 356 1186 406 1188 379 1193 b 324 1181 344 1183 335 1182 b 306 1151 304 1179 290 1163 m 574 1154 b 590 1175 586 1151 600 1165 b 574 1154 568 1193 546 1160 m 600 93 b 624 106 600 74 638 94 b 600 93 611 115 599 108 m 458 75 b 519 76 469 71 508 74 b 564 82 533 79 551 74 b 561 104 574 89 574 103 b 521 107 547 104 535 108 b 467 99 503 104 485 99 b 458 75 450 99 443 79 "},"\\":{"ha":790,"x_min":0,"x_max":0,"o":"m 635 -90 b 544 -94 606 -99 574 -103 b 479 -42 518 -85 496 -64 b 426 39 458 -17 442 11 b 233 411 360 163 299 288 b 43 781 169 535 101 656 b 6 867 29 808 17 838 b -7 965 -6 899 -14 933 b 44 1040 0 996 22 1021 b 121 1082 67 1060 94 1071 b 244 1115 160 1099 201 1113 b 346 1069 288 1117 318 1103 b 619 522 406 997 582 610 b 764 133 675 396 731 268 b 778 -3 771 104 790 24 b 732 -46 768 -21 750 -35 b 635 -90 703 -67 669 -81 m 353 885 b 378 883 356 872 372 874 b 353 953 390 903 367 936 b 344 965 350 957 346 960 b 310 1014 338 983 324 1000 b 253 1061 292 1029 276 1053 b 169 1050 236 1065 186 1056 b 124 1031 163 1046 132 1031 b 107 1018 117 1031 113 1022 b 119 997 93 1008 104 993 b 221 1029 154 1004 186 1024 b 238 1028 225 1029 235 1032 b 289 960 246 1019 283 971 b 313 933 296 950 301 938 b 351 894 329 926 339 907 b 353 885 353 893 353 886 m 386 829 b 414 847 400 818 425 835 b 386 829 400 864 371 843 "},"]":{"ha":711,"x_min":0,"x_max":0,"o":"m 372 -168 b 93 -153 332 -169 133 -160 b 19 -97 63 -147 32 -125 b 35 125 -3 -46 7 76 b 82 158 44 143 64 157 b 188 149 96 160 174 147 b 260 183 214 150 243 161 b 300 550 304 243 299 475 b 275 844 301 610 310 796 b 222 874 264 863 242 869 b 111 883 186 882 147 874 b 63 918 92 889 75 901 b 36 1004 46 943 39 975 b 39 1104 35 1038 35 1071 b 64 1193 43 1135 50 1167 b 85 1218 69 1203 76 1213 b 132 1231 99 1226 115 1229 b 207 1228 157 1232 182 1231 b 268 1229 214 1228 260 1229 b 332 1226 289 1231 311 1228 b 472 1224 379 1224 425 1225 b 564 1203 503 1222 536 1218 b 622 1156 586 1192 608 1178 b 646 1075 638 1133 643 1103 b 650 997 649 1049 650 1024 b 646 493 657 829 649 661 b 644 317 644 433 646 375 b 632 21 644 275 638 63 b 597 -79 626 -14 617 -50 b 497 -149 575 -114 536 -136 b 372 -168 457 -161 414 -167 m 568 1004 b 596 1018 578 994 597 1004 b 583 1088 604 1040 590 1065 b 547 1139 578 1107 564 1125 b 514 1163 538 1149 526 1158 b 396 1175 476 1176 435 1183 b 371 1168 388 1174 379 1169 b 333 1172 358 1168 346 1168 b 311 1143 314 1179 293 1154 b 375 1133 329 1133 353 1132 b 442 1139 397 1136 419 1143 b 494 1129 450 1138 486 1132 b 535 1090 504 1124 529 1100 b 543 1064 539 1082 540 1072 b 556 1031 547 1053 553 1042 b 568 1004 558 1021 561 1011 m 561 929 b 582 917 551 917 571 907 b 588 921 583 918 585 921 b 569 940 608 932 586 957 b 561 929 568 939 563 931 "},"^":{"ha":683,"x_min":0,"x_max":0,"o":"m 211 571 b 51 593 181 569 78 579 b 28 622 40 600 31 611 b 33 674 24 639 29 657 b 93 847 39 697 83 824 b 114 901 99 865 107 883 b 164 1021 129 942 144 982 b 239 1113 182 1056 206 1090 b 368 1129 275 1135 324 1133 b 472 1103 403 1126 442 1122 b 544 1001 507 1079 526 1039 b 651 689 565 957 642 738 b 646 631 656 669 657 647 b 608 603 638 617 622 608 b 435 592 571 589 469 574 b 404 626 421 599 413 613 b 357 756 396 643 364 738 b 333 815 354 765 344 789 b 310 672 328 767 321 719 b 258 582 301 639 288 600 b 211 571 244 574 228 571 m 489 918 b 514 925 494 910 511 915 b 504 951 514 931 507 947 b 468 1022 496 976 485 1001 b 414 1069 461 1032 424 1063 b 364 1089 406 1075 375 1089 b 315 1076 347 1089 331 1082 b 296 1053 303 1072 289 1064 b 310 1046 299 1049 304 1046 b 349 1044 314 1044 344 1046 b 408 1015 358 1043 399 1019 b 443 997 414 1013 439 1003 b 489 918 464 975 469 942 m 504 878 b 533 881 499 858 533 867 b 504 878 532 899 510 892 "},"_":{"ha":929,"x_min":0,"x_max":0,"o":"m 786 -219 b 244 -233 714 -225 317 -233 b 111 -225 200 -233 154 -233 b 29 -189 81 -219 49 -208 b 19 7 -15 -144 -15 -43 b 104 64 39 32 71 53 b 293 86 163 82 229 82 b 717 90 433 94 575 101 b 901 40 767 88 878 78 b 919 -86 915 19 919 -64 b 903 -164 919 -112 915 -140 b 863 -206 896 -181 881 -197 b 786 -219 839 -215 811 -218 m 576 0 b 664 0 603 -11 636 -7 b 742 7 676 3 731 7 b 756 28 754 7 764 19 b 740 32 751 31 744 31 b 725 39 735 33 731 38 b 653 42 701 43 676 43 b 601 44 636 40 618 42 b 554 40 586 47 569 44 b 513 26 540 36 525 33 b 514 1 499 19 500 3 b 576 0 535 0 557 8 m 806 13 b 833 19 800 -17 846 -8 b 806 13 828 32 808 26 "},"a":{"ha":1217,"x_min":0,"x_max":0,"o":"m 238 -26 b 163 -24 213 -29 186 -32 b 107 42 138 -14 115 14 b 107 126 99 69 101 99 b 208 422 124 231 165 328 b 125 488 181 443 154 467 b 40 556 111 497 51 543 b 8 611 26 571 13 589 b 43 700 1 642 19 679 b 111 731 63 717 88 725 b 378 754 199 750 289 747 b 497 950 413 822 450 890 b 590 1044 525 985 554 1019 b 650 1063 608 1057 631 1065 b 704 1033 669 1058 688 1047 b 779 951 732 1011 757 982 b 871 778 817 899 844 838 b 1013 768 918 775 965 772 b 1132 746 1053 764 1094 760 b 1192 701 1156 738 1176 722 b 1207 653 1200 688 1207 669 b 1189 585 1208 629 1199 606 b 1117 485 1169 549 1143 515 b 1014 386 1085 449 1050 415 b 1119 67 1046 301 1111 157 b 1118 26 1119 53 1119 39 b 1089 -17 1114 8 1104 -8 b 1026 -29 1069 -26 1047 -29 b 931 -8 994 -28 961 -19 b 649 160 899 4 681 146 b 478 68 593 128 536 96 b 238 -26 400 31 321 -11 m 738 843 b 785 801 746 819 761 788 b 792 824 793 806 797 817 b 775 863 785 836 782 850 b 729 932 763 888 751 914 b 703 972 725 936 707 967 b 667 1000 699 976 671 996 b 640 989 658 1011 638 1001 b 679 954 642 981 675 961 b 700 915 682 949 694 919 b 715 894 706 910 711 901 b 725 865 721 886 721 875 b 738 843 726 863 736 847 m 794 756 b 811 735 781 742 797 724 b 794 756 831 750 811 772 "},"à":{"ha":1217,"x_min":0,"x_max":0,"o":"m 238 -26 b 478 68 321 -11 400 31 b 649 160 536 96 593 128 b 931 -8 681 146 899 4 b 1026 -29 961 -19 994 -28 b 1089 -17 1047 -29 1069 -26 b 1118 26 1104 -8 1114 8 b 1119 67 1119 39 1119 53 b 1014 386 1111 157 1046 301 b 1117 485 1050 415 1085 449 b 1189 585 1143 515 1169 549 b 1207 653 1199 606 1208 629 b 1192 701 1207 669 1200 688 b 1132 746 1176 722 1156 738 b 1013 768 1094 760 1053 764 b 871 778 965 772 918 775 b 779 951 844 838 817 899 b 704 1033 757 982 732 1011 b 650 1063 688 1047 669 1058 b 590 1044 631 1065 608 1057 b 497 950 554 1019 525 985 b 378 754 450 890 413 822 b 111 731 289 747 199 750 b 43 700 88 725 63 717 b 8 611 19 679 1 642 b 40 556 13 589 26 571 b 125 488 51 543 111 497 b 208 422 154 467 181 443 b 107 126 165 328 124 231 b 107 42 101 99 99 69 b 163 -24 115 14 138 -14 b 238 -26 186 -32 213 -29 m 738 843 b 725 865 736 847 726 863 b 715 894 721 875 721 886 b 700 915 711 901 706 910 b 679 954 694 919 682 949 b 640 989 675 961 642 981 b 667 1000 638 1001 658 1011 b 703 972 671 996 699 976 b 729 932 707 967 725 936 b 775 863 751 914 763 888 b 792 824 782 850 785 836 b 785 801 797 817 793 806 b 738 843 761 788 746 819 m 794 756 b 811 735 811 772 831 750 b 794 756 797 724 781 742 "},"á":{"ha":1217,"x_min":0,"x_max":0,"o":"m 238 -26 b 163 -24 213 -29 186 -32 b 107 42 138 -14 115 14 b 107 126 99 69 101 99 b 208 422 124 231 165 328 b 125 488 181 443 154 467 b 40 556 111 497 51 543 b 8 611 26 571 13 589 b 43 700 1 642 19 679 b 111 731 63 717 88 725 b 378 754 199 750 289 747 b 497 950 413 822 450 890 b 590 1044 525 985 554 1019 b 650 1063 608 1057 631 1065 b 704 1033 669 1058 688 1047 b 779 951 732 1011 757 982 b 871 778 817 899 844 838 b 1013 768 918 775 965 772 b 1132 746 1053 764 1094 760 b 1192 701 1156 738 1176 722 b 1207 653 1200 688 1207 669 b 1189 585 1208 629 1199 606 b 1117 485 1169 549 1143 515 b 1014 386 1085 449 1050 415 b 1119 67 1046 301 1111 157 b 1118 26 1119 53 1119 39 b 1089 -17 1114 8 1104 -8 b 1026 -29 1069 -26 1047 -29 b 931 -8 994 -28 961 -19 b 649 160 899 4 681 146 b 478 68 593 128 536 96 b 238 -26 400 31 321 -11 m 738 843 b 785 801 746 819 761 788 b 792 824 793 806 797 817 b 775 863 785 836 782 850 b 729 932 763 888 751 914 b 703 972 725 936 707 967 b 667 1000 699 976 671 996 b 640 989 658 1011 638 1001 b 679 954 642 981 675 961 b 700 915 682 949 694 919 b 715 894 706 910 711 901 b 725 865 721 886 721 875 b 738 843 726 863 736 847 m 794 756 b 811 735 781 742 797 724 b 794 756 831 750 811 772 "},"â":{"ha":1217,"x_min":0,"x_max":0,"o":"m 238 -26 b 478 68 321 -11 400 31 b 649 160 536 96 593 128 b 931 -8 681 146 899 4 b 1026 -29 961 -19 994 -28 b 1089 -17 1047 -29 1069 -26 b 1118 26 1104 -8 1114 8 b 1119 67 1119 39 1119 53 b 1014 386 1111 157 1046 301 b 1117 485 1050 415 1085 449 b 1189 585 1143 515 1169 549 b 1207 653 1199 606 1208 629 b 1192 701 1207 669 1200 688 b 1132 746 1176 722 1156 738 b 1013 768 1094 760 1053 764 b 871 778 965 772 918 775 b 779 951 844 838 817 899 b 704 1033 757 982 732 1011 b 650 1063 688 1047 669 1058 b 590 1044 631 1065 608 1057 b 497 950 554 1019 525 985 b 378 754 450 890 413 822 b 111 731 289 747 199 750 b 43 700 88 725 63 717 b 8 611 19 679 1 642 b 40 556 13 589 26 571 b 125 488 51 543 111 497 b 208 422 154 467 181 443 b 107 126 165 328 124 231 b 107 42 101 99 99 69 b 163 -24 115 14 138 -14 b 238 -26 186 -32 213 -29 m 738 843 b 725 865 736 847 726 863 b 715 894 721 875 721 886 b 700 915 711 901 706 910 b 679 954 694 919 682 949 b 640 989 675 961 642 981 b 667 1000 638 1001 658 1011 b 703 972 671 996 699 976 b 729 932 707 967 725 936 b 775 863 751 914 763 888 b 792 824 782 850 785 836 b 785 801 797 817 793 806 b 738 843 761 788 746 819 m 794 756 b 811 735 811 772 831 750 b 794 756 797 724 781 742 "},"ã":{"ha":1217,"x_min":0,"x_max":0,"o":"m 238 -26 b 163 -24 213 -29 186 -32 b 107 42 138 -14 115 14 b 107 126 99 69 101 99 b 208 422 124 231 165 328 b 125 488 181 443 154 467 b 40 556 111 497 51 543 b 8 611 26 571 13 589 b 43 700 1 642 19 679 b 111 731 63 717 88 725 b 378 754 199 750 289 747 b 497 950 413 822 450 890 b 590 1044 525 985 554 1019 b 650 1063 608 1057 631 1065 b 704 1033 669 1058 688 1047 b 779 951 732 1011 757 982 b 871 778 817 899 844 838 b 1013 768 918 775 965 772 b 1132 746 1053 764 1094 760 b 1192 701 1156 738 1176 722 b 1207 653 1200 688 1207 669 b 1189 585 1208 629 1199 606 b 1117 485 1169 549 1143 515 b 1014 386 1085 449 1050 415 b 1119 67 1046 301 1111 157 b 1118 26 1119 53 1119 39 b 1089 -17 1114 8 1104 -8 b 1026 -29 1069 -26 1047 -29 b 931 -8 994 -28 961 -19 b 649 160 899 4 681 146 b 478 68 593 128 536 96 b 238 -26 400 31 321 -11 m 738 843 b 785 801 746 819 761 788 b 792 824 793 806 797 817 b 775 863 785 836 782 850 b 729 932 763 888 751 914 b 703 972 725 936 707 967 b 667 1000 699 976 671 996 b 640 989 658 1011 638 1001 b 679 954 642 981 675 961 b 700 915 682 949 694 919 b 715 894 706 910 711 901 b 725 865 721 886 721 875 b 738 843 726 863 736 847 m 794 756 b 811 735 781 742 797 724 b 794 756 831 750 811 772 "},"ä":{"ha":1217,"x_min":0,"x_max":0,"o":"m 238 -26 b 478 68 321 -11 400 31 b 649 160 536 96 593 128 b 931 -8 681 146 899 4 b 1026 -29 961 -19 994 -28 b 1089 -17 1047 -29 1069 -26 b 1118 26 1104 -8 1114 8 b 1119 67 1119 39 1119 53 b 1014 386 1111 157 1046 301 b 1117 485 1050 415 1085 449 b 1189 585 1143 515 1169 549 b 1207 653 1199 606 1208 629 b 1192 701 1207 669 1200 688 b 1132 746 1176 722 1156 738 b 1013 768 1094 760 1053 764 b 871 778 965 772 918 775 b 779 951 844 838 817 899 b 704 1033 757 982 732 1011 b 650 1063 688 1047 669 1058 b 590 1044 631 1065 608 1057 b 497 950 554 1019 525 985 b 378 754 450 890 413 822 b 111 731 289 747 199 750 b 43 700 88 725 63 717 b 8 611 19 679 1 642 b 40 556 13 589 26 571 b 125 488 51 543 111 497 b 208 422 154 467 181 443 b 107 126 165 328 124 231 b 107 42 101 99 99 69 b 163 -24 115 14 138 -14 b 238 -26 186 -32 213 -29 m 738 843 b 725 865 736 847 726 863 b 715 894 721 875 721 886 b 700 915 711 901 706 910 b 679 954 694 919 682 949 b 640 989 675 961 642 981 b 667 1000 638 1001 658 1011 b 703 972 671 996 699 976 b 729 932 707 967 725 936 b 775 863 751 914 763 888 b 792 824 782 850 785 836 b 785 801 797 817 793 806 b 738 843 761 788 746 819 m 794 756 b 811 735 811 772 831 750 b 794 756 797 724 781 742 "},"å":{"ha":1217,"x_min":0,"x_max":0,"o":"m 238 -26 b 163 -24 213 -29 186 -32 b 107 42 138 -14 115 14 b 107 126 99 69 101 99 b 208 422 124 231 165 328 b 125 488 181 443 154 467 b 40 556 111 497 51 543 b 8 611 26 571 13 589 b 43 700 1 642 19 679 b 111 731 63 717 88 725 b 378 754 199 750 289 747 b 497 950 413 822 450 890 b 590 1044 525 985 554 1019 b 650 1063 608 1057 631 1065 b 704 1033 669 1058 688 1047 b 779 951 732 1011 757 982 b 871 778 817 899 844 838 b 1013 768 918 775 965 772 b 1132 746 1053 764 1094 760 b 1192 701 1156 738 1176 722 b 1207 653 1200 688 1207 669 b 1189 585 1208 629 1199 606 b 1117 485 1169 549 1143 515 b 1014 386 1085 449 1050 415 b 1119 67 1046 301 1111 157 b 1118 26 1119 53 1119 39 b 1089 -17 1114 8 1104 -8 b 1026 -29 1069 -26 1047 -29 b 931 -8 994 -28 961 -19 b 649 160 899 4 681 146 b 478 68 593 128 536 96 b 238 -26 400 31 321 -11 m 738 843 b 785 801 746 819 761 788 b 792 824 793 806 797 817 b 775 863 785 836 782 850 b 729 932 763 888 751 914 b 703 972 725 936 707 967 b 667 1000 699 976 671 996 b 640 989 658 1011 638 1001 b 679 954 642 981 675 961 b 700 915 682 949 694 919 b 715 894 706 910 711 901 b 725 865 721 886 721 875 b 738 843 726 863 736 847 m 794 756 b 811 735 781 742 797 724 b 794 756 831 750 811 772 "},"b":{"ha":1210,"x_min":0,"x_max":0,"o":"m 843 -15 b 489 -28 726 -33 607 -33 b 214 14 396 -22 301 -15 b 156 40 194 21 172 28 b 119 100 136 56 125 78 b 143 239 106 146 113 201 b 197 275 156 256 176 267 b 226 283 207 278 217 282 b 179 681 225 417 206 550 b 104 675 154 672 128 669 b 67 693 90 678 78 685 b 14 892 21 729 0 838 b 47 940 19 911 31 928 b 139 986 72 961 106 975 b 228 1015 168 996 197 1006 b 618 1071 353 1053 486 1074 b 831 1040 690 1069 761 1057 b 1043 926 910 1019 989 982 b 1076 565 1138 832 1169 661 b 960 490 1046 533 1004 510 b 1140 389 1029 471 1099 440 b 1189 225 1178 343 1200 281 b 1082 69 1178 165 1136 107 b 843 -15 1014 24 928 -3 m 929 893 b 967 901 942 885 960 888 b 929 944 976 922 949 935 b 849 983 901 958 876 975 b 749 1004 831 988 763 993 b 697 1024 735 1015 715 1022 b 578 1015 658 1029 617 1024 b 556 997 565 1018 553 1010 b 579 989 557 989 569 988 b 639 990 599 989 619 993 b 696 979 658 988 679 989 b 746 969 711 972 729 968 b 778 963 751 969 774 964 b 821 951 785 961 815 954 b 929 893 835 943 915 903 m 1011 850 b 1019 829 992 840 999 822 b 1011 850 1035 835 1028 858 m 488 556 b 497 557 488 554 494 557 b 650 585 549 564 601 571 b 719 614 674 593 699 600 b 714 775 786 654 788 746 b 576 781 672 792 621 790 b 508 750 553 775 525 767 b 485 692 493 735 488 713 b 488 556 479 646 483 600 m 1082 338 b 1103 356 1094 333 1110 344 b 1076 383 1100 361 1081 379 b 1033 415 1071 389 1042 411 b 953 442 1021 421 967 440 b 943 417 932 443 924 418 b 972 408 953 417 963 411 b 1022 386 979 404 1015 392 b 1069 350 1039 375 1056 364 b 1082 338 1074 346 1076 339 m 544 258 b 588 253 557 251 574 251 b 743 308 643 257 701 276 b 774 343 756 318 767 329 b 774 386 779 356 781 374 b 651 411 757 419 690 418 b 507 364 601 401 544 383 b 507 363 507 364 507 363 b 544 258 517 318 507 279 m 1104 286 b 1128 303 1115 272 1142 292 b 1104 286 1115 314 1092 299 "},"c":{"ha":911,"x_min":0,"x_max":0,"o":"m 718 14 b 381 -35 617 -43 494 -61 b 154 96 296 -14 215 33 b 93 179 131 121 110 149 b 35 392 60 244 43 318 b 38 646 24 476 24 563 b 88 800 46 700 64 751 b 231 976 119 868 171 929 b 350 1042 265 1004 306 1029 b 458 1057 385 1053 421 1056 b 685 1010 535 1060 617 1046 b 843 874 746 976 804 932 b 878 779 861 846 878 813 b 853 703 878 753 867 725 b 765 621 832 668 801 639 b 640 624 726 600 681 601 b 521 726 594 649 563 696 b 419 728 490 750 451 750 b 372 665 397 713 382 689 b 351 528 353 622 350 574 b 399 369 356 474 368 415 b 453 326 413 351 432 333 b 540 325 481 317 511 318 b 696 378 593 338 644 360 b 792 382 725 389 763 396 b 886 197 850 354 897 263 b 838 107 881 164 861 132 b 718 14 804 69 763 39 m 663 919 b 683 951 688 911 708 943 b 638 983 676 954 644 981 b 572 1004 629 989 581 1000 b 481 1017 557 1008 496 1019 b 440 1010 467 1015 453 1011 b 432 982 417 1006 410 976 b 453 979 436 982 450 979 b 486 981 464 979 475 982 b 611 956 507 979 592 964 b 663 919 629 946 643 926 m 719 871 b 739 893 732 869 746 883 b 713 892 732 903 718 901 b 719 871 707 882 710 871 m 628 308 b 654 301 626 296 642 297 b 693 315 660 303 688 313 b 739 322 707 322 724 321 b 742 347 765 324 765 358 b 700 347 735 344 707 347 b 660 335 693 346 667 338 b 642 326 654 331 649 328 b 628 308 632 325 628 318 m 786 333 b 794 313 767 328 776 306 b 786 333 814 321 806 340 "},"ç":{"ha":911,"x_min":0,"x_max":0,"o":"m 718 14 b 838 107 763 39 804 69 b 886 197 861 132 881 164 b 792 382 897 263 850 354 b 696 378 763 396 725 389 b 540 325 644 360 593 338 b 453 326 511 318 481 317 b 399 369 432 333 413 351 b 351 528 368 415 356 474 b 372 665 350 574 353 622 b 419 728 382 689 397 713 b 521 726 451 750 490 750 b 640 624 563 696 594 649 b 765 621 681 601 726 600 b 853 703 801 639 832 668 b 878 779 867 725 878 753 b 843 874 878 813 861 846 b 685 1010 804 932 746 976 b 458 1057 617 1046 535 1060 b 350 1042 421 1056 385 1053 b 231 976 306 1029 265 1004 b 88 800 171 929 119 868 b 38 646 64 751 46 700 b 35 392 24 563 24 476 b 93 179 43 318 60 244 b 154 96 110 149 131 121 b 381 -35 215 33 296 -14 b 718 14 494 -61 617 -43 m 663 919 b 611 956 643 926 629 946 b 486 981 592 964 507 979 b 453 979 475 982 464 979 b 432 982 450 979 436 982 b 440 1010 410 976 417 1006 b 481 1017 453 1011 467 1015 b 572 1004 496 1019 557 1008 b 638 983 581 1000 629 989 b 683 951 644 981 676 954 b 663 919 708 943 688 911 m 719 871 b 713 892 710 871 707 882 b 739 893 718 901 732 903 b 719 871 746 883 732 869 m 628 308 b 642 326 628 318 632 325 b 660 335 649 328 654 331 b 700 347 667 338 693 346 b 742 347 707 347 735 344 b 739 322 765 358 765 324 b 693 315 724 321 707 322 b 654 301 688 313 660 303 b 628 308 642 297 626 296 m 786 333 b 794 313 806 340 814 321 b 786 333 776 306 767 328 "},"d":{"ha":1057,"x_min":0,"x_max":0,"o":"m 639 -10 b 233 -39 508 -47 367 -64 b 125 -1 196 -32 154 -26 b 85 88 100 19 88 54 b 104 232 83 118 85 207 b 172 261 119 251 147 257 b 176 268 174 264 175 267 b 169 390 174 313 169 375 b 138 724 161 501 151 613 b 124 722 133 722 129 722 b 63 731 104 719 79 719 b 14 897 26 756 13 853 b 35 986 15 928 19 960 b 357 1081 78 1063 269 1078 b 672 1036 464 1083 574 1074 b 893 893 754 1006 829 954 b 988 749 935 854 965 801 b 1019 371 1035 632 1047 494 b 967 236 1008 324 990 279 b 858 108 940 188 901 146 b 639 -10 796 54 718 14 m 763 882 b 796 893 771 867 796 876 b 797 911 799 899 800 907 b 763 936 793 919 771 932 b 644 992 746 944 664 988 b 611 997 633 993 621 992 b 589 1008 604 1001 597 1006 b 550 1017 576 1013 563 1013 b 525 1025 542 1019 535 1024 b 483 1017 511 1025 497 1019 b 450 1014 478 1017 454 1017 b 436 997 443 1013 438 1004 b 471 983 432 983 456 985 b 507 988 483 983 494 986 b 519 982 511 988 515 983 b 565 971 525 981 560 972 b 574 964 569 969 571 967 b 635 954 592 953 615 960 b 717 914 649 950 704 922 b 763 882 725 908 758 890 m 831 836 b 840 814 825 828 831 814 b 853 818 846 814 850 817 b 831 836 878 831 844 860 m 444 393 b 449 313 447 367 449 339 b 511 332 471 315 492 322 b 653 444 567 357 618 394 b 689 539 672 472 686 506 b 633 676 690 589 668 642 b 513 742 601 708 557 732 b 415 753 497 746 446 751 b 444 393 424 663 440 435 "},"e":{"ha":913,"x_min":0,"x_max":0,"o":"m 707 -21 b 383 -46 601 -44 492 -56 b 158 43 304 -39 218 -11 b 74 178 119 78 92 128 b 35 379 50 242 39 311 b 43 621 31 460 35 540 b 110 879 53 708 71 800 b 229 994 136 928 178 975 b 440 1028 296 1021 369 1026 b 442 1028 440 1028 440 1028 b 706 1043 528 1044 617 1044 b 818 1036 743 1043 782 1044 b 867 1008 836 1032 856 1024 b 876 824 896 974 889 868 b 821 728 867 789 850 751 b 733 699 797 708 764 703 b 482 714 650 690 565 714 b 407 700 457 714 431 710 b 371 672 393 694 379 685 b 347 575 357 653 350 615 b 567 593 415 589 529 606 b 618 546 589 586 611 568 b 603 425 626 518 621 449 b 492 406 588 404 518 408 b 358 389 447 403 403 396 b 378 326 363 367 368 346 b 406 293 385 313 393 300 b 454 282 421 285 438 283 b 553 289 486 281 519 285 b 686 310 597 293 642 300 b 810 321 711 314 788 333 b 861 251 836 308 850 278 b 882 108 879 207 889 156 b 860 50 878 88 872 67 b 821 17 850 36 836 24 b 707 -21 785 -1 746 -12 m 563 953 b 614 940 576 942 596 939 b 707 950 628 942 693 953 b 733 954 715 949 726 949 b 739 975 739 960 739 968 b 715 979 738 986 724 986 b 697 979 713 976 701 979 b 628 981 674 981 650 986 b 603 979 619 979 611 978 b 567 989 590 982 579 989 b 508 974 546 986 524 986 b 517 956 497 967 504 953 b 563 953 528 957 553 958 m 792 947 b 814 944 792 936 807 935 b 818 954 817 947 817 950 b 792 956 822 969 796 972 b 792 947 792 954 790 949 m 414 551 b 426 529 401 543 411 528 b 453 536 435 532 443 536 b 500 535 458 536 494 535 b 515 554 511 535 522 546 b 482 561 511 561 490 561 b 446 561 471 561 458 563 b 414 551 440 560 418 554 m 574 551 b 558 531 554 564 533 531 b 574 551 572 529 586 543 m 569 210 b 603 213 581 206 592 211 b 672 229 626 218 650 222 b 740 235 681 232 732 232 b 751 260 751 238 761 251 b 729 264 746 264 736 263 b 669 263 710 264 689 267 b 569 232 656 260 583 235 b 569 210 550 229 550 204 m 788 244 b 815 249 793 229 810 233 b 788 244 824 272 779 269 "},"è":{"ha":913,"x_min":0,"x_max":0,"o":"m 707 -21 b 821 17 746 -12 785 -1 b 860 50 836 24 850 36 b 882 108 872 67 878 88 b 861 251 889 156 879 207 b 810 321 850 278 836 308 b 686 310 788 333 711 314 b 553 289 642 300 597 293 b 454 282 519 285 486 281 b 406 293 438 283 421 285 b 378 326 393 300 385 313 b 358 389 368 346 363 367 b 492 406 403 396 447 403 b 603 425 518 408 588 404 b 618 546 621 449 626 518 b 567 593 611 568 589 586 b 347 575 529 606 415 589 b 371 672 350 615 357 653 b 407 700 379 685 393 694 b 482 714 431 710 457 714 b 733 699 565 714 650 690 b 821 728 764 703 797 708 b 876 824 850 751 867 789 b 867 1008 889 868 896 974 b 818 1036 856 1024 836 1032 b 706 1043 782 1044 743 1043 b 442 1028 617 1044 528 1044 b 440 1028 440 1028 440 1028 b 229 994 369 1026 296 1021 b 110 879 178 975 136 928 b 43 621 71 800 53 708 b 35 379 35 540 31 460 b 74 178 39 311 50 242 b 158 43 92 128 119 78 b 383 -46 218 -11 304 -39 b 707 -21 492 -56 601 -44 m 563 953 b 517 956 553 958 528 957 b 508 974 504 953 497 967 b 567 989 524 986 546 986 b 603 979 579 989 590 982 b 628 981 611 978 619 979 b 697 979 650 986 674 981 b 715 979 701 979 713 976 b 739 975 724 986 738 986 b 733 954 739 968 739 960 b 707 950 726 949 715 949 b 614 940 693 953 628 942 b 563 953 596 939 576 942 m 792 947 b 792 956 790 949 792 954 b 818 954 796 972 822 969 b 814 944 817 950 817 947 b 792 947 807 935 792 936 m 414 551 b 446 561 418 554 440 560 b 482 561 458 563 471 561 b 515 554 490 561 511 561 b 500 535 522 546 511 535 b 453 536 494 535 458 536 b 426 529 443 536 435 532 b 414 551 411 528 401 543 m 574 551 b 558 531 586 543 572 529 b 574 551 533 531 554 564 m 569 210 b 569 232 550 204 550 229 b 669 263 583 235 656 260 b 729 264 689 267 710 264 b 751 260 736 263 746 264 b 740 235 761 251 751 238 b 672 229 732 232 681 232 b 603 213 650 222 626 218 b 569 210 592 211 581 206 m 788 244 b 815 249 779 269 824 272 b 788 244 810 233 793 229 "},"é":{"ha":913,"x_min":0,"x_max":0,"o":"m 707 -21 b 383 -46 601 -44 492 -56 b 158 43 304 -39 218 -11 b 74 178 119 78 92 128 b 35 379 50 242 39 311 b 43 621 31 460 35 540 b 110 879 53 708 71 800 b 229 994 136 928 178 975 b 440 1028 296 1021 369 1026 b 442 1028 440 1028 440 1028 b 706 1043 528 1044 617 1044 b 818 1036 743 1043 782 1044 b 867 1008 836 1032 856 1024 b 876 824 896 974 889 868 b 821 728 867 789 850 751 b 733 699 797 708 764 703 b 482 714 650 690 565 714 b 407 700 457 714 431 710 b 371 672 393 694 379 685 b 347 575 357 653 350 615 b 567 593 415 589 529 606 b 618 546 589 586 611 568 b 603 425 626 518 621 449 b 492 406 588 404 518 408 b 358 389 447 403 403 396 b 378 326 363 367 368 346 b 406 293 385 313 393 300 b 454 282 421 285 438 283 b 553 289 486 281 519 285 b 686 310 597 293 642 300 b 810 321 711 314 788 333 b 861 251 836 308 850 278 b 882 108 879 207 889 156 b 860 50 878 88 872 67 b 821 17 850 36 836 24 b 707 -21 785 -1 746 -12 m 563 953 b 614 940 576 942 596 939 b 707 950 628 942 693 953 b 733 954 715 949 726 949 b 739 975 739 960 739 968 b 715 979 738 986 724 986 b 697 979 713 976 701 979 b 628 981 674 981 650 986 b 603 979 619 979 611 978 b 567 989 590 982 579 989 b 508 974 546 986 524 986 b 517 956 497 967 504 953 b 563 953 528 957 553 958 m 792 947 b 814 944 792 936 807 935 b 818 954 817 947 817 950 b 792 956 822 969 796 972 b 792 947 792 954 790 949 m 414 551 b 426 529 401 543 411 528 b 453 536 435 532 443 536 b 500 535 458 536 494 535 b 515 554 511 535 522 546 b 482 561 511 561 490 561 b 446 561 471 561 458 563 b 414 551 440 560 418 554 m 574 551 b 558 531 554 564 533 531 b 574 551 572 529 586 543 m 569 210 b 603 213 581 206 592 211 b 672 229 626 218 650 222 b 740 235 681 232 732 232 b 751 260 751 238 761 251 b 729 264 746 264 736 263 b 669 263 710 264 689 267 b 569 232 656 260 583 235 b 569 210 550 229 550 204 m 788 244 b 815 249 793 229 810 233 b 788 244 824 272 779 269 "},"ê":{"ha":913,"x_min":0,"x_max":0,"o":"m 707 -21 b 821 17 746 -12 785 -1 b 860 50 836 24 850 36 b 882 108 872 67 878 88 b 861 251 889 156 879 207 b 810 321 850 278 836 308 b 686 310 788 333 711 314 b 553 289 642 300 597 293 b 454 282 519 285 486 281 b 406 293 438 283 421 285 b 378 326 393 300 385 313 b 358 389 368 346 363 367 b 492 406 403 396 447 403 b 603 425 518 408 588 404 b 618 546 621 449 626 518 b 567 593 611 568 589 586 b 347 575 529 606 415 589 b 371 672 350 615 357 653 b 407 700 379 685 393 694 b 482 714 431 710 457 714 b 733 699 565 714 650 690 b 821 728 764 703 797 708 b 876 824 850 751 867 789 b 867 1008 889 868 896 974 b 818 1036 856 1024 836 1032 b 706 1043 782 1044 743 1043 b 442 1028 617 1044 528 1044 b 440 1028 440 1028 440 1028 b 229 994 369 1026 296 1021 b 110 879 178 975 136 928 b 43 621 71 800 53 708 b 35 379 35 540 31 460 b 74 178 39 311 50 242 b 158 43 92 128 119 78 b 383 -46 218 -11 304 -39 b 707 -21 492 -56 601 -44 m 563 953 b 517 956 553 958 528 957 b 508 974 504 953 497 967 b 567 989 524 986 546 986 b 603 979 579 989 590 982 b 628 981 611 978 619 979 b 697 979 650 986 674 981 b 715 979 701 979 713 976 b 739 975 724 986 738 986 b 733 954 739 968 739 960 b 707 950 726 949 715 949 b 614 940 693 953 628 942 b 563 953 596 939 576 942 m 792 947 b 792 956 790 949 792 954 b 818 954 796 972 822 969 b 814 944 817 950 817 947 b 792 947 807 935 792 936 m 414 551 b 446 561 418 554 440 560 b 482 561 458 563 471 561 b 515 554 490 561 511 561 b 500 535 522 546 511 535 b 453 536 494 535 458 536 b 426 529 443 536 435 532 b 414 551 411 528 401 543 m 574 551 b 558 531 586 543 572 529 b 574 551 533 531 554 564 m 569 210 b 569 232 550 204 550 229 b 669 263 583 235 656 260 b 729 264 689 267 710 264 b 751 260 736 263 746 264 b 740 235 761 251 751 238 b 672 229 732 232 681 232 b 603 213 650 222 626 218 b 569 210 592 211 581 206 m 788 244 b 815 249 779 269 824 272 b 788 244 810 233 793 229 "},"ë":{"ha":913,"x_min":0,"x_max":0,"o":"m 707 -21 b 383 -46 601 -44 492 -56 b 158 43 304 -39 218 -11 b 74 178 119 78 92 128 b 35 379 50 242 39 311 b 43 621 31 460 35 540 b 110 879 53 708 71 800 b 229 994 136 928 178 975 b 440 1028 296 1021 369 1026 b 442 1028 440 1028 440 1028 b 706 1043 528 1044 617 1044 b 818 1036 743 1043 782 1044 b 867 1008 836 1032 856 1024 b 876 824 896 974 889 868 b 821 728 867 789 850 751 b 733 699 797 708 764 703 b 482 714 650 690 565 714 b 407 700 457 714 431 710 b 371 672 393 694 379 685 b 347 575 357 653 350 615 b 567 593 415 589 529 606 b 618 546 589 586 611 568 b 603 425 626 518 621 449 b 492 406 588 404 518 408 b 358 389 447 403 403 396 b 378 326 363 367 368 346 b 406 293 385 313 393 300 b 454 282 421 285 438 283 b 553 289 486 281 519 285 b 686 310 597 293 642 300 b 810 321 711 314 788 333 b 861 251 836 308 850 278 b 882 108 879 207 889 156 b 860 50 878 88 872 67 b 821 17 850 36 836 24 b 707 -21 785 -1 746 -12 m 563 953 b 614 940 576 942 596 939 b 707 950 628 942 693 953 b 733 954 715 949 726 949 b 739 975 739 960 739 968 b 715 979 738 986 724 986 b 697 979 713 976 701 979 b 628 981 674 981 650 986 b 603 979 619 979 611 978 b 567 989 590 982 579 989 b 508 974 546 986 524 986 b 517 956 497 967 504 953 b 563 953 528 957 553 958 m 792 947 b 814 944 792 936 807 935 b 818 954 817 947 817 950 b 792 956 822 969 796 972 b 792 947 792 954 790 949 m 414 551 b 426 529 401 543 411 528 b 453 536 435 532 443 536 b 500 535 458 536 494 535 b 515 554 511 535 522 546 b 482 561 511 561 490 561 b 446 561 471 561 458 563 b 414 551 440 560 418 554 m 574 551 b 558 531 554 564 533 531 b 574 551 572 529 586 543 m 569 210 b 603 213 581 206 592 211 b 672 229 626 218 650 222 b 740 235 681 232 732 232 b 751 260 751 238 761 251 b 729 264 746 264 736 263 b 669 263 710 264 689 267 b 569 232 656 260 583 235 b 569 210 550 229 550 204 m 788 244 b 815 249 793 229 810 233 b 788 244 824 272 779 269 "},"f":{"ha":893,"x_min":0,"x_max":0,"o":"m 329 -49 b 157 -58 274 -62 214 -68 b 76 28 115 -50 86 -12 b 60 278 60 110 63 194 b 43 683 53 413 36 549 b 107 951 47 775 61 872 b 176 1025 125 981 149 1007 b 333 1058 222 1054 281 1058 b 490 1049 386 1057 438 1053 b 608 1033 504 1047 594 1035 b 744 1031 654 1029 699 1032 b 831 1014 774 1029 804 1028 b 865 981 844 1007 858 994 b 883 908 876 958 881 933 b 879 817 889 864 888 860 b 850 749 875 792 867 767 b 758 714 828 725 792 717 b 626 717 715 711 671 714 b 471 738 582 719 515 739 b 475 564 338 732 339 553 b 640 564 508 567 606 565 b 683 556 656 564 671 561 b 711 528 696 549 706 540 b 713 326 736 479 743 371 b 631 281 696 300 661 286 b 472 274 579 269 525 278 b 426 269 457 272 442 271 b 407 261 418 268 408 268 b 418 49 403 231 418 79 b 410 -6 419 31 419 10 b 329 -49 394 -33 358 -42 m 738 951 b 751 979 760 947 775 979 b 742 982 750 979 743 982 b 675 990 721 990 697 993 b 656 988 668 990 661 988 b 594 992 647 986 603 992 b 542 988 576 990 558 988 b 536 958 524 986 518 961 b 578 956 542 957 572 957 b 657 953 604 954 632 947 b 699 958 671 957 685 960 b 738 951 711 957 725 953 m 810 953 b 829 944 806 940 821 935 b 832 965 836 951 839 960 b 810 953 824 972 810 965 m 522 494 b 576 501 540 493 558 500 b 600 497 581 501 596 497 b 619 517 614 494 629 507 b 560 532 611 525 571 529 b 471 526 546 533 485 529 b 447 504 457 533 436 517 b 522 494 458 492 506 494 m 640 499 b 667 494 640 481 657 483 b 640 499 679 511 640 513 "},"g":{"ha":964,"x_min":0,"x_max":0,"o":"m 718 14 b 381 -35 617 -43 494 -61 b 154 96 296 -14 215 33 b 93 179 131 121 110 149 b 35 392 60 244 43 318 b 38 646 24 476 24 563 b 88 800 46 700 64 751 b 231 976 119 868 171 929 b 350 1042 265 1004 306 1029 b 458 1057 385 1053 421 1056 b 685 1010 535 1060 617 1046 b 843 874 746 976 804 932 b 878 779 861 846 878 813 b 853 703 878 753 867 725 b 765 621 832 668 801 639 b 640 624 726 600 681 601 b 521 726 594 649 563 696 b 419 728 490 750 451 750 b 372 665 397 713 382 689 b 351 528 353 622 350 574 b 399 369 356 474 368 415 b 453 326 413 351 432 333 b 540 325 481 317 511 318 b 585 338 556 328 569 332 b 593 347 588 340 590 343 b 603 369 597 351 604 364 b 592 379 601 375 596 378 b 515 393 567 388 540 388 b 474 421 499 396 482 406 b 471 542 460 443 464 515 b 501 578 474 557 486 572 b 814 535 561 597 753 554 b 896 493 843 525 872 513 b 932 444 911 481 925 464 b 946 350 944 415 946 382 b 718 14 939 207 840 83 m 690 904 b 714 929 707 897 726 917 b 660 968 708 936 668 963 b 603 996 643 981 622 988 b 438 996 553 1021 488 1018 b 433 975 429 992 425 981 b 456 976 440 972 449 975 b 486 981 465 979 475 979 b 575 968 515 983 547 981 b 593 961 581 967 586 964 b 628 951 604 958 617 957 b 690 904 638 947 682 910 m 725 874 b 747 867 719 861 738 856 b 725 874 764 888 735 899 m 863 431 b 889 443 869 415 893 428 b 856 468 886 453 864 464 b 835 488 847 472 843 483 b 792 499 828 492 799 497 b 776 504 789 500 779 504 b 722 517 769 507 731 515 b 696 518 718 517 699 517 b 683 493 678 524 665 497 b 706 490 690 492 699 492 b 757 474 713 488 749 474 b 807 460 765 472 800 463 b 831 447 811 460 828 449 b 863 431 838 444 860 438 m 885 379 b 910 372 881 360 901 361 b 885 379 924 390 886 394 "},"h":{"ha":1074,"x_min":0,"x_max":0,"o":"m 897 -33 b 685 -10 844 -43 722 -51 b 635 315 639 42 638 244 b 635 322 635 317 635 319 b 449 318 590 319 508 317 b 453 204 450 269 453 219 b 451 111 454 174 454 143 b 424 33 449 85 440 54 b 335 -15 401 7 368 -7 b 207 -26 293 -26 250 -31 b 115 -4 175 -25 143 -21 b 76 38 99 4 85 19 b 60 142 63 69 61 107 b 54 556 58 192 56 504 b 47 783 54 583 49 756 b 60 932 47 833 46 885 b 96 986 65 953 78 974 b 197 1017 125 1007 163 1011 b 308 1029 235 1022 271 1028 b 392 1004 338 1029 367 1019 b 453 947 415 990 440 972 b 471 851 468 919 471 883 b 469 599 474 767 471 683 b 469 599 469 599 469 599 b 519 596 492 597 513 596 b 647 599 563 593 606 593 b 649 657 647 619 649 647 b 665 867 650 726 653 797 b 707 988 674 908 683 953 b 758 1028 719 1006 739 1021 b 825 1039 779 1036 803 1039 b 944 1011 865 1038 910 1033 b 996 933 971 996 989 964 b 1004 771 1008 881 1004 825 b 1010 436 1007 658 1006 547 b 1026 233 1014 368 1021 301 b 1032 92 1031 186 1035 139 b 1014 24 1032 68 1026 43 b 972 -11 1004 7 989 -4 b 897 -33 949 -22 924 -28 m 911 910 b 936 904 908 894 929 890 b 940 922 940 910 943 917 b 921 950 939 926 924 946 b 875 976 910 964 892 972 b 839 978 869 978 843 978 b 782 983 829 979 790 985 b 753 956 764 982 740 969 b 767 950 757 953 763 950 b 822 940 785 944 804 946 b 890 931 844 935 872 944 b 911 910 893 928 908 913 m 353 915 b 381 917 356 901 376 904 b 379 931 381 922 381 926 b 333 949 375 943 346 944 b 299 953 322 951 311 953 b 263 965 286 953 275 963 b 183 943 242 972 199 958 b 193 918 172 933 179 918 b 231 926 199 918 225 925 b 260 919 236 928 254 919 b 301 924 274 917 288 922 b 326 918 306 924 322 919 b 353 915 336 917 344 918 m 393 899 b 414 886 371 878 394 863 b 393 899 425 899 406 911 m 935 840 b 947 865 954 835 967 858 b 935 840 929 872 917 844 "},"i":{"ha":504,"x_min":0,"x_max":0,"o":"m 347 -8 b 243 -14 313 -14 278 -17 b 160 10 214 -11 185 -6 b 115 63 142 22 126 42 b 72 186 94 101 82 143 b 42 579 40 313 42 447 b 51 817 43 658 42 738 b 93 968 58 869 69 922 b 160 1024 107 994 133 1013 b 422 922 269 1069 414 1049 b 424 753 425 865 422 808 b 433 536 425 681 429 608 b 454 328 439 467 444 397 b 471 169 461 275 469 222 b 458 67 472 135 471 99 b 421 18 451 47 438 31 b 347 -8 399 3 372 -4 m 353 865 b 381 875 360 853 382 861 b 357 953 378 889 364 940 b 322 983 353 961 331 979 b 289 992 318 986 293 990 b 247 1001 282 993 254 1001 b 192 989 228 1001 210 997 b 183 963 171 989 164 965 b 222 969 197 960 210 968 b 251 964 232 972 242 968 b 286 954 261 958 274 956 b 303 951 289 954 300 953 b 324 935 307 949 321 939 b 342 882 328 928 338 888 b 349 875 343 879 346 878 b 353 865 350 874 351 867 m 350 806 b 361 788 336 796 347 781 b 376 804 369 792 379 796 b 350 806 372 815 358 811 "},"ì":{"ha":504,"x_min":0,"x_max":0,"o":"m 347 -8 b 421 18 372 -4 399 3 b 458 67 438 31 451 47 b 471 169 471 99 472 135 b 454 328 469 222 461 275 b 433 536 444 397 439 467 b 424 753 429 608 425 681 b 422 922 422 808 425 865 b 160 1024 414 1049 269 1069 b 93 968 133 1013 107 994 b 51 817 69 922 58 869 b 42 579 42 738 43 658 b 72 186 42 447 40 313 b 115 63 82 143 94 101 b 160 10 126 42 142 22 b 243 -14 185 -6 214 -11 b 347 -8 278 -17 313 -14 m 353 865 b 349 875 351 867 350 874 b 342 882 346 878 343 879 b 324 935 338 888 328 928 b 303 951 321 939 307 949 b 286 954 300 953 289 954 b 251 964 274 956 261 958 b 222 969 242 968 232 972 b 183 963 210 968 197 960 b 192 989 164 965 171 989 b 247 1001 210 997 228 1001 b 289 992 254 1001 282 993 b 322 983 293 990 318 986 b 357 953 331 979 353 961 b 381 875 364 940 378 889 b 353 865 382 861 360 853 m 350 806 b 376 804 358 811 372 815 b 361 788 379 796 369 792 b 350 806 347 781 336 796 "},"í":{"ha":504,"x_min":0,"x_max":0,"o":"m 347 -8 b 243 -14 313 -14 278 -17 b 160 10 214 -11 185 -6 b 115 63 142 22 126 42 b 72 186 94 101 82 143 b 42 579 40 313 42 447 b 51 817 43 658 42 738 b 93 968 58 869 69 922 b 160 1024 107 994 133 1013 b 422 922 269 1069 414 1049 b 424 753 425 865 422 808 b 433 536 425 681 429 608 b 454 328 439 467 444 397 b 471 169 461 275 469 222 b 458 67 472 135 471 99 b 421 18 451 47 438 31 b 347 -8 399 3 372 -4 m 353 865 b 381 875 360 853 382 861 b 357 953 378 889 364 940 b 322 983 353 961 331 979 b 289 992 318 986 293 990 b 247 1001 282 993 254 1001 b 192 989 228 1001 210 997 b 183 963 171 989 164 965 b 222 969 197 960 210 968 b 251 964 232 972 242 968 b 286 954 261 958 274 956 b 303 951 289 954 300 953 b 324 935 307 949 321 939 b 342 882 328 928 338 888 b 349 875 343 879 346 878 b 353 865 350 874 351 867 m 350 806 b 361 788 336 796 347 781 b 376 804 369 792 379 796 b 350 806 372 815 358 811 "},"î":{"ha":504,"x_min":0,"x_max":0,"o":"m 347 -8 b 421 18 372 -4 399 3 b 458 67 438 31 451 47 b 471 169 471 99 472 135 b 454 328 469 222 461 275 b 433 536 444 397 439 467 b 424 753 429 608 425 681 b 422 922 422 808 425 865 b 160 1024 414 1049 269 1069 b 93 968 133 1013 107 994 b 51 817 69 922 58 869 b 42 579 42 738 43 658 b 72 186 42 447 40 313 b 115 63 82 143 94 101 b 160 10 126 42 142 22 b 243 -14 185 -6 214 -11 b 347 -8 278 -17 313 -14 m 353 865 b 349 875 351 867 350 874 b 342 882 346 878 343 879 b 324 935 338 888 328 928 b 303 951 321 939 307 949 b 286 954 300 953 289 954 b 251 964 274 956 261 958 b 222 969 242 968 232 972 b 183 963 210 968 197 960 b 192 989 164 965 171 989 b 247 1001 210 997 228 1001 b 289 992 254 1001 282 993 b 322 983 293 990 318 986 b 357 953 331 979 353 961 b 381 875 364 940 378 889 b 353 865 382 861 360 853 m 350 806 b 376 804 358 811 372 815 b 361 788 379 796 369 792 b 350 806 347 781 336 796 "},"ï":{"ha":504,"x_min":0,"x_max":0,"o":"m 347 -8 b 243 -14 313 -14 278 -17 b 160 10 214 -11 185 -6 b 115 63 142 22 126 42 b 72 186 94 101 82 143 b 42 579 40 313 42 447 b 51 817 43 658 42 738 b 93 968 58 869 69 922 b 160 1024 107 994 133 1013 b 422 922 269 1069 414 1049 b 424 753 425 865 422 808 b 433 536 425 681 429 608 b 454 328 439 467 444 397 b 471 169 461 275 469 222 b 458 67 472 135 471 99 b 421 18 451 47 438 31 b 347 -8 399 3 372 -4 m 353 865 b 381 875 360 853 382 861 b 357 953 378 889 364 940 b 322 983 353 961 331 979 b 289 992 318 986 293 990 b 247 1001 282 993 254 1001 b 192 989 228 1001 210 997 b 183 963 171 989 164 965 b 222 969 197 960 210 968 b 251 964 232 972 242 968 b 286 954 261 958 274 956 b 303 951 289 954 300 953 b 324 935 307 949 321 939 b 342 882 328 928 338 888 b 349 875 343 879 346 878 b 353 865 350 874 351 867 m 350 806 b 361 788 336 796 347 781 b 376 804 369 792 379 796 b 350 806 372 815 358 811 "},"j":{"ha":953,"x_min":0,"x_max":0,"o":"m 539 -53 b 151 58 404 -62 256 -22 b 26 267 86 110 46 189 b 21 428 14 319 15 374 b 33 494 22 450 25 474 b 233 597 56 557 161 599 b 388 513 289 594 374 564 b 383 406 399 478 388 442 b 581 406 365 268 539 211 b 550 715 590 453 586 704 b 465 725 540 719 476 725 b 336 722 422 725 379 718 b 249 758 304 725 271 738 b 218 808 233 771 222 790 b 207 899 210 838 207 868 b 250 1018 208 942 215 992 b 308 1039 267 1031 288 1036 b 447 1047 354 1044 401 1046 b 751 1061 488 1049 711 1063 b 804 1053 768 1060 788 1058 b 867 1003 829 1043 854 1026 b 889 896 885 971 886 932 b 907 617 894 803 899 710 b 915 413 914 549 921 481 b 826 108 906 307 882 199 b 710 0 800 63 757 25 b 539 -53 658 -29 599 -47 m 554 954 b 597 960 568 953 583 956 b 700 968 614 965 682 968 b 746 958 708 968 739 963 b 763 956 751 956 757 957 b 781 974 775 950 790 964 b 693 997 767 990 714 997 b 613 999 665 996 639 1003 b 585 994 603 999 593 997 b 544 1000 571 993 557 999 b 476 1000 522 1003 499 999 b 457 972 460 1000 444 983 b 518 964 465 964 507 965 b 554 954 531 963 542 956 m 799 901 b 826 926 818 888 843 908 b 799 901 811 942 781 915 m 275 490 b 293 511 288 486 303 501 b 240 533 279 524 260 532 b 204 542 228 533 217 542 b 139 528 182 540 158 540 b 156 507 118 515 136 493 b 196 508 161 507 190 510 b 226 500 206 507 215 501 b 246 500 229 500 243 501 b 275 490 250 500 271 493 m 311 472 b 325 454 299 463 310 447 b 336 460 329 456 332 458 b 326 482 354 468 343 488 b 311 472 324 481 314 475 "},"k":{"ha":989,"x_min":0,"x_max":0,"o":"m 365 3 b 76 40 276 -29 133 -33 b 49 113 60 60 51 88 b 54 382 38 203 50 293 b 57 678 56 419 57 642 b 71 900 60 751 61 826 b 100 1004 76 935 82 972 b 140 1035 107 1019 124 1031 b 347 1036 218 1058 272 1065 b 390 999 365 1029 382 1015 b 406 950 397 983 401 967 b 428 781 418 894 424 838 b 440 792 433 786 438 790 b 721 957 481 825 672 938 b 835 1000 751 969 801 1003 b 968 797 926 992 969 881 b 957 758 968 783 965 769 b 922 731 949 747 936 738 b 824 682 890 713 856 699 b 543 533 729 635 635 588 b 915 269 642 467 819 342 b 847 19 1010 199 949 75 b 794 1 832 10 814 4 b 449 243 697 -8 517 175 b 421 269 439 251 431 260 b 428 138 425 210 428 154 b 365 3 429 75 424 25 m 149 960 b 172 961 153 951 165 953 b 210 958 178 969 200 960 b 249 963 224 957 236 960 b 285 969 261 964 272 969 b 300 990 297 968 308 981 b 267 996 292 999 278 999 b 256 993 264 996 257 993 b 203 1000 247 994 210 1000 b 149 979 183 1001 163 993 b 149 960 143 974 143 965 m 325 960 b 350 958 324 947 344 946 b 351 964 350 960 350 963 b 328 969 363 981 335 989 b 325 960 328 968 326 961 m 679 876 b 739 886 690 864 722 885 b 769 897 749 889 760 894 b 815 906 775 900 810 903 b 822 910 817 907 819 910 b 825 938 846 901 850 939 b 808 931 822 938 811 932 b 796 936 806 931 799 935 b 764 942 786 942 774 943 b 708 919 753 940 718 925 b 679 876 692 908 667 893 m 858 915 b 883 914 857 901 878 901 b 885 922 883 917 883 919 b 861 925 896 940 863 946 b 858 915 860 921 858 918 "},"l":{"ha":801,"x_min":0,"x_max":0,"o":"m 476 -42 b 251 -56 401 -49 326 -62 b 113 -1 201 -51 147 -37 b 67 108 85 26 74 69 b 54 404 50 206 51 306 b 54 407 54 406 54 406 b 53 779 43 531 49 656 b 86 1011 56 825 60 975 b 114 1033 93 1021 103 1029 b 182 1047 136 1042 160 1043 b 364 1031 243 1056 310 1057 b 421 976 389 1019 411 1000 b 432 865 435 942 435 903 b 415 735 429 822 422 778 b 378 464 401 644 388 554 b 375 369 375 432 372 400 b 385 340 376 358 378 347 b 406 335 390 335 399 335 b 646 365 486 338 565 360 b 733 353 675 367 707 367 b 767 315 747 344 758 331 b 783 246 776 293 779 269 b 782 81 790 190 792 135 b 739 1 776 51 763 19 b 643 -32 713 -19 678 -29 b 476 -42 588 -36 532 -37 m 285 960 b 328 964 301 956 324 947 b 293 989 331 981 308 986 b 268 990 289 990 271 988 b 193 997 246 1003 218 1000 b 167 975 179 994 161 988 b 240 960 174 958 224 965 b 285 960 254 956 271 963 m 364 961 b 364 938 350 961 344 935 b 364 961 383 939 390 963 m 460 268 b 514 267 476 261 496 268 b 568 275 532 265 551 268 b 608 281 581 281 594 281 b 643 279 619 281 632 276 b 642 306 660 285 660 308 b 615 308 633 303 625 307 b 574 307 601 310 588 308 b 547 310 565 307 556 310 b 457 293 526 311 472 306 b 460 268 447 285 449 272 m 685 276 b 707 268 678 263 697 256 b 718 286 711 271 718 282 b 693 292 718 297 703 299 b 685 276 690 290 686 279 "},"m":{"ha":1290,"x_min":0,"x_max":0,"o":"m 314 -12 b 140 -19 260 -33 197 -33 b 75 10 118 -14 93 -6 b 42 61 60 22 50 42 b 25 163 29 93 26 128 b 118 697 19 343 67 524 b 231 951 144 786 175 876 b 311 1008 250 978 279 1000 b 460 983 363 1021 417 1013 b 540 868 499 957 519 910 b 632 635 576 792 601 713 b 643 607 636 625 639 615 b 656 636 647 617 651 626 b 764 897 688 725 721 814 b 836 990 782 932 804 968 b 1007 1000 882 1024 958 1029 b 1103 882 1050 974 1079 926 b 1203 592 1149 790 1176 690 b 1265 186 1239 460 1265 322 b 1251 71 1265 147 1264 107 b 1215 14 1244 49 1232 28 b 979 -10 1165 -28 1039 -35 b 919 39 956 0 932 17 b 886 286 897 78 889 242 b 875 438 885 304 879 378 b 829 365 858 411 835 375 b 722 231 803 326 765 268 b 657 190 704 211 682 194 b 561 233 622 186 588 208 b 504 300 540 253 521 276 b 415 432 492 317 443 390 b 399 199 410 349 400 226 b 379 54 394 150 394 100 b 314 -12 369 24 343 -1 m 442 876 b 475 831 450 864 461 831 b 490 849 486 831 494 839 b 478 886 489 853 479 881 b 433 940 468 907 454 929 b 390 953 428 943 396 951 b 353 967 378 957 365 964 b 319 964 342 968 331 967 b 286 942 310 961 289 951 b 299 928 283 933 290 926 b 331 935 310 928 319 935 b 372 922 346 935 358 926 b 410 913 378 921 404 915 b 442 876 424 904 432 889 m 1044 813 b 1064 829 1056 801 1074 817 b 1036 879 1054 846 1049 865 b 1024 890 1035 882 1025 889 b 993 938 1013 906 1006 924 b 951 960 982 950 967 957 b 869 956 924 964 896 961 b 872 932 851 951 854 932 b 919 932 879 933 914 933 b 965 913 936 929 956 925 b 1010 864 979 896 990 874 b 1033 824 1018 860 1028 832 b 1044 813 1035 822 1042 814 m 493 776 b 511 797 514 763 535 789 b 493 776 497 803 479 785 m 1075 774 b 1081 750 1051 769 1060 740 b 1075 774 1101 760 1097 778 "},"n":{"ha":1108,"x_min":0,"x_max":0,"o":"m 281 -24 b 76 15 232 -28 111 -18 b 46 189 28 60 47 131 b 44 222 46 200 44 211 b 44 438 43 294 42 365 b 72 782 47 553 57 668 b 97 883 76 817 81 853 b 139 917 107 899 121 911 b 228 918 167 925 199 922 b 335 883 264 913 301 901 b 461 776 383 857 424 817 b 613 589 515 718 564 653 b 707 461 628 569 696 485 b 718 693 719 511 718 654 b 718 949 715 778 703 864 b 746 1007 722 969 729 993 b 968 1042 788 1046 914 1054 b 1025 1019 989 1036 1010 1032 b 1064 911 1054 994 1061 950 b 1061 631 1069 818 1065 724 b 1039 219 1060 576 1046 274 b 1010 90 1032 175 1026 131 b 963 17 1000 63 985 35 b 706 33 900 -32 771 -11 b 601 138 665 60 632 99 b 374 435 571 175 451 336 b 385 329 376 399 381 364 b 397 111 392 257 401 185 b 372 19 396 79 390 44 b 281 -24 351 -8 314 -19 m 989 922 b 1018 928 996 913 1015 917 b 1010 956 1021 935 1014 949 b 975 985 1000 967 989 979 b 907 1014 951 994 931 1011 b 850 1006 899 1015 858 1006 b 836 986 840 1004 831 994 b 871 981 842 979 863 981 b 918 968 879 981 911 971 b 969 949 936 961 956 960 b 989 922 979 943 983 932 m 1001 858 b 1026 869 1008 846 1031 856 b 999 867 1035 889 994 886 b 1001 858 999 865 1001 860 m 415 703 b 438 717 426 699 438 706 b 418 738 438 722 422 733 b 393 768 410 747 403 760 b 368 786 386 776 376 781 b 343 807 364 789 347 804 b 200 874 303 840 253 871 b 165 860 189 874 169 872 b 192 843 163 847 179 847 b 283 804 224 835 250 808 b 339 769 296 804 329 776 b 369 750 349 763 361 758 b 393 721 374 747 389 725 b 415 703 396 718 411 704 m 450 642 b 476 640 444 625 469 624 b 475 660 486 646 486 657 b 450 642 463 665 453 654 "},"ñ":{"ha":1108,"x_min":0,"x_max":0,"o":"m 281 -24 b 372 19 314 -19 351 -8 b 397 111 390 44 396 79 b 385 329 401 185 392 257 b 374 435 381 364 376 399 b 601 138 451 336 571 175 b 706 33 632 99 665 60 b 963 17 771 -11 900 -32 b 1010 90 985 35 1000 63 b 1039 219 1026 131 1032 175 b 1061 631 1046 274 1060 576 b 1064 911 1065 724 1069 818 b 1025 1019 1061 950 1054 994 b 968 1042 1010 1032 989 1036 b 746 1007 914 1054 788 1046 b 718 949 729 993 722 969 b 718 693 703 864 715 778 b 707 461 718 654 719 511 b 613 589 696 485 628 569 b 461 776 564 653 515 718 b 335 883 424 817 383 857 b 228 918 301 901 264 913 b 139 917 199 922 167 925 b 97 883 121 911 107 899 b 72 782 81 853 76 817 b 44 438 57 668 47 553 b 44 222 42 365 43 294 b 46 189 44 211 46 200 b 76 15 47 131 28 60 b 281 -24 111 -18 232 -28 m 989 922 b 969 949 983 932 979 943 b 918 968 956 960 936 961 b 871 981 911 971 879 981 b 836 986 863 981 842 979 b 850 1006 831 994 840 1004 b 907 1014 858 1006 899 1015 b 975 985 931 1011 951 994 b 1010 956 989 979 1000 967 b 1018 928 1014 949 1021 935 b 989 922 1015 917 996 913 m 1001 858 b 999 867 1001 860 999 865 b 1026 869 994 886 1035 889 b 1001 858 1031 856 1008 846 m 415 703 b 393 721 411 704 396 718 b 369 750 389 725 374 747 b 339 769 361 758 349 763 b 283 804 329 776 296 804 b 192 843 250 808 224 835 b 165 860 179 847 163 847 b 200 874 169 872 189 874 b 343 807 253 871 303 840 b 368 786 347 804 364 789 b 393 768 376 781 386 776 b 418 738 403 760 410 747 b 438 717 422 733 438 722 b 415 703 438 706 426 699 m 450 642 b 475 660 453 654 463 665 b 476 640 486 657 486 646 b 450 642 469 624 444 625 "},"o":{"ha":1204,"x_min":0,"x_max":0,"o":"m 788 -46 b 586 -68 722 -65 654 -69 b 311 -12 493 -68 396 -54 b 114 169 231 26 158 92 b 26 482 58 263 32 374 b 58 725 22 564 29 649 b 253 975 96 825 168 914 b 404 1046 299 1008 350 1036 b 429 1050 407 1046 418 1049 b 460 1057 443 1053 456 1056 b 692 1061 536 1072 615 1071 b 964 947 789 1050 888 1010 b 1140 693 1043 882 1107 792 b 1142 689 1140 692 1142 690 b 1176 388 1179 594 1190 488 b 1090 165 1165 308 1138 229 b 788 -46 1017 67 906 -11 m 940 814 b 990 818 956 797 989 794 b 921 897 992 847 947 883 b 894 907 913 901 904 906 b 842 940 875 911 860 929 b 813 954 839 942 817 951 b 782 975 803 960 793 969 b 664 992 746 992 703 989 b 611 979 643 994 613 1000 b 625 964 611 972 619 967 b 779 929 674 943 733 954 b 819 914 792 922 807 921 b 857 888 833 908 844 897 b 886 875 865 881 878 881 b 933 825 896 868 928 836 b 940 814 936 822 938 818 m 992 743 b 1014 733 988 731 1004 726 b 1019 738 1015 735 1017 738 b 1028 757 1029 739 1035 751 b 992 743 1018 765 994 756 m 404 440 b 685 315 444 335 576 282 b 765 363 714 324 743 340 b 801 664 832 432 851 581 b 690 742 778 701 733 729 b 456 703 614 763 519 750 b 429 668 444 693 436 681 b 404 440 393 600 376 511 "},"ò":{"ha":1204,"x_min":0,"x_max":0,"o":"m 788 -46 b 1090 165 906 -11 1017 67 b 1176 388 1138 229 1165 308 b 1142 689 1190 488 1179 594 b 1140 693 1142 690 1140 692 b 964 947 1107 792 1043 882 b 692 1061 888 1010 789 1050 b 460 1057 615 1071 536 1072 b 429 1050 456 1056 443 1053 b 404 1046 418 1049 407 1046 b 253 975 350 1036 299 1008 b 58 725 168 914 96 825 b 26 482 29 649 22 564 b 114 169 32 374 58 263 b 311 -12 158 92 231 26 b 586 -68 396 -54 493 -68 b 788 -46 654 -69 722 -65 m 940 814 b 933 825 938 818 936 822 b 886 875 928 836 896 868 b 857 888 878 881 865 881 b 819 914 844 897 833 908 b 779 929 807 921 792 922 b 625 964 733 954 674 943 b 611 979 619 967 611 972 b 664 992 613 1000 643 994 b 782 975 703 989 746 992 b 813 954 793 969 803 960 b 842 940 817 951 839 942 b 894 907 860 929 875 911 b 921 897 904 906 913 901 b 990 818 947 883 992 847 b 940 814 989 794 956 797 m 992 743 b 1028 757 994 756 1018 765 b 1019 738 1035 751 1029 739 b 1014 733 1017 738 1015 735 b 992 743 1004 726 988 731 m 404 440 b 429 668 376 511 393 600 b 456 703 436 681 444 693 b 690 742 519 750 614 763 b 801 664 733 729 778 701 b 765 363 851 581 832 432 b 685 315 743 340 714 324 b 404 440 576 282 444 335 "},"ó":{"ha":1204,"x_min":0,"x_max":0,"o":"m 788 -46 b 586 -68 722 -65 654 -69 b 311 -12 493 -68 396 -54 b 114 169 231 26 158 92 b 26 482 58 263 32 374 b 58 725 22 564 29 649 b 253 975 96 825 168 914 b 404 1046 299 1008 350 1036 b 429 1050 407 1046 418 1049 b 460 1057 443 1053 456 1056 b 692 1061 536 1072 615 1071 b 964 947 789 1050 888 1010 b 1140 693 1043 882 1107 792 b 1142 689 1140 692 1142 690 b 1176 388 1179 594 1190 488 b 1090 165 1165 308 1138 229 b 788 -46 1017 67 906 -11 m 940 814 b 990 818 956 797 989 794 b 921 897 992 847 947 883 b 894 907 913 901 904 906 b 842 940 875 911 860 929 b 813 954 839 942 817 951 b 782 975 803 960 793 969 b 664 992 746 992 703 989 b 611 979 643 994 613 1000 b 625 964 611 972 619 967 b 779 929 674 943 733 954 b 819 914 792 922 807 921 b 857 888 833 908 844 897 b 886 875 865 881 878 881 b 933 825 896 868 928 836 b 940 814 936 822 938 818 m 992 743 b 1014 733 988 731 1004 726 b 1019 738 1015 735 1017 738 b 1028 757 1029 739 1035 751 b 992 743 1018 765 994 756 m 404 440 b 685 315 444 335 576 282 b 765 363 714 324 743 340 b 801 664 832 432 851 581 b 690 742 778 701 733 729 b 456 703 614 763 519 750 b 429 668 444 693 436 681 b 404 440 393 600 376 511 "},"ô":{"ha":1204,"x_min":0,"x_max":0,"o":"m 788 -46 b 1090 165 906 -11 1017 67 b 1176 388 1138 229 1165 308 b 1142 689 1190 488 1179 594 b 1140 693 1142 690 1140 692 b 964 947 1107 792 1043 882 b 692 1061 888 1010 789 1050 b 460 1057 615 1071 536 1072 b 429 1050 456 1056 443 1053 b 404 1046 418 1049 407 1046 b 253 975 350 1036 299 1008 b 58 725 168 914 96 825 b 26 482 29 649 22 564 b 114 169 32 374 58 263 b 311 -12 158 92 231 26 b 586 -68 396 -54 493 -68 b 788 -46 654 -69 722 -65 m 940 814 b 933 825 938 818 936 822 b 886 875 928 836 896 868 b 857 888 878 881 865 881 b 819 914 844 897 833 908 b 779 929 807 921 792 922 b 625 964 733 954 674 943 b 611 979 619 967 611 972 b 664 992 613 1000 643 994 b 782 975 703 989 746 992 b 813 954 793 969 803 960 b 842 940 817 951 839 942 b 894 907 860 929 875 911 b 921 897 904 906 913 901 b 990 818 947 883 992 847 b 940 814 989 794 956 797 m 992 743 b 1028 757 994 756 1018 765 b 1019 738 1035 751 1029 739 b 1014 733 1017 738 1015 735 b 992 743 1004 726 988 731 m 404 440 b 429 668 376 511 393 600 b 456 703 436 681 444 693 b 690 742 519 750 614 763 b 801 664 733 729 778 701 b 765 363 851 581 832 432 b 685 315 743 340 714 324 b 404 440 576 282 444 335 "},"õ":{"ha":1204,"x_min":0,"x_max":0,"o":"m 788 -46 b 586 -68 722 -65 654 -69 b 311 -12 493 -68 396 -54 b 114 169 231 26 158 92 b 26 482 58 263 32 374 b 58 725 22 564 29 649 b 253 975 96 825 168 914 b 404 1046 299 1008 350 1036 b 429 1050 407 1046 418 1049 b 460 1057 443 1053 456 1056 b 692 1061 536 1072 615 1071 b 964 947 789 1050 888 1010 b 1140 693 1043 882 1107 792 b 1142 689 1140 692 1142 690 b 1176 388 1179 594 1190 488 b 1090 165 1165 308 1138 229 b 788 -46 1017 67 906 -11 m 940 814 b 990 818 956 797 989 794 b 921 897 992 847 947 883 b 894 907 913 901 904 906 b 842 940 875 911 860 929 b 813 954 839 942 817 951 b 782 975 803 960 793 969 b 664 992 746 992 703 989 b 611 979 643 994 613 1000 b 625 964 611 972 619 967 b 779 929 674 943 733 954 b 819 914 792 922 807 921 b 857 888 833 908 844 897 b 886 875 865 881 878 881 b 933 825 896 868 928 836 b 940 814 936 822 938 818 m 992 743 b 1014 733 988 731 1004 726 b 1019 738 1015 735 1017 738 b 1028 757 1029 739 1035 751 b 992 743 1018 765 994 756 m 404 440 b 685 315 444 335 576 282 b 765 363 714 324 743 340 b 801 664 832 432 851 581 b 690 742 778 701 733 729 b 456 703 614 763 519 750 b 429 668 444 693 436 681 b 404 440 393 600 376 511 "},"ö":{"ha":1204,"x_min":0,"x_max":0,"o":"m 788 -46 b 1090 165 906 -11 1017 67 b 1176 388 1138 229 1165 308 b 1142 689 1190 488 1179 594 b 1140 693 1142 690 1140 692 b 964 947 1107 792 1043 882 b 692 1061 888 1010 789 1050 b 460 1057 615 1071 536 1072 b 429 1050 456 1056 443 1053 b 404 1046 418 1049 407 1046 b 253 975 350 1036 299 1008 b 58 725 168 914 96 825 b 26 482 29 649 22 564 b 114 169 32 374 58 263 b 311 -12 158 92 231 26 b 586 -68 396 -54 493 -68 b 788 -46 654 -69 722 -65 m 940 814 b 933 825 938 818 936 822 b 886 875 928 836 896 868 b 857 888 878 881 865 881 b 819 914 844 897 833 908 b 779 929 807 921 792 922 b 625 964 733 954 674 943 b 611 979 619 967 611 972 b 664 992 613 1000 643 994 b 782 975 703 989 746 992 b 813 954 793 969 803 960 b 842 940 817 951 839 942 b 894 907 860 929 875 911 b 921 897 904 906 913 901 b 990 818 947 883 992 847 b 940 814 989 794 956 797 m 992 743 b 1028 757 994 756 1018 765 b 1019 738 1035 751 1029 739 b 1014 733 1017 738 1015 735 b 992 743 1004 726 988 731 m 404 440 b 429 668 376 511 393 600 b 456 703 436 681 444 693 b 690 742 519 750 614 763 b 801 664 733 729 778 701 b 765 363 851 581 832 432 b 685 315 743 340 714 324 b 404 440 576 282 444 335 "},"ø":{"ha":1204,"x_min":0,"x_max":0,"o":"m 788 -46 b 586 -68 722 -65 654 -69 b 311 -12 493 -68 396 -54 b 114 169 231 26 158 92 b 26 482 58 263 32 374 b 58 725 22 564 29 649 b 253 975 96 825 168 914 b 404 1046 299 1008 350 1036 b 429 1050 407 1046 418 1049 b 460 1057 443 1053 456 1056 b 692 1061 536 1072 615 1071 b 964 947 789 1050 888 1010 b 1140 693 1043 882 1107 792 b 1142 689 1140 692 1142 690 b 1176 388 1179 594 1190 488 b 1090 165 1165 308 1138 229 b 788 -46 1017 67 906 -11 m 940 814 b 990 818 956 797 989 794 b 921 897 992 847 947 883 b 894 907 913 901 904 906 b 842 940 875 911 860 929 b 813 954 839 942 817 951 b 782 975 803 960 793 969 b 664 992 746 992 703 989 b 611 979 643 994 613 1000 b 625 964 611 972 619 967 b 779 929 674 943 733 954 b 819 914 792 922 807 921 b 857 888 833 908 844 897 b 886 875 865 881 878 881 b 933 825 896 868 928 836 b 940 814 936 822 938 818 m 992 743 b 1014 733 988 731 1004 726 b 1019 738 1015 735 1017 738 b 1028 757 1029 739 1035 751 b 992 743 1018 765 994 756 m 404 440 b 685 315 444 335 576 282 b 765 363 714 324 743 340 b 801 664 832 432 851 581 b 690 742 778 701 733 729 b 456 703 614 763 519 750 b 429 668 444 693 436 681 b 404 440 393 600 376 511 "},"p":{"ha":1131,"x_min":0,"x_max":0,"o":"m 342 -58 b 215 -53 300 -64 256 -67 b 151 -14 192 -44 168 -32 b 126 36 139 0 132 18 b 113 172 122 54 114 153 b 101 567 103 303 99 435 b 113 704 103 613 104 660 b 99 706 107 704 101 704 b 46 724 81 706 58 711 b 19 851 28 744 21 824 b 46 989 18 899 24 949 b 114 1050 60 1017 83 1044 b 697 1074 300 1083 518 1100 b 1083 536 1043 1022 1186 790 b 892 346 1050 454 974 385 b 700 297 832 318 765 303 b 592 296 664 294 626 292 b 511 313 564 299 536 301 b 503 317 508 313 506 314 b 514 239 507 290 510 264 b 528 96 521 192 528 143 b 513 25 528 72 525 46 b 464 -24 503 4 485 -12 b 342 -58 426 -43 383 -51 m 885 908 b 914 932 900 904 918 917 b 901 944 913 936 904 942 b 864 968 896 949 871 965 b 832 978 853 972 842 974 b 789 1000 817 983 803 992 b 696 1024 761 1015 728 1022 b 681 1028 693 1024 683 1028 b 589 1031 664 1033 606 1035 b 575 1001 572 1028 563 1011 b 646 989 583 996 636 994 b 685 976 657 983 671 976 b 783 964 718 978 754 979 b 843 938 793 960 836 944 b 885 908 850 931 875 911 m 936 853 b 972 872 951 844 975 854 b 943 881 969 883 956 885 b 936 853 931 876 924 860 m 476 557 b 649 564 533 551 592 554 b 735 597 678 571 711 578 b 738 721 769 628 771 692 b 657 753 715 740 685 749 b 469 751 594 761 532 756 b 471 747 469 750 471 749 b 471 656 472 735 471 668 b 476 557 472 622 474 590 "},"q":{"ha":1204,"x_min":0,"x_max":0,"o":"m 1043 -156 b 883 -226 1003 -197 942 -226 b 822 -200 861 -225 839 -217 b 767 -111 797 -176 781 -143 b 744 -57 763 -101 754 -82 b 586 -68 693 -67 639 -69 b 311 -12 493 -68 396 -54 b 114 169 231 26 158 92 b 26 482 58 263 32 374 b 58 725 22 564 29 649 b 253 975 96 825 168 914 b 404 1046 299 1008 350 1036 b 429 1050 407 1046 418 1049 b 460 1057 443 1053 456 1056 b 692 1061 536 1072 615 1071 b 964 947 789 1050 888 1010 b 1140 693 1043 882 1107 792 b 1142 689 1140 692 1142 690 b 1176 388 1179 594 1190 488 b 1090 165 1165 308 1138 229 b 1007 76 1067 133 1038 103 b 1050 7 1021 53 1036 31 b 1082 -71 1064 -17 1079 -43 b 1043 -156 1085 -101 1064 -133 m 925 864 b 956 888 943 857 964 871 b 878 938 947 904 894 929 b 815 960 868 942 825 958 b 794 964 813 961 797 963 b 753 992 779 971 767 982 b 700 1010 738 1001 718 1007 b 629 1000 688 1011 640 1004 b 611 974 617 996 601 983 b 636 971 615 969 631 971 b 663 972 639 971 658 972 b 726 953 674 971 717 958 b 756 943 736 947 746 946 b 778 933 764 940 771 935 b 811 931 783 933 806 932 b 883 896 836 922 863 913 b 925 864 890 890 917 867 m 982 807 b 993 833 996 799 1014 828 b 982 807 974 839 958 821 m 404 440 b 600 306 435 363 515 313 b 547 525 572 361 524 475 b 608 574 560 549 585 563 b 674 586 628 582 651 592 b 751 494 701 581 736 518 b 799 413 768 468 783 440 b 801 664 838 489 842 597 b 690 742 778 701 733 729 b 456 703 614 763 519 750 b 429 668 444 693 436 681 b 404 440 393 600 376 511 "},"r":{"ha":1156,"x_min":0,"x_max":0,"o":"m 447 6 b 235 -6 408 -21 281 -14 b 143 51 199 1 161 21 b 131 157 126 82 129 121 b 139 633 133 315 149 475 b 138 672 139 646 138 660 b 93 660 119 665 101 660 b 60 679 81 661 68 669 b 29 742 44 697 36 719 b 13 872 15 783 13 828 b 28 936 13 894 14 919 b 81 975 42 954 61 965 b 164 1007 107 988 135 999 b 590 1082 300 1053 446 1086 b 886 1029 692 1079 796 1069 b 1057 907 951 1000 1015 961 b 1124 771 1089 867 1111 819 b 1110 576 1139 707 1133 636 b 1050 481 1096 542 1075 510 b 992 428 1033 461 1015 442 b 863 379 953 404 908 390 b 929 336 885 365 907 351 b 1068 215 979 301 1029 263 b 1094 150 1083 197 1097 174 b 926 -10 1089 75 1003 0 b 876 -6 910 -12 892 -11 b 790 57 843 6 815 32 b 689 163 754 90 722 128 b 513 321 635 219 575 272 b 510 318 511 319 511 319 b 513 293 511 310 511 301 b 485 54 519 214 517 128 b 447 6 476 36 465 18 m 925 883 b 949 875 932 879 940 875 b 965 897 960 876 971 886 b 925 938 961 906 932 932 b 861 969 907 953 882 958 b 800 996 842 979 819 983 b 676 1024 764 1017 719 1021 b 614 1015 667 1024 624 1018 b 601 990 600 1015 590 1000 b 660 985 608 985 650 989 b 700 978 672 979 688 982 b 743 971 714 974 728 969 b 774 969 753 972 764 974 b 835 947 782 967 828 951 b 892 914 856 939 874 928 b 925 883 903 906 911 892 m 986 836 b 1013 838 979 818 1011 818 b 986 836 1015 853 990 850 m 494 521 b 671 563 556 517 624 526 b 714 715 714 596 739 668 b 646 774 700 740 674 761 b 576 788 624 782 600 786 b 483 786 546 789 514 792 b 474 785 482 786 478 786 b 475 775 475 781 475 776 b 485 643 479 731 482 688 b 493 546 490 610 492 561 b 494 521 493 538 494 529 "},"s":{"ha":1079,"x_min":0,"x_max":0,"o":"m 875 40 b 279 -43 693 -65 479 -64 b 67 19 231 -37 99 -15 b 49 94 50 40 49 69 b 78 233 50 132 61 200 b 121 285 89 253 101 274 b 264 299 163 311 186 314 b 515 281 338 283 442 269 b 490 365 606 294 596 386 b 78 428 357 339 168 307 b 143 879 -21 558 40 763 b 208 940 163 903 183 924 b 486 1047 290 996 388 1031 b 714 1049 561 1060 638 1056 b 936 1000 789 1042 865 1029 b 1025 946 968 986 1003 972 b 1054 858 1047 922 1057 890 b 1000 739 1050 815 1029 772 b 911 664 975 710 949 678 b 864 658 896 658 879 657 b 567 725 824 664 607 722 b 542 569 414 731 336 568 b 742 569 614 569 669 564 b 896 556 793 572 847 572 b 964 515 921 547 946 535 b 996 468 978 501 988 485 b 1031 269 1022 406 1035 338 b 999 154 1026 231 1019 189 b 875 40 971 107 925 69 m 838 949 b 860 964 850 940 868 951 b 831 981 856 971 838 979 b 767 988 822 982 775 985 b 750 997 760 989 756 994 b 708 1008 744 1000 714 1007 b 593 1007 690 1013 611 1007 b 579 974 574 1006 561 983 b 696 972 597 964 675 974 b 726 972 700 972 722 974 b 744 963 729 972 742 964 b 811 951 754 958 801 951 b 838 949 819 950 829 947 m 892 940 b 903 924 888 932 893 924 b 922 947 915 925 929 936 b 892 940 915 958 897 953 m 890 464 b 925 469 901 453 921 453 b 900 503 928 483 913 497 b 815 524 888 508 829 522 b 742 521 792 528 765 525 b 706 522 736 521 711 522 b 639 515 683 524 661 519 b 626 494 629 514 621 503 b 675 488 635 485 663 488 b 738 486 696 488 717 485 b 768 494 747 488 758 493 b 843 483 793 496 818 489 b 890 464 858 478 878 476 m 933 404 b 943 429 947 396 968 435 b 933 404 928 428 914 415 "},"t":{"ha":1046,"x_min":0,"x_max":0,"o":"m 544 -47 b 353 -15 500 -51 386 -44 b 332 44 338 0 333 24 b 344 207 331 68 342 185 b 365 678 361 364 371 521 b 361 733 365 696 364 715 b 317 722 346 728 325 725 b 104 690 278 714 142 681 b 47 731 82 697 61 713 b 21 800 31 750 24 775 b 26 1001 13 847 -6 965 b 181 1054 49 1026 147 1049 b 436 1079 265 1069 351 1074 b 742 1086 538 1086 640 1096 b 899 1065 761 1085 878 1068 b 985 1033 929 1060 960 1051 b 1025 986 1001 1022 1017 1006 b 1039 885 1039 954 1040 918 b 1010 779 1036 849 1031 810 b 940 733 994 756 968 740 b 806 722 897 724 851 722 b 725 721 794 722 747 721 b 744 585 732 675 739 629 b 756 426 751 532 753 479 b 726 22 758 344 774 90 b 646 -26 708 -3 675 -17 b 544 -47 613 -37 578 -44 m 840 990 b 867 999 847 978 868 985 b 856 1019 867 1006 864 1015 b 789 1032 846 1024 799 1031 b 757 1039 785 1033 761 1039 b 710 1038 742 1039 725 1036 b 679 1040 700 1038 689 1039 b 599 1036 653 1047 625 1043 b 565 1031 588 1033 575 1036 b 558 1011 558 1026 554 1018 b 576 1004 563 1006 569 1004 b 651 1000 601 1001 626 1001 b 671 997 654 1000 668 997 b 714 999 678 996 707 997 b 739 1006 718 1000 736 1006 b 840 990 754 1007 825 993 m 906 971 b 928 963 899 958 918 951 b 933 971 929 965 932 968 b 914 983 943 983 926 994 b 906 971 913 982 907 974 "},"u":{"ha":1063,"x_min":0,"x_max":0,"o":"m 694 7 b 436 -7 613 -21 521 -21 b 265 61 376 4 317 29 b 88 272 189 111 126 189 b 31 565 46 363 32 465 b 78 922 29 685 46 807 b 119 1019 88 957 97 992 b 147 1043 125 1025 140 1042 b 213 1085 164 1063 188 1078 b 411 1046 263 1099 372 1081 b 439 990 426 1032 436 1011 b 426 858 444 946 435 901 b 386 615 408 778 389 697 b 408 457 385 563 386 506 b 460 400 419 435 436 410 b 596 461 507 382 569 418 b 635 578 617 496 628 538 b 633 864 650 672 640 768 b 635 993 631 907 625 951 b 675 1049 640 1015 656 1038 b 806 1069 714 1069 761 1072 b 922 1042 846 1067 888 1060 b 975 992 944 1032 963 1013 b 1014 857 999 951 1007 903 b 1031 608 1028 775 1033 690 b 999 382 1028 532 1019 456 b 871 126 974 290 932 199 b 694 7 825 72 761 31 m 356 974 b 388 981 365 963 386 965 b 374 1006 388 986 378 1000 b 342 1031 364 1015 356 1026 b 303 1040 329 1033 315 1036 b 244 1043 285 1047 264 1047 b 215 1036 240 1042 219 1036 b 211 1006 196 1033 192 1008 b 275 1001 232 1004 256 1011 b 317 996 288 994 303 994 b 346 982 328 997 338 989 b 356 974 349 979 353 978 m 922 903 b 946 919 936 893 956 907 b 925 956 944 928 931 950 b 876 1006 910 972 897 994 b 839 1018 872 1010 846 1017 b 779 1021 819 1022 799 1022 b 713 1010 757 1021 733 1018 b 708 986 703 1006 699 993 b 743 985 718 981 731 983 b 844 978 776 988 811 983 b 888 946 863 976 871 953 b 922 903 896 943 915 907 m 367 911 b 393 922 378 901 392 910 b 367 911 397 944 356 922 m 944 831 b 963 856 961 824 978 849 b 944 831 944 864 926 836 "},"ù":{"ha":1063,"x_min":0,"x_max":0,"o":"m 694 7 b 871 126 761 31 825 72 b 999 382 932 199 974 290 b 1031 608 1019 456 1028 532 b 1014 857 1033 690 1028 775 b 975 992 1007 903 999 951 b 922 1042 963 1013 944 1032 b 806 1069 888 1060 846 1067 b 675 1049 761 1072 714 1069 b 635 993 656 1038 640 1015 b 633 864 625 951 631 907 b 635 578 640 768 650 672 b 596 461 628 538 617 496 b 460 400 569 418 507 382 b 408 457 436 410 419 435 b 386 615 386 506 385 563 b 426 858 389 697 408 778 b 439 990 435 901 444 946 b 411 1046 436 1011 426 1032 b 213 1085 372 1081 263 1099 b 147 1043 188 1078 164 1063 b 119 1019 140 1042 125 1025 b 78 922 97 992 88 957 b 31 565 46 807 29 685 b 88 272 32 465 46 363 b 265 61 126 189 189 111 b 436 -7 317 29 376 4 b 694 7 521 -21 613 -21 m 356 974 b 346 982 353 978 349 979 b 317 996 338 989 328 997 b 275 1001 303 994 288 994 b 211 1006 256 1011 232 1004 b 215 1036 192 1008 196 1033 b 244 1043 219 1036 240 1042 b 303 1040 264 1047 285 1047 b 342 1031 315 1036 329 1033 b 374 1006 356 1026 364 1015 b 388 981 378 1000 388 986 b 356 974 386 965 365 963 m 922 903 b 888 946 915 907 896 943 b 844 978 871 953 863 976 b 743 985 811 983 776 988 b 708 986 731 983 718 981 b 713 1010 699 993 703 1006 b 779 1021 733 1018 757 1021 b 839 1018 799 1022 819 1022 b 876 1006 846 1017 872 1010 b 925 956 897 994 910 972 b 946 919 931 950 944 928 b 922 903 956 907 936 893 m 367 911 b 393 922 356 922 397 944 b 367 911 392 910 378 901 m 944 831 b 963 856 926 836 944 864 b 944 831 978 849 961 824 "},"ú":{"ha":1063,"x_min":0,"x_max":0,"o":"m 694 7 b 436 -7 613 -21 521 -21 b 265 61 376 4 317 29 b 88 272 189 111 126 189 b 31 565 46 363 32 465 b 78 922 29 685 46 807 b 119 1019 88 957 97 992 b 147 1043 125 1025 140 1042 b 213 1085 164 1063 188 1078 b 411 1046 263 1099 372 1081 b 439 990 426 1032 436 1011 b 426 858 444 946 435 901 b 386 615 408 778 389 697 b 408 457 385 563 386 506 b 460 400 419 435 436 410 b 596 461 507 382 569 418 b 635 578 617 496 628 538 b 633 864 650 672 640 768 b 635 993 631 907 625 951 b 675 1049 640 1015 656 1038 b 806 1069 714 1069 761 1072 b 922 1042 846 1067 888 1060 b 975 992 944 1032 963 1013 b 1014 857 999 951 1007 903 b 1031 608 1028 775 1033 690 b 999 382 1028 532 1019 456 b 871 126 974 290 932 199 b 694 7 825 72 761 31 m 356 974 b 388 981 365 963 386 965 b 374 1006 388 986 378 1000 b 342 1031 364 1015 356 1026 b 303 1040 329 1033 315 1036 b 244 1043 285 1047 264 1047 b 215 1036 240 1042 219 1036 b 211 1006 196 1033 192 1008 b 275 1001 232 1004 256 1011 b 317 996 288 994 303 994 b 346 982 328 997 338 989 b 356 974 349 979 353 978 m 922 903 b 946 919 936 893 956 907 b 925 956 944 928 931 950 b 876 1006 910 972 897 994 b 839 1018 872 1010 846 1017 b 779 1021 819 1022 799 1022 b 713 1010 757 1021 733 1018 b 708 986 703 1006 699 993 b 743 985 718 981 731 983 b 844 978 776 988 811 983 b 888 946 863 976 871 953 b 922 903 896 943 915 907 m 367 911 b 393 922 378 901 392 910 b 367 911 397 944 356 922 m 944 831 b 963 856 961 824 978 849 b 944 831 944 864 926 836 "},"û":{"ha":1063,"x_min":0,"x_max":0,"o":"m 694 7 b 871 126 761 31 825 72 b 999 382 932 199 974 290 b 1031 608 1019 456 1028 532 b 1014 857 1033 690 1028 775 b 975 992 1007 903 999 951 b 922 1042 963 1013 944 1032 b 806 1069 888 1060 846 1067 b 675 1049 761 1072 714 1069 b 635 993 656 1038 640 1015 b 633 864 625 951 631 907 b 635 578 640 768 650 672 b 596 461 628 538 617 496 b 460 400 569 418 507 382 b 408 457 436 410 419 435 b 386 615 386 506 385 563 b 426 858 389 697 408 778 b 439 990 435 901 444 946 b 411 1046 436 1011 426 1032 b 213 1085 372 1081 263 1099 b 147 1043 188 1078 164 1063 b 119 1019 140 1042 125 1025 b 78 922 97 992 88 957 b 31 565 46 807 29 685 b 88 272 32 465 46 363 b 265 61 126 189 189 111 b 436 -7 317 29 376 4 b 694 7 521 -21 613 -21 m 356 974 b 346 982 353 978 349 979 b 317 996 338 989 328 997 b 275 1001 303 994 288 994 b 211 1006 256 1011 232 1004 b 215 1036 192 1008 196 1033 b 244 1043 219 1036 240 1042 b 303 1040 264 1047 285 1047 b 342 1031 315 1036 329 1033 b 374 1006 356 1026 364 1015 b 388 981 378 1000 388 986 b 356 974 386 965 365 963 m 922 903 b 888 946 915 907 896 943 b 844 978 871 953 863 976 b 743 985 811 983 776 988 b 708 986 731 983 718 981 b 713 1010 699 993 703 1006 b 779 1021 733 1018 757 1021 b 839 1018 799 1022 819 1022 b 876 1006 846 1017 872 1010 b 925 956 897 994 910 972 b 946 919 931 950 944 928 b 922 903 956 907 936 893 m 367 911 b 393 922 356 922 397 944 b 367 911 392 910 378 901 m 944 831 b 963 856 926 836 944 864 b 944 831 978 849 961 824 "}}}
